<?xml version="1.0" encoding="UTF-8"?>
<svg width="144px" height="40px" viewBox="0 0 144 40" version="1.1" xmlns="http://www.w3.org/2000/svg" xmlns:xlink="http://www.w3.org/1999/xlink">
    <title>Combined Shape</title>
    <g id="Page-1" stroke="none" stroke-width="1" fill="none" fill-rule="evenodd" opacity="0.7">
        <g id="homepage---full-width" transform="translate(-628.000000, -1353.000000)" fill="#FFFFFF">
            <path d="M667.993717,1360.29547 L668.417561,1360.29272 L668.456871,1360.51573 C668.457636,1360.51604 668.458247,1360.51634 668.458859,1360.51665 L668.45733,1360.51772 L668.4558,1360.51818 C667.109624,1361.21842 665.90631,1362.17379 664.878591,1363.19875 C662.493225,1365.57754 660.703167,1368.44901 659.162736,1371.45462 C657.001544,1371.62619 652.529307,1371.9813 647.873411,1372.351 L646.373164,1372.47012 C640.534626,1372.93373 634.765266,1373.39185 633.220132,1373.51449 C628.983372,1373.85084 635.876539,1382.66821 639.513401,1382.20337 C645.680328,1381.41442 652.376027,1378.13716 656.325533,1375.89481 L657.298647,1375.09148 L657.313025,1375.32397 L657.309966,1375.32688 C657.148596,1375.6822 656.98845,1376.03767 656.829833,1376.39161 C654.575857,1381.42375 652.522101,1386.83599 649.5867,1391.77757 C649.366442,1392.14773 649.139148,1392.51223 648.907876,1392.87336 C641.681722,1393.38179 636.324398,1392.32455 633.915323,1390.32632 C627.157523,1384.72089 625.354923,1357.40596 632.945268,1353.91364 C638.098395,1351.54281 654.31017,1353.8263 667.993717,1360.29547 Z M770.38828,1365.28723 C771.283538,1365.28723 771.731091,1365.80943 771.731091,1366.36894 C771.731091,1367.14196 770.372964,1371.70504 768.937513,1376.26615 L768.683657,1377.07026 C767.497679,1380.81547 766.310356,1384.40806 765.83704,1385.73011 C764.568719,1389.38578 763.076469,1392.10903 759.271507,1392.10903 C757.443516,1392.10903 756.921473,1391.81061 756.921473,1390.84071 C756.921473,1390.31851 757.145097,1389.98277 757.779257,1389.98277 L759.047731,1389.98277 C761.696184,1389.98277 762.964658,1387.37134 762.964658,1386.06585 C762.964658,1385.05847 762.032078,1385.2824 761.211463,1382.96938 C759.607248,1378.6049 756.212517,1367.71191 756.212517,1366.36894 C756.212517,1365.80943 756.697391,1365.28723 757.592649,1365.28723 C758.264284,1365.28723 758.71199,1365.47368 758.935766,1366.40626 C760.241561,1371.66631 761.658862,1376.9262 763.41221,1382.29805 C763.598818,1382.93206 763.859916,1382.96938 764.046523,1382.96938 C764.232978,1382.96938 764.456754,1382.93206 764.680684,1382.29805 C765.911836,1378.23184 768.299191,1369.72651 769.119959,1366.36894 C769.343582,1365.43652 769.753966,1365.28723 770.38828,1365.28723 Z M670.528217,1361.56165 C677.29657,1365.15171 683.282548,1370.19593 682.147912,1375.12773 C680.092168,1384.06012 666.537259,1390.00419 655.33743,1392.05183 C655.338807,1392.04938 655.340489,1392.04678 655.342172,1392.04402 L655.336207,1392.04647 L655.370775,1391.71608 L655.644415,1391.55288 C655.935187,1391.08009 656.220452,1390.60439 656.49348,1390.12456 C659.426587,1384.96654 661.562633,1379.48609 663.607211,1374.21136 C664.572371,1371.72045 665.514128,1369.25999 666.666354,1366.91913 C667.619583,1364.98346 668.787105,1363.02698 670.528217,1361.56165 Z M729.205485,1365.0633 C734.092619,1365.0633 736.219029,1367.67474 736.219029,1372.07654 C736.219029,1375.39663 735.510073,1375.76969 731.891413,1375.84433 L725.064782,1376.03094 C723.908426,1376.06811 723.75914,1376.36653 723.75914,1377.33658 C723.75914,1381.66389 725.32588,1383.64102 730.287504,1383.64102 C732.003377,1383.64102 733.607592,1383.37992 734.465529,1383.15599 C735.137163,1382.96938 735.584869,1383.30528 735.584869,1383.97676 C735.584869,1384.42431 735.472751,1384.76005 735.06252,1384.98398 C733.980501,1385.46901 732.227154,1385.76743 729.989085,1385.76743 C723.83363,1385.76743 721.110687,1383.30528 721.110687,1376.47865 L721.110687,1374.05382 C721.110687,1367.11507 724.654551,1365.0633 729.205485,1365.0633 Z M747.633304,1357.97557 C749.797188,1357.97557 751.662195,1358.19935 752.893347,1358.42328 C753.639472,1358.57241 753.788605,1358.83351 753.788605,1359.84073 L753.788605,1380.84313 C753.788605,1382.89489 754.198989,1383.67834 755.952337,1383.67834 L756.810274,1383.67834 C757.556399,1383.67834 757.705685,1383.97676 757.705685,1384.46163 C757.705685,1384.90934 757.593567,1385.20776 757.146015,1385.35704 C756.772952,1385.50618 755.877694,1385.61814 754.982436,1385.61814 C751.628384,1385.61814 751.16036,1383.62279 751.140818,1380.60758 L751.140152,1360.69882 C751.140152,1360.21379 750.692447,1359.98987 747.819911,1359.98987 C743.753698,1359.98987 743.194181,1361.03441 743.194181,1363.60853 L743.194181,1364.69039 C743.194181,1365.24991 743.268671,1365.43652 743.902832,1365.43652 L746.663555,1365.43652 C747.48417,1365.43652 747.670625,1365.84675 747.670625,1366.48091 C747.670625,1367.22703 747.48417,1367.56277 746.663555,1367.56277 L743.902832,1367.56277 C743.343314,1367.56277 743.194181,1367.74923 743.194181,1368.34607 L743.194181,1384.34982 C743.194181,1385.31957 742.634511,1385.5435 741.926013,1385.5435 C741.142567,1385.5435 740.545575,1385.31957 740.545575,1384.34982 L740.545575,1368.38339 C740.545575,1367.82402 740.470932,1367.56277 739.874093,1367.56277 L737.859801,1367.56277 C737.03888,1367.56277 736.852578,1367.22703 736.852578,1366.48091 C736.852578,1365.84675 737.03888,1365.43652 737.859801,1365.43652 L739.836772,1365.43652 C740.470932,1365.43652 740.545575,1365.24991 740.545575,1364.69039 L740.545575,1363.57105 C740.545575,1359.50499 742.597189,1357.97557 747.633304,1357.97557 Z M703.056696,1357.97557 C705.780098,1357.97557 706.861964,1358.08738 707.421481,1358.27399 C707.980998,1358.46045 708.055641,1358.79619 708.055641,1359.1694 C708.055641,1359.69145 707.906202,1359.98987 707.160536,1359.98987 L703.355268,1359.98987 C699.027957,1359.98987 697.83428,1360.9226 697.83428,1363.53388 L697.83428,1364.69039 C697.83428,1365.24991 697.908923,1365.43652 698.54293,1365.43652 L706.638187,1365.43652 C707.570614,1365.43652 708.242096,1365.88407 708.242096,1366.85397 L708.242096,1384.34982 C708.242096,1385.31957 707.682579,1385.5435 706.936454,1385.5435 C706.190482,1385.5435 705.59349,1385.31957 705.59349,1384.34982 L705.59349,1368.42071 C705.59349,1367.82402 705.332392,1367.56277 704.847365,1367.56277 L698.54293,1367.56277 C697.983413,1367.56277 697.83428,1367.74923 697.83428,1368.34607 L697.83428,1384.34982 C697.83428,1385.31957 697.274762,1385.5435 696.565806,1385.5435 C695.782513,1385.5435 695.185674,1385.31957 695.185674,1384.34982 L695.185674,1368.38339 C695.185674,1367.82402 695.110878,1367.56277 694.514039,1367.56277 L692.499746,1367.56277 C691.678978,1367.56277 691.49237,1367.22703 691.49237,1366.48091 C691.49237,1365.84675 691.678978,1365.43652 692.499746,1365.43652 L694.476717,1365.43652 C695.110878,1365.43652 695.185674,1365.24991 695.185674,1364.69039 L695.185674,1363.3846 C695.185674,1359.65428 697.53586,1357.97557 703.056696,1357.97557 Z M719.022057,1365.0633 C720.962165,1365.0633 721.297601,1365.39904 721.297601,1366.21981 C721.297601,1366.89129 721.036503,1367.30168 720.477138,1367.30168 C719.842978,1367.30168 719.208665,1367.18971 718.276085,1367.18971 C715.254569,1367.18971 714.433648,1367.45081 714.433648,1369.12951 L714.433648,1384.34982 C714.433648,1385.31957 713.911453,1385.5435 713.165328,1385.5435 C712.381881,1385.5435 711.785195,1385.31957 711.785195,1384.34982 L711.785195,1367.71191 C711.785195,1366.36894 712.158105,1365.99588 713.090685,1365.7721 C714.955997,1365.28723 717.417995,1365.0633 719.022057,1365.0633 Z M729.130995,1367.15239 C725.549809,1367.15239 723.75914,1368.98038 723.75914,1372.48692 L723.75914,1372.82266 C723.75914,1373.89708 724.068559,1374.07764 725.545638,1374.09037 L730.697735,1374.09114 C733.234529,1374.09114 733.644913,1373.90453 733.644913,1372.03922 C733.644913,1368.79377 732.339271,1367.15239 729.130995,1367.15239 Z M642.937806,1369.58471 C645.435596,1370.49527 655.838671,1369.96084 657.418718,1369.8709 C658.40728,1369.81476 658.918463,1367.87052 658.918463,1367.87052 C658.918463,1367.87052 655.2387,1366.16068 651.346395,1364.35208 L650.658017,1364.03221 C646.867565,1362.27093 643.069023,1360.50588 642.432588,1360.21012 C639.812585,1358.99258 640.621423,1368.74054 642.937806,1369.58471 Z" id="Combined-Shape"></path>
        </g>
    </g>
</svg>