<?xml version="1.0" encoding="UTF-8"?>
<svg width="204px" height="40px" viewBox="0 0 204 40" version="1.1" xmlns="http://www.w3.org/2000/svg" xmlns:xlink="http://www.w3.org/1999/xlink">
    <title>Combined Shape</title>
    <g id="Page-1" stroke="none" stroke-width="1" fill="none" fill-rule="evenodd" opacity="0.7">
        <g id="homepage---full-width" transform="translate(-119.000000, -1192.000000)" fill="#FFFFFF">
            <path d="M160.412085,1211 C162.828752,1214.16667 162.495418,1216.79167 159.537085,1219.79167 C161.453752,1218.70833 164.495418,1219.83333 162.703752,1223.45833 C161.745418,1221.20833 159.787085,1221.70833 159.370418,1223.66667 C159.078752,1225.04167 159.912085,1226.625 161.703752,1226.95833 C163.203752,1227.25 165.537085,1226.20833 167.370418,1222.29167 C166.328752,1222.33333 165.412085,1222.83333 164.245418,1223.66667 L164.245418,1223.66667 L166.203752,1217.25 C166.703752,1219.08333 167.328752,1220.29167 167.953752,1220.875 C168.412085,1219.625 168.370418,1218.66667 167.953752,1216.625 L167.953752,1216.625 L171.953752,1218.04167 C169.828752,1220.875 167.787085,1224.95833 166.120418,1232 C160.162085,1231.125 153.537085,1230.66667 146.495418,1230.66667 C139.453752,1230.66667 132.787085,1231.125 126.620418,1232 C124.912085,1225 122.870418,1220.91667 120.787085,1218.04167 L120.787085,1218.04167 L124.745418,1216.625 C124.370418,1218.66667 124.287085,1219.625 124.745418,1220.875 C125.412085,1220.25 126.037085,1219.08333 126.537085,1217.25 L126.537085,1217.25 L128.495418,1223.66667 C127.328752,1222.83333 126.412085,1222.33333 125.370418,1222.29167 C127.245418,1226.20833 129.537085,1227.25 130.995418,1226.95833 C132.828752,1226.625 133.662085,1225.04167 133.370418,1223.66667 C132.953752,1221.70833 130.953752,1221.16667 129.995418,1223.45833 C128.245418,1219.83333 131.245418,1218.70833 133.203752,1219.79167 C130.203752,1216.79167 129.870418,1214.16667 132.287085,1211 C135.703752,1213.54167 135.745418,1216.125 134.203752,1219.66667 C136.203752,1217.41667 139.245418,1218.625 138.120418,1222.25 C136.745418,1220.08333 134.870418,1221.45833 135.162085,1223.54167 C135.412085,1225.33333 137.787085,1226.79167 140.787085,1226.54167 C144.66752,1226.16123 145.213361,1223.69668 145.374093,1221.43147 L145.394753,1221.10947 C145.400979,1221.00276 145.40665,1220.89674 145.412085,1220.79167 C144.412085,1220.625 142.495418,1221.54167 140.870418,1223.83333 L140.870418,1223.83333 L140.287085,1217 C142.078752,1218.83333 143.662085,1219.20833 145.412085,1219.25 C144.824964,1217.52778 142.436151,1214.77602 142.148755,1214.4488 L142.120418,1214.41667 L150.620418,1214.41667 C150.620418,1214.41667 147.870418,1217.41667 147.287085,1219.25 C149.078752,1219.20833 150.703752,1218.83333 152.412085,1217 L152.412085,1217 L151.870418,1223.83333 C150.245418,1221.54167 148.328752,1220.58333 147.287085,1220.79167 C147.412085,1223.20833 147.662085,1226.16667 151.953752,1226.54167 C154.912085,1226.79167 157.328752,1225.33333 157.578752,1223.54167 C157.870418,1221.41667 155.995418,1220.08333 154.578752,1222.25 C153.495418,1218.625 156.578752,1217.41667 158.537085,1219.66667 C157.037085,1216.125 157.078752,1213.54167 160.412085,1211 Z M278.929687,1201.9468 L278.929687,1218.52633 L278.93639,1218.88402 C278.967667,1219.7047 279.108413,1220.42781 279.358629,1221.05335 C279.64459,1221.76825 280.033124,1222.35883 280.524231,1222.82507 C281.015338,1223.29131 281.599693,1223.63943 282.277296,1223.86945 C282.9549,1224.09946 283.685343,1224.21446 284.468628,1224.21446 C285.251912,1224.21446 285.982356,1224.09946 286.65996,1223.86945 C287.337563,1223.63943 287.921918,1223.29131 288.413025,1222.82507 C288.904132,1222.35883 289.292666,1221.76825 289.578627,1221.05335 C289.864588,1220.33845 290.007568,1219.49611 290.007568,1218.52633 L290.007568,1218.52633 L290.007568,1201.9468 L295.341363,1201.9468 L295.341363,1219.32826 L295.334658,1219.73162 C295.289961,1221.06432 295.021776,1222.27886 294.530104,1223.37523 C293.989265,1224.58124 293.237063,1225.60697 292.273499,1226.45242 C291.309934,1227.29787 290.162982,1227.95061 288.832642,1228.41063 C287.502301,1228.87066 286.04763,1229.10067 284.468628,1229.10067 C282.889626,1229.10067 281.434955,1228.87066 280.104614,1228.41063 C278.774274,1227.95061 277.624213,1227.29787 276.654433,1226.45242 C275.684652,1225.60697 274.929342,1224.58124 274.388502,1223.37523 C273.847663,1222.16922 273.577243,1220.82023 273.577243,1219.32826 L273.577243,1219.32826 L273.577243,1201.9468 L278.929687,1201.9468 Z M265.874946,1222.3495 C266.33497,1222.3495 266.770128,1222.43964 267.18042,1222.61992 C267.590712,1222.8002 267.951271,1223.04265 268.262099,1223.34726 C268.572926,1223.65187 268.818479,1224.00621 268.998759,1224.41029 C269.179039,1224.81436 269.269179,1225.24641 269.269179,1225.70643 C269.269179,1226.17889 269.179039,1226.62027 268.998759,1227.03056 C268.818479,1227.44085 268.572926,1227.80141 268.262099,1228.11224 C267.951271,1228.42306 267.590712,1228.66551 267.18042,1228.83957 C266.770128,1229.01364 266.33497,1229.10067 265.874946,1229.10067 C265.414922,1229.10067 264.976655,1229.01364 264.560147,1228.83957 C264.143638,1228.66551 263.779971,1228.42306 263.469143,1228.11224 C263.158316,1227.80141 262.912763,1227.44085 262.732483,1227.03056 C262.552203,1226.62027 262.462063,1226.17889 262.462063,1225.70643 C262.462063,1225.24641 262.552203,1224.81436 262.732483,1224.41029 C262.912763,1224.00621 263.158316,1223.65187 263.469143,1223.34726 C263.779971,1223.04265 264.143638,1222.8002 264.560147,1222.61992 C264.976655,1222.43964 265.414922,1222.3495 265.874946,1222.3495 Z M222.70105,1201.61111 C224.690344,1201.61111 226.474492,1201.96856 228.053494,1202.68346 C229.632496,1203.39837 230.972161,1204.37436 232.072489,1205.61146 C233.172818,1206.84855 234.012051,1208.30322 234.59019,1209.97547 C235.168328,1211.64772 235.457397,1213.44119 235.457397,1215.35589 C235.457397,1217.28302 235.168328,1219.0796 234.59019,1220.74563 C234.012051,1222.41167 233.172818,1223.86634 232.072489,1225.10965 C230.972161,1226.35296 229.632496,1227.32895 228.053494,1228.03764 C226.474492,1228.74632 224.690344,1229.10067 222.70105,1229.10067 C220.699323,1229.10067 218.912066,1228.74632 217.339281,1228.03764 C215.766495,1227.32895 214.429938,1226.35296 213.32961,1225.10965 C212.229282,1223.86634 211.390049,1222.41167 210.81191,1220.74563 C210.233771,1219.0796 209.944702,1217.28302 209.944702,1215.35589 C209.944702,1213.44119 210.233771,1211.64772 210.81191,1209.97547 C211.390049,1208.30322 212.229282,1206.84855 213.32961,1205.61146 C214.429938,1204.37436 215.766495,1203.39837 217.339281,1202.68346 C218.912066,1201.96856 220.699323,1201.61111 222.70105,1201.61111 Z M195.043647,1201.61111 C196.311822,1201.61111 197.514723,1201.7572 198.652351,1202.04938 C199.789978,1202.34155 200.828141,1202.75806 201.766839,1203.2989 C202.705537,1203.83974 203.535446,1204.49248 204.256565,1205.25711 C204.977684,1206.02175 205.562039,1206.87031 206.00963,1207.80279 L206.00963,1207.80279 L201.272624,1210.46969 L201.095079,1210.13138 C200.850396,1209.68677 200.573884,1209.26803 200.265544,1208.87514 C199.880118,1208.38404 199.435635,1207.96131 198.932095,1207.60697 C198.428555,1207.25262 197.853525,1206.97288 197.207004,1206.76773 C196.560484,1206.56259 195.839365,1206.46002 195.043647,1206.46002 C193.787905,1206.46002 192.706226,1206.70557 191.798611,1207.19668 C190.890996,1207.68778 190.14501,1208.33741 189.560655,1209.14556 C188.9763,1209.95371 188.541142,1210.8893 188.255181,1211.95233 C187.96922,1213.01536 187.82624,1214.11258 187.82624,1215.24399 L187.82624,1215.24399 L187.82624,1215.43049 L187.834994,1215.91804 C187.870009,1216.88782 188.010072,1217.82563 188.255181,1218.73147 C188.541142,1219.78828 188.9763,1220.72077 189.560655,1221.52892 C190.14501,1222.33707 190.890996,1222.9867 191.798611,1223.4778 C192.706226,1223.96891 193.787905,1224.21446 195.043647,1224.21446 C196.249656,1224.21446 197.253628,1224.02175 198.055562,1223.63633 C198.857496,1223.2509 199.4978,1222.76912 199.976474,1222.19098 C200.455148,1221.61284 200.790842,1220.98808 200.983554,1220.31669 C201.176267,1219.6453 201.272624,1219.02365 201.272624,1218.45173 L201.272624,1218.45173 L201.272624,1218.19063 L194.428209,1218.19063 L194.428209,1214.06906 L206.53182,1214.06906 L206.53182,1228.72767 L201.794813,1228.72767 L201.794813,1225.59454 L201.620232,1225.85175 C201.318039,1226.27395 200.959724,1226.66378 200.545288,1227.02123 C200.047965,1227.45017 199.488476,1227.81695 198.866821,1228.12156 C198.245167,1228.42617 197.564455,1228.66551 196.824687,1228.83957 C196.084918,1229.01364 195.298525,1229.10067 194.465508,1229.10067 C192.513514,1229.10067 190.779098,1228.74632 189.262261,1228.03764 C187.745425,1227.32895 186.467925,1226.35296 185.429762,1225.10965 C184.391599,1223.86634 183.602098,1222.41167 183.061259,1220.74563 C182.52042,1219.0796 182.25,1217.28302 182.25,1215.35589 C182.25,1213.44119 182.551502,1211.64772 183.154507,1209.97547 C183.757512,1208.30322 184.615395,1206.84855 185.728156,1205.61146 C186.840918,1204.37436 188.183691,1203.39837 189.756477,1202.68346 C191.329262,1201.96856 193.091652,1201.61111 195.043647,1201.61111 Z M306.046251,1201.9841 L306.046251,1213.56552 L315.594862,1201.9841 L322.25278,1201.9841 L312.965264,1212.61439 L322.849569,1228.72767 L316.564643,1228.72767 L309.496433,1216.73596 L306.046251,1220.59644 L306.046251,1228.72767 L300.637858,1228.72767 L300.637858,1201.9841 L306.046251,1201.9841 Z M243.588637,1201.9841 L248.754584,1222.08841 L248.941081,1222.08841 L253.995131,1201.9841 L259.981662,1201.9841 L252.428562,1228.72767 L245.080607,1228.72767 L237.527507,1201.9841 L243.588637,1201.9841 Z M222.70105,1206.49731 C221.53234,1206.49731 220.500393,1206.718 219.605211,1207.15938 C218.710029,1207.60075 217.960935,1208.21308 217.357931,1208.99637 C216.754926,1209.77965 216.29801,1210.70902 215.987183,1211.78448 C215.676355,1212.85995 215.520942,1214.02555 215.520942,1215.28129 L215.520942,1215.28129 L215.520942,1215.43049 L215.528227,1215.90139 C215.562224,1216.98929 215.715209,1218.00103 215.987183,1218.93662 C216.29801,1220.00586 216.754926,1220.93213 217.357931,1221.71541 C217.960935,1222.4987 218.710029,1223.11103 219.605211,1223.5524 C220.500393,1223.99378 221.53234,1224.21446 222.70105,1224.21446 C223.86976,1224.21446 224.898598,1223.99378 225.787564,1223.5524 C226.676529,1223.11103 227.425623,1222.4987 228.034844,1221.71541 C228.644066,1220.93213 229.10409,1220.00586 229.414917,1218.93662 C229.725744,1217.86737 229.881158,1216.69866 229.881158,1215.43049 L229.881158,1215.43049 L229.881158,1215.28129 L229.873873,1214.81461 C229.839876,1213.73556 229.686891,1212.72551 229.414917,1211.78448 C229.10409,1210.70902 228.644066,1209.77965 228.034844,1208.99637 C227.425623,1208.21308 226.676529,1207.60075 225.787564,1207.15938 C224.898598,1206.718 223.86976,1206.49731 222.70105,1206.49731 Z M119.203752,1212.04167 C119.828752,1210.58333 121.537085,1209.83333 122.995418,1210.45833 C124.537085,1211.04167 125.245418,1212.75 124.620418,1214.25 C124.037085,1215.75 122.287085,1216.45833 120.828752,1215.83333 C119.328752,1215.20833 118.620418,1213.5 119.203752,1212.04167 Z M173.828752,1212.04167 C174.370418,1213.5 173.662085,1215.20833 172.203752,1215.83333 C170.703752,1216.45833 168.953752,1215.75 168.370418,1214.25 C167.745418,1212.75 168.453752,1211.04167 169.995418,1210.45833 C171.495418,1209.83333 173.203752,1210.58333 173.828752,1212.04167 Z M149.162085,1192 L147.662085,1196.66667 C147.828752,1196.79167 147.953752,1196.91667 148.037085,1197.04167 L148.037085,1197.04167 L151.745418,1195.875 L151.745418,1201.33333 L148.037085,1199.375 C147.912085,1199.5 147.787085,1199.66667 147.620418,1199.75 L147.620418,1199.75 L149.745418,1206.16667 L149.745418,1206.20833 C149.870418,1206.5 149.912085,1206.875 149.912085,1207.20833 C149.912085,1208.875 148.620418,1210.33333 146.953752,1210.58333 L146.953752,1210.58333 L146.870418,1210.58333 C146.745418,1210.625 146.620418,1210.625 146.453752,1210.625 C146.328752,1210.625 146.162085,1210.58333 146.037085,1210.58333 L146.037085,1210.58333 L145.953752,1210.58333 C144.328752,1210.33333 143.037085,1208.91667 143.037085,1207.20833 C143.037085,1206.875 143.120418,1206.54167 143.203752,1206.20833 L143.203752,1206.20833 L143.203752,1206.16667 L145.287085,1199.75 C145.162085,1199.66667 145.037085,1199.5 144.912085,1199.375 L144.912085,1199.375 L141.245418,1201.33333 L141.245418,1195.875 L144.912085,1197.04167 C145.037085,1196.875 145.162085,1196.79167 145.287085,1196.66667 L145.287085,1196.66667 L143.828752,1192 L149.162085,1192 Z M171.828752,1204.70833 C172.453752,1206.16667 171.703752,1207.83333 170.245418,1208.45833 C168.745418,1209.08333 167.037085,1208.375 166.453752,1206.91667 C165.828752,1205.41667 166.537085,1203.66667 167.995418,1203.125 C169.495418,1202.5 171.203752,1203.20833 171.828752,1204.70833 Z M121.162085,1204.70833 C121.787085,1203.20833 123.453752,1202.5 124.953752,1203.125 C126.495418,1203.66667 127.203752,1205.41667 126.578752,1206.91667 C125.995418,1208.375 124.245418,1209.08333 122.745418,1208.45833 C121.287085,1207.83333 120.578752,1206.16667 121.162085,1204.70833 Z M157.828752,1203.125 C158.412085,1204.625 157.703752,1206.33333 156.203752,1206.91667 C154.703752,1207.54167 152.953752,1206.83333 152.370418,1205.33333 C151.787085,1203.83333 152.453752,1202.125 153.995418,1201.54167 C155.495418,1200.91667 157.203752,1201.66667 157.828752,1203.125 Z M135.162085,1203.125 C135.787085,1201.66667 137.453752,1200.91667 138.953752,1201.54167 C140.495418,1202.125 141.203752,1203.83333 140.578752,1205.33333 C139.995418,1206.83333 138.245418,1207.54167 136.787085,1206.91667 C135.328752,1206.33333 134.620418,1204.625 135.162085,1203.125 Z M165.245418,1200.83333 C165.787085,1202.29167 165.078752,1203.95833 163.620418,1204.58333 C162.120418,1205.20833 160.370418,1204.5 159.828752,1203.04167 C159.203752,1201.54167 159.912085,1199.79167 161.412085,1199.20833 C162.912085,1198.625 164.620418,1199.33333 165.245418,1200.83333 Z M127.787085,1200.83333 C128.412085,1199.33333 130.078752,1198.625 131.578752,1199.20833 C133.120418,1199.79167 133.828752,1201.54167 133.203752,1203.04167 C132.620418,1204.5 130.870418,1205.20833 129.412085,1204.58333 C127.912085,1203.95833 127.203752,1202.29167 127.787085,1200.83333 Z" id="Combined-Shape"></path>
        </g>
    </g>
</svg>