<?xml version="1.0" encoding="UTF-8"?>
<svg width="168px" height="100px" viewBox="0 0 168 100" version="1.1" xmlns="http://www.w3.org/2000/svg" xmlns:xlink="http://www.w3.org/1999/xlink">
    <title>Combined Shape</title>
    <g id="Page-1" stroke="none" stroke-width="1" fill="none" fill-rule="evenodd" opacity="0.7">
        <g id="homepage---full-width" transform="translate(-622.000000, -1162.000000)" fill="#FFFFFF" fill-rule="nonzero">
            <path d="M669.617979,1240.97584 C673.805564,1240.97584 677.263127,1243.22497 677.880928,1247.49643 L675.211269,1247.49643 C674.648987,1244.65903 672.372689,1243.22497 669.589628,1243.22497 C664.812592,1243.22497 662.789085,1247.15977 662.789085,1251.34735 C662.789085,1255.9283 664.812592,1259.75087 669.617979,1259.75087 C673.131061,1259.75087 675.154569,1257.2773 675.407359,1253.96031 L678.0782,1253.96031 C677.571437,1258.96297 674.451716,1262 669.393538,1262 C663.154096,1262 660.118245,1257.38952 660.118245,1251.54462 C660.118245,1245.72689 663.435237,1240.97584 669.617979,1240.97584 Z M682.604808,1246.9873 L682.604808,1256.8237 C682.604808,1258.59441 683.729372,1259.74733 685.555608,1259.74733 C688.450889,1259.74733 689.856594,1257.80769 689.856594,1255.19355 L689.856594,1246.9873 L692.245113,1246.9873 L692.245113,1261.51804 L689.997165,1261.51804 L689.997165,1259.2134 L689.940464,1259.2134 C688.929301,1261.01246 687.297974,1261.8547 685.218947,1261.8547 C681.396374,1261.8547 680.21629,1259.66228 680.21629,1256.54374 L680.21629,1246.9873 L682.604808,1246.9873 Z M700.066269,1246.64828 C703.271041,1246.64828 705.82848,1247.65944 706.02457,1251.20087 L703.636052,1251.20087 C703.467131,1249.34629 701.836985,1248.75566 700.26354,1248.75566 C698.829484,1248.75566 697.172169,1249.1502 697.172169,1250.61024 C697.172169,1252.32426 699.701258,1252.60658 701.922037,1253.13933 C704.310555,1253.67444 706.670722,1254.46117 706.670722,1257.2714 C706.670722,1260.72896 703.438781,1261.85352 700.487981,1261.85352 C697.227689,1261.85352 694.47416,1260.53169 694.333589,1256.93474 L696.722107,1256.93474 C696.805977,1259.07046 698.660563,1259.74496 700.628551,1259.74496 C702.118127,1259.74496 704.141634,1259.4083 704.141634,1257.58089 C704.141634,1255.90017 702.203254,1255.48842 700.06117,1255.02859 L699.615643,1254.93233 C699.541094,1254.91603 699.466445,1254.89956 699.391767,1254.88288 C697.031599,1254.34895 694.641899,1253.56104 694.641899,1250.77916 C694.641899,1247.85671 697.53718,1246.64828 700.066269,1246.64828 Z M760.003662,1246.64828 C763.208434,1246.64828 765.765873,1247.65944 765.961963,1251.20087 L763.573445,1251.20087 C763.404524,1249.34629 761.774378,1248.75566 760.200933,1248.75566 C758.766877,1248.75566 757.109562,1249.1502 757.109562,1250.61024 C757.109562,1252.32426 759.638651,1252.60658 761.859429,1253.13933 C764.247948,1253.67444 766.608115,1254.46117 766.608115,1257.2714 C766.608115,1260.72896 763.376174,1261.85352 760.425374,1261.85352 C757.165082,1261.85352 754.411553,1260.53169 754.270982,1256.93474 L756.6595,1256.93474 C756.74337,1259.07046 758.597956,1259.74496 760.565944,1259.74496 C762.055519,1259.74496 764.079027,1259.4083 764.079027,1257.58089 C764.079027,1255.7263 761.718859,1255.41681 759.32916,1254.88288 C756.968992,1254.34895 754.579292,1253.56104 754.579292,1250.77916 C754.579292,1247.85671 757.474573,1246.64828 760.003662,1246.64828 Z M641.880692,1241.44717 C644.382612,1241.44717 646.743961,1242.82452 646.743961,1245.55206 C646.743961,1247.94058 644.916544,1249.6546 642.976906,1250.75081 L646.60339,1255.16284 C646.968401,1254.18002 647.192842,1253.11216 647.249542,1252.0443 L649.52584,1252.0443 C649.328569,1254.40447 649.020259,1255.21954 648.176835,1256.99025 L652.083279,1261.51568 L648.963558,1261.51568 L646.827831,1259.01376 C645.619396,1260.8967 643.343098,1261.85234 641.15067,1261.85234 C635.726301,1261.85234 634.882878,1258.0026 634.882878,1256.37245 C634.882878,1253.22438 637.018605,1251.64975 639.576044,1250.30193 C638.452661,1248.69895 637.356447,1247.63109 637.356447,1245.57923 C637.356447,1243.38681 638.986593,1241.44717 641.880692,1241.44717 Z M722.615439,1246.64592 C727.224736,1246.64592 729.669955,1249.99008 729.669955,1254.26271 C729.669955,1258.50582 727.224736,1261.85116 722.615439,1261.85116 C718.006143,1261.85116 715.560924,1258.50582 715.560924,1254.26271 C715.560924,1249.99008 718.006143,1246.64592 722.615439,1246.64592 Z M747.371213,1246.65182 C750.266493,1246.65182 752.206131,1247.86026 752.206131,1250.86658 L752.206131,1261.51923 L749.816431,1261.51923 L749.816431,1251.99114 C749.816431,1250.19207 749.3392,1248.7592 747.006202,1248.7592 C744.701553,1248.7592 743.211978,1250.22161 743.211978,1252.46955 L743.211978,1261.51923 L740.82346,1261.51923 L740.82346,1251.99114 C740.82346,1250.1082 740.232827,1248.7592 738.0971,1248.7592 C735.25852,1248.7592 734.217825,1251.37334 734.217825,1252.46955 L734.217825,1261.51923 L731.829307,1261.51923 L731.829307,1246.98848 L734.077255,1246.98848 L734.077255,1249.12421 L734.133955,1249.12421 C735.201819,1247.49406 736.831965,1246.65182 738.827122,1246.65182 C740.597838,1246.65182 742.227984,1247.35467 742.818617,1249.12421 C743.802611,1247.57793 745.516626,1246.65182 747.371213,1246.65182 Z M712.007678,1242.63198 L712.007678,1246.98848 L714.902959,1246.98848 L714.902959,1249.09704 L712.007678,1249.09704 L712.007678,1258.11836 C712.007678,1259.21458 712.31717,1259.41067 713.806745,1259.41067 L714.902959,1259.41067 L714.902959,1261.51923 L713.075542,1261.51923 C710.603154,1261.51923 709.61916,1261.01364 709.61916,1258.3428 L709.61916,1249.09704 L707.145591,1249.09704 L707.145591,1246.98848 L709.61916,1246.98848 L709.61916,1242.63198 L712.007678,1242.63198 Z M624.360168,1162 L624.360168,1261.50623 L622,1261.50623 L622,1162 L624.360168,1162 Z M640.89788,1251.81868 C639.013762,1252.88654 637.411966,1253.9544 637.411966,1256.3441 C637.411966,1258.36761 639.294903,1259.74496 641.23454,1259.74496 C643.061957,1259.74496 644.523182,1258.81767 645.507176,1257.35527 L640.89788,1251.81868 Z M722.615439,1248.75447 C720.11352,1248.75447 718.090012,1250.72128 718.090012,1254.26271 C718.090012,1257.7758 720.11352,1259.7426 722.615439,1259.7426 C725.116177,1259.7426 727.140866,1257.7758 727.140866,1254.26271 C727.140866,1250.72128 725.116177,1248.75447 722.615439,1248.75447 Z M642.049613,1243.55573 C640.925049,1243.55573 639.744965,1244.23023 639.744965,1245.69145 C639.744965,1246.89989 640.812829,1248.07997 641.684602,1249.17737 C642.836336,1248.44616 644.354261,1247.3783 644.354261,1245.69145 C644.354261,1244.53972 643.483669,1243.55573 642.049613,1243.55573 Z M711.609592,1217.12137 C716.75282,1217.12137 718.326265,1221.92794 718.185695,1225.44103 L707.309787,1225.44103 C707.224736,1227.97011 708.658792,1230.21806 711.834032,1230.21806 C713.80202,1230.21806 715.179375,1229.26242 715.601087,1227.37948 L717.961255,1227.37948 C717.315102,1230.58425 715.010454,1232.32662 711.750162,1232.32662 C707.112516,1232.32662 704.920087,1229.12303 704.779517,1224.68147 C704.779517,1220.32497 707.646447,1217.12137 711.609592,1217.12137 Z M738.459748,1217.12137 C743.602977,1217.12137 745.176422,1221.92794 745.035851,1225.44103 L734.159943,1225.44103 C734.074892,1227.97011 735.508948,1230.21806 738.684189,1230.21806 C740.652176,1230.21806 742.029532,1229.26242 742.450062,1227.37948 L744.811411,1227.37948 C744.165259,1230.58425 741.860611,1232.32662 738.600319,1232.32662 C733.962672,1232.32662 731.770244,1229.12303 731.629673,1224.68147 C731.629673,1220.32497 734.496604,1217.12137 738.459748,1217.12137 Z M782.83988,1217.12137 C787.983108,1217.12137 789.556553,1221.92794 789.415983,1225.44103 L778.540074,1225.44103 C778.455023,1227.97011 779.889079,1230.21806 783.06432,1230.21806 C785.032308,1230.21806 786.409663,1229.26242 786.831374,1227.37948 L789.191542,1227.37948 C788.54539,1230.58425 786.240742,1232.32662 782.98045,1232.32662 C778.342803,1232.32662 776.150375,1229.12303 776.009805,1224.68147 C776.009805,1220.32497 778.876735,1217.12137 782.83988,1217.12137 Z M764.218416,1217.45567 L764.218416,1227.29207 C764.218416,1229.06278 765.34298,1230.2157 767.169216,1230.2157 C770.064497,1230.2157 771.470203,1228.27606 771.470203,1225.66192 L771.470203,1217.45567 L773.858721,1217.45567 L773.858721,1231.98642 L771.610773,1231.98642 L771.610773,1229.68177 L771.554072,1229.68177 C770.542909,1231.48083 768.911582,1232.32308 766.832556,1232.32308 C763.009982,1232.32308 761.829898,1230.13065 761.829898,1227.01211 L761.829898,1217.45567 L764.218416,1217.45567 Z M696.868584,1211.92853 C700.635639,1211.92853 702.968637,1213.98039 702.968637,1217.18516 C702.968637,1219.60085 701.899592,1221.59719 699.482724,1222.27169 L699.482724,1222.32839 C701.815723,1222.77727 702.294135,1224.49129 702.490225,1226.45928 C702.659146,1228.42608 702.546926,1230.61851 703.670309,1231.99587 L700.691158,1231.99587 C699.932786,1231.18079 700.354498,1229.01671 699.961136,1227.04873 C699.679995,1225.08192 699.201583,1223.42342 696.615794,1223.42342 L690.09521,1223.42342 L690.09521,1231.99587 L687.425551,1231.99587 L687.425551,1211.92853 L696.868584,1211.92853 Z M659.407123,1211.92853 L665.730435,1228.79227 L672.083279,1211.92853 L675.736932,1211.92853 L675.736932,1231.99587 L673.206662,1231.99587 L673.206662,1215.30105 L673.151143,1215.30105 L666.88335,1231.99587 L664.607052,1231.99587 L658.339259,1215.30105 L658.282559,1215.30105 L658.282559,1231.99587 L655.75347,1231.99587 L655.75347,1211.92853 L659.407123,1211.92853 Z M638.817672,1211.92853 L638.817672,1220.55768 L649.386451,1220.55768 L649.386451,1211.92853 L652.05611,1211.92853 L652.05611,1231.99587 L649.386451,1231.99587 L649.386451,1222.80562 L638.817672,1222.80562 L638.817672,1231.99587 L636.148013,1231.99587 L636.148013,1211.92853 L638.817672,1211.92853 Z M754.022917,1217.12019 C757.845491,1217.12019 759.025574,1219.31262 759.025574,1222.43116 L759.025574,1231.9876 L756.637056,1231.9876 L756.637056,1222.15002 C756.637056,1220.38049 755.512492,1219.22757 753.686256,1219.22757 C750.790975,1219.22757 749.38527,1221.16603 749.38527,1223.78017 L749.38527,1231.9876 L746.996752,1231.9876 L746.996752,1217.45685 L749.244699,1217.45685 L749.244699,1219.7615 L749.3014,1219.7615 C750.312563,1217.96244 751.94389,1217.12019 754.022917,1217.12019 Z M720.863623,1217.45567 L724.938988,1229.56837 L724.995688,1229.56837 L728.957652,1217.45567 L731.459571,1217.45567 L726.147422,1231.98642 L723.589983,1231.98642 L718.193964,1217.45567 L720.863623,1217.45567 Z M738.319178,1219.22993 C735.817258,1219.22993 734.328864,1221.11287 734.159943,1223.33247 L742.506763,1223.33247 C742.394543,1221.05617 740.679346,1219.22993 738.319178,1219.22993 Z M782.699309,1219.22993 C780.197389,1219.22993 778.708995,1221.11287 778.540074,1223.33247 L786.886894,1223.33247 C786.774674,1221.05617 785.060658,1219.22993 782.699309,1219.22993 Z M711.469021,1219.22993 C708.967102,1219.22993 707.477526,1221.11287 707.309787,1223.33247 L715.656606,1223.33247 C715.544386,1221.05617 713.829189,1219.22993 711.469021,1219.22993 Z M696.728014,1214.17648 L690.09521,1214.17648 L690.09521,1221.17548 L695.66015,1221.17548 C698.16207,1221.17548 700.297797,1220.52932 700.297797,1217.60569 C700.297797,1215.63889 699.229933,1214.17648 696.728014,1214.17648 Z M654.861615,1162.00827 C665.930069,1162.00827 674.934853,1171.01187 674.934853,1182.08033 C674.934853,1193.14996 665.930069,1202.15475 654.861615,1202.15475 C643.79316,1202.15475 634.789558,1193.14996 634.789558,1182.08033 C634.789558,1171.01187 643.79316,1162.00827 654.861615,1162.00827 Z M654.861615,1164.35899 C645.09019,1164.35899 637.140275,1172.3089 637.140275,1182.08033 C637.140275,1191.85293 645.09019,1199.80403 654.861615,1199.80403 C664.63304,1199.80403 672.582954,1191.85293 672.582954,1182.08033 C672.582954,1172.3089 664.63304,1164.35899 654.861615,1164.35899 Z M660.805741,1181.41646 C661.326679,1181.70705 661.69169,1182.76192 661.60782,1183.71047 C661.547575,1184.38379 661.017187,1185.15398 660.882523,1186.02693 C661.326679,1185.47292 661.912586,1185.18705 662.333117,1185.43276 C662.979269,1185.80604 663.027701,1186.71325 662.614258,1187.30152 C662.365011,1187.65353 662.049613,1187.77875 661.696415,1187.78584 C661.80391,1187.68425 661.899592,1187.54722 661.9622,1187.3783 C662.111039,1186.97431 662.075601,1186.5904 661.735397,1186.46282 C661.409367,1186.34469 661.117595,1186.61166 660.967574,1187.01565 C660.932136,1187.11133 660.913236,1187.2082 660.904967,1187.30152 C661.063257,1188.03745 661.496781,1188.35403 662.087414,1188.53121 C662.706397,1188.58437 663.317111,1188.64344 663.925462,1188.70722 L663.925462,1188.70722 C664.73581,1188.48515 665.361881,1187.83427 665.58514,1186.99675 C664.751166,1187.01801 664.049495,1187.46808 663.696297,1188.22409 C663.677396,1188.27606 663.612427,1188.32095 663.535645,1188.30323 C663.458862,1188.28551 663.424606,1188.22409 663.424606,1188.17447 L663.424606,1188.17447 L663.424606,1188.16975 L663.869943,1184.59878 C663.888843,1184.5539 663.933731,1184.51137 664.018782,1184.51846 C664.115646,1184.52673 664.148721,1184.59051 664.148721,1184.62595 C664.22196,1185.45166 664.513732,1186.04938 665.679641,1186.29035 C665.66901,1185.44221 665.226035,1184.73227 664.47475,1184.38379 L664.47475,1184.38379 L664.458969,1184.37634 C664.42268,1184.35332 664.386392,1184.30323 664.401512,1184.22668 C664.41805,1184.14045 664.478294,1184.1062 664.527907,1184.10974 C664.693285,1184.13218 666.102534,1184.31764 666.153328,1184.32709 C666.302168,1184.35072 666.420294,1184.41923 666.493533,1184.52318 C666.573859,1184.63422 666.598665,1184.77834 666.569134,1184.95316 C666.527789,1185.19296 666.037564,1188.63871 665.991495,1188.95529 L665.987989,1188.98349 C665.984449,1189.01232 665.978745,1189.05916 665.97234,1189.11185 L665.952475,1189.27525 C665.946125,1189.32744 665.940532,1189.37329 665.937157,1189.40063 C665.9218,1189.50103 665.794224,1189.60144 665.794224,1189.60144 L665.794224,1189.60144 L665.740263,1189.63795 C665.570538,1189.75287 665.052586,1190.10446 664.947257,1190.18617 C664.824405,1190.27949 664.8941,1190.4425 664.8941,1190.4425 L664.8941,1190.4425 L665.533164,1191.37688 C665.58514,1191.43949 665.611128,1191.5021 665.611128,1191.5021 C665.626484,1191.5399 665.633572,1191.58124 665.633572,1191.62259 C665.633572,1191.73599 665.580415,1191.83521 665.495364,1191.899 L665.495364,1191.899 L655.017542,1191.90255 L654.758845,1191.90255 L644.229047,1191.899 C644.142815,1191.83521 644.090839,1191.73599 644.090839,1191.62259 C644.090839,1191.58124 644.097927,1191.5399 644.112102,1191.5021 C644.112102,1191.5021 644.139271,1191.43949 644.190066,1191.37688 L644.190066,1191.37688 L644.82913,1190.4425 C644.82913,1190.4425 644.898825,1190.27949 644.777154,1190.18617 C644.649578,1190.08812 643.929006,1189.60144 643.929006,1189.60144 C643.929006,1189.60144 643.801429,1189.50103 643.787254,1189.40063 C643.783542,1189.37329 643.777804,1189.32744 643.771419,1189.27525 L643.751699,1189.11185 C643.742246,1189.03282 643.734435,1188.96693 643.732916,1188.95529 L643.724767,1188.89988 C643.645593,1188.35713 643.193718,1185.18297 643.154096,1184.95316 C643.124564,1184.77834 643.149371,1184.63422 643.229697,1184.52318 C643.302935,1184.41923 643.421062,1184.35072 643.571083,1184.32709 C643.594235,1184.32268 643.913487,1184.27994 644.264243,1184.23332 L644.566436,1184.19322 C644.864001,1184.15378 645.129171,1184.11872 645.195322,1184.10974 C645.246117,1184.1062 645.30518,1184.14045 645.321718,1184.22668 C645.340618,1184.32237 645.279192,1184.37671 645.237848,1184.38852 L645.248479,1184.38379 C644.497194,1184.73227 644.055401,1185.44221 644.043589,1186.29035 C645.209497,1186.04938 645.50127,1185.45166 645.574508,1184.62595 C645.574508,1184.59051 645.607584,1184.52673 645.704447,1184.51846 C645.789499,1184.51137 645.835568,1184.5539 645.850924,1184.5917 L645.850924,1184.5917 L645.854468,1184.59878 L646.299805,1188.16975 C646.299805,1188.22409 646.265548,1188.28551 646.187585,1188.30323 C646.110803,1188.32095 646.047014,1188.27606 646.028114,1188.22409 C645.673735,1187.46808 644.972063,1187.01801 644.139271,1186.99675 C644.361349,1187.83427 644.98742,1188.48515 645.801311,1188.70486 L645.801311,1188.70486 C646.4073,1188.64344 647.016833,1188.58437 647.635816,1188.53121 C648.226449,1188.35403 648.659973,1188.03745 648.818262,1187.30152 C648.809994,1187.2082 648.791093,1187.11133 648.754474,1187.01565 C648.605635,1186.61166 648.315043,1186.34469 647.987833,1186.46282 C647.647629,1186.5904 647.612191,1186.97431 647.762211,1187.3783 C647.824818,1187.54722 647.920501,1187.68425 648.026815,1187.78584 C647.673616,1187.77875 647.3594,1187.65353 647.110153,1187.30152 C646.695529,1186.71325 646.743961,1185.80604 647.390113,1185.43276 C647.810643,1185.18705 648.396551,1185.47292 648.839525,1186.02693 C648.706042,1185.15398 648.175654,1184.38379 648.11541,1183.71047 C648.03154,1182.76192 648.396551,1181.70705 648.917489,1181.41646 C649.458508,1181.61491 649.953458,1182.59418 649.999527,1183.54037 C650.031422,1184.21487 649.574272,1185.10436 649.549465,1185.99386 C649.915658,1185.35952 650.472034,1184.98151 650.929183,1185.1717 C651.619042,1185.45402 651.792688,1186.34469 651.463115,1186.98376 C651.257575,1187.36649 650.966984,1187.53305 650.617329,1187.58857 C650.713012,1187.47398 650.78625,1187.3216 650.825232,1187.14795 C650.915008,1186.72624 650.833501,1186.35296 650.475577,1186.275 C650.137736,1186.20176 649.884945,1186.50062 649.792806,1186.92233 C649.762093,1187.05818 649.757368,1187.18812 649.77745,1187.30979 C650.044416,1187.94294 650.528734,1188.16384 651.132361,1188.31268 C651.745437,1188.28551 652.365602,1188.26425 652.985766,1188.25007 L652.985766,1188.25007 L653.051917,1188.23708 C653.926053,1188.09651 654.37139,1187.53777 654.458803,1186.48999 C653.692162,1186.60575 653.093261,1187.05581 652.813301,1187.74449 C652.800307,1187.78584 652.754238,1187.84962 652.650286,1187.84962 C652.533341,1187.84962 652.490816,1187.77166 652.490816,1187.7185 L652.490816,1187.7185 L652.490816,1184.41569 C652.506172,1184.36253 652.555785,1184.30937 652.639655,1184.30937 C652.729431,1184.30937 652.774319,1184.3708 652.789676,1184.4086 L652.789676,1184.4086 L652.789676,1184.41096 C652.946784,1185.02404 653.262182,1185.59813 654.463528,1185.69618 C654.364302,1184.52909 653.83037,1184.16998 653.051917,1184.00106 C653.030654,1184.00106 652.992853,1183.99161 652.96214,1183.95854 C652.946784,1183.942 652.923159,1183.91129 652.923159,1183.86286 L652.923159,1183.86286 C652.927884,1183.80261 652.953872,1183.76954 652.973953,1183.75182 C653.004666,1183.72465 653.043648,1183.71638 653.061367,1183.71756 L653.061367,1183.71756 L656.661863,1183.71756 C656.680763,1183.71638 656.718564,1183.72465 656.749276,1183.75182 C656.769358,1183.76954 656.794165,1183.80261 656.79889,1183.8534 L656.79889,1183.8534 C656.79889,1183.91129 656.776446,1183.942 656.761089,1183.95854 C656.730376,1183.99161 656.692576,1184.00106 656.671313,1184.00106 C655.892859,1184.16998 655.358927,1184.52909 655.260882,1185.69618 C656.461048,1185.59813 656.776446,1185.02404 656.93001,1184.41569 L656.93001,1184.41569 L656.933554,1184.41096 C656.94891,1184.3708 656.993798,1184.30937 657.083575,1184.30937 C657.167444,1184.30937 657.217057,1184.36253 657.233595,1184.41569 L657.233595,1184.41569 L657.233595,1187.7185 C657.233595,1187.77166 657.19107,1187.84962 657.071762,1187.84962 C656.968992,1187.84962 656.922922,1187.78584 656.909929,1187.74449 C656.629969,1187.05581 656.032249,1186.60575 655.263245,1186.48999 C655.35184,1187.53777 655.797177,1188.09651 656.671313,1188.23708 L656.671313,1188.23708 L656.737464,1188.25007 C657.358809,1188.26425 657.977792,1188.28551 658.590869,1188.31268 C659.194495,1188.16384 659.678814,1187.94294 659.946961,1187.30861 C659.965861,1187.18812 659.961136,1187.05818 659.931605,1186.92233 C659.839466,1186.50062 659.585494,1186.20176 659.247652,1186.275 C658.89091,1186.35296 658.808222,1186.72624 658.899179,1187.14795 C658.93698,1187.3216 659.010218,1187.47398 659.1059,1187.58857 C658.756246,1187.53305 658.465655,1187.36649 658.261296,1186.98376 C657.930542,1186.34469 658.104188,1185.45402 658.795228,1185.1717 C659.251196,1184.98151 659.808753,1185.35952 660.173764,1185.99386 C660.150139,1185.10436 659.692989,1184.21487 659.723702,1183.54037 C659.770953,1182.59418 660.264722,1181.61491 660.805741,1181.41646 Z M654.863977,1188.72494 C654.820271,1188.7273 654.781289,1188.74148 654.750576,1188.77219 L654.750576,1188.77219 L653.91424,1189.60853 C653.844546,1189.67586 653.844546,1189.78099 653.91424,1189.84951 L653.91424,1189.84951 L654.750576,1190.68584 C654.781289,1190.71656 654.820271,1190.73191 654.860434,1190.73427 L654.860434,1190.73427 C654.90414,1190.73191 654.943122,1190.71656 654.972654,1190.68584 L654.972654,1190.68584 L655.808989,1189.84951 C655.878684,1189.78099 655.878684,1189.67586 655.808989,1189.60853 L655.808989,1189.60853 L654.972654,1188.77219 C654.943122,1188.74148 654.90414,1188.7273 654.863977,1188.72494 L654.863977,1188.72494 Z M650.564172,1189.24352 L648.21818,1189.37109 C647.977202,1189.38291 647.792924,1189.5849 647.804737,1189.82352 L647.804737,1189.82352 L647.824818,1190.15782 C647.83545,1190.39643 648.043352,1190.57953 648.280787,1190.56653 L648.280787,1190.56653 L650.629142,1190.4425 C650.867757,1190.43069 651.050853,1190.22869 651.040222,1189.98653 L651.040222,1189.98653 L651.021322,1189.65578 C651.009509,1189.4148 650.80515,1189.23171 650.564172,1189.24352 L650.564172,1189.24352 Z M659.160239,1189.24352 C658.918079,1189.23171 658.71372,1189.4148 658.701908,1189.65578 L658.701908,1189.65578 L658.683008,1189.98653 C658.672376,1190.22869 658.856653,1190.43069 659.094088,1190.4425 L659.094088,1190.4425 L661.442443,1190.56653 C661.681058,1190.57953 661.888961,1190.39643 661.899592,1190.15782 L661.899592,1190.15782 L661.918493,1189.82352 C661.930305,1189.5849 661.747209,1189.38291 661.50505,1189.37109 L661.50505,1189.37109 Z M662.704034,1174.10206 C663.115114,1174.10206 663.443506,1174.43163 663.443506,1174.84508 C663.443506,1175.0707 663.340736,1175.27151 663.178903,1175.40854 C663.4565,1175.47705 663.724647,1175.56801 663.980982,1175.6885 C663.958538,1175.61762 663.944362,1175.54793 663.944362,1175.47351 C663.944362,1175.06243 664.277479,1174.73049 664.687378,1174.73049 C665.094915,1174.73049 665.428031,1175.06243 665.428031,1175.47351 C665.428031,1175.83498 665.170516,1176.13147 664.82913,1176.19881 C665.055933,1176.37009 665.267379,1176.56027 665.459926,1176.767 L665.459926,1176.74337 C665.459926,1176.33347 665.794224,1176.00154 666.200579,1176.00154 C666.610478,1176.00154 666.941232,1176.33347 666.941232,1176.74337 C666.941232,1177.15209 666.610478,1177.48402 666.200579,1177.48402 C666.126159,1177.48402 666.062371,1177.47103 665.99622,1177.45095 C666.134428,1177.66476 666.260823,1177.8892 666.368318,1178.12191 C666.504164,1177.927 666.725061,1177.79942 666.982576,1177.79942 C667.390113,1177.79942 667.72323,1178.12899 667.72323,1178.54126 C667.72323,1178.94997 667.390113,1179.28191 666.982576,1179.28191 C666.897525,1179.28191 666.821924,1179.26419 666.746323,1179.23938 C666.79003,1179.44374 666.825468,1179.65046 666.849093,1179.86309 C666.936507,1179.82765 667.032189,1179.80639 667.132597,1179.80639 C667.543677,1179.80639 667.87325,1180.13596 667.87325,1180.54823 C667.87325,1180.95694 667.543677,1181.28888 667.132597,1181.28888 C667.018014,1181.28888 666.910519,1181.26053 666.814837,1181.21328 C666.803024,1181.29242 666.79003,1181.37629 666.78058,1181.45898 C666.756955,1181.54403 666.738054,1181.62081 666.717973,1181.69169 C667.082984,1181.73894 667.362944,1182.04489 667.362944,1182.42644 C667.362944,1182.83397 667.032189,1183.16591 666.62229,1183.16591 C666.467545,1183.16591 666.326974,1183.12102 666.207666,1183.03833 C666.107259,1183.27577 665.976138,1183.58171 665.832024,1183.93255 C665.527258,1183.89239 665.106727,1183.83923 664.833855,1183.80261 C665.113815,1183.19662 665.282736,1182.84697 665.282736,1182.84697 C665.299274,1182.7312 665.61349,1182.18546 665.739885,1181.73422 C665.854468,1181.36684 665.919438,1180.68998 665.919438,1180.57776 C665.919438,1179.40949 665.51072,1178.35107 664.825586,1177.58325 C664.139271,1176.81661 663.183628,1176.34174 662.09332,1176.34174 C661.871242,1176.34174 661.606639,1176.35355 660.999468,1176.47168 C660.378123,1176.62524 660.082807,1176.71148 659.533518,1176.85677 C658.605044,1177.14382 658.225858,1177.2903 656.896935,1177.92936 C656.763452,1177.99315 656.709113,1178.11128 656.681944,1178.19987 C656.666352,1178.25444 656.661816,1178.30094 656.660682,1178.3294 L656.660682,1178.35934 L656.660682,1178.35934 L656.606343,1183.30057 L655.777005,1183.30057 L655.777005,1177.90337 C655.777005,1177.90337 655.77237,1177.74863 655.831433,1177.56553 C655.889315,1177.38243 656.026342,1177.20643 656.255508,1177.05404 C656.43506,1176.9371 656.616975,1176.83197 656.796527,1176.73274 C656.598075,1176.59926 656.46341,1176.37482 656.46341,1176.11612 C656.46341,1175.70386 656.796527,1175.3731 657.205245,1175.3731 C657.615144,1175.3731 657.949442,1175.70386 657.949442,1176.11612 C657.949442,1176.15392 657.939992,1176.19172 657.937629,1176.22716 C657.951804,1176.22125 657.967161,1176.21534 657.983699,1176.21062 C658.147894,1176.15392 658.328628,1176.0984 658.505818,1176.04524 C658.279015,1175.91885 658.12545,1175.67787 658.12545,1175.40263 C658.12545,1174.99037 658.459748,1174.65962 658.867285,1174.65962 C659.277184,1174.65962 659.610301,1174.99037 659.610301,1175.40263 C659.610301,1175.52785 659.5725,1175.64597 659.519343,1175.74993 C659.879629,1175.6507 660.133601,1175.58337 660.133601,1175.58337 C660.167858,1175.5751 660.202114,1175.56801 660.241096,1175.55974 C660.040281,1175.42508 659.909161,1175.20064 659.909161,1174.94312 C659.909161,1174.53322 660.241096,1174.20129 660.648633,1174.20129 C661.062075,1174.20129 661.390467,1174.53322 661.390467,1174.94312 C661.390467,1175.08724 661.350304,1175.21954 661.28061,1175.33294 L661.294785,1175.32821 L661.294785,1175.32821 C661.552301,1175.28451 661.842892,1175.27624 662.105133,1175.27624 C662.016538,1175.15339 661.963381,1175.00573 661.963381,1174.84508 C661.963381,1174.43163 662.297679,1174.10206 662.704034,1174.10206 Z M647.022739,1174.09734 C647.427913,1174.09734 647.762211,1174.42809 647.762211,1174.84035 C647.762211,1175.00219 647.709054,1175.14866 647.62046,1175.27151 C647.8827,1175.27151 648.173292,1175.27978 648.430807,1175.32467 C648.434351,1175.32703 648.441439,1175.32703 648.444983,1175.3294 C648.375288,1175.21599 648.335125,1175.08369 648.335125,1174.93958 C648.335125,1174.52968 648.663517,1174.19774 649.075778,1174.19774 C649.484496,1174.19774 649.816431,1174.52968 649.816431,1174.93958 C649.816431,1175.19709 649.685311,1175.42035 649.484496,1175.5562 C649.523478,1175.56329 649.557734,1175.57156 649.591991,1175.57982 C649.591991,1175.57982 649.845963,1175.64716 650.206249,1175.74638 C650.153092,1175.64243 650.115291,1175.5243 650.115291,1175.39909 C650.115291,1174.98683 650.44959,1174.65607 650.858307,1174.65607 C651.265844,1174.65607 651.59896,1174.98683 651.59896,1175.39909 C651.59896,1175.67433 651.446577,1175.9153 651.220956,1176.04052 C651.396964,1176.09486 651.576516,1176.15038 651.741894,1176.20708 C651.758431,1176.21062 651.773788,1176.21771 651.787963,1176.22361 C651.7856,1176.18818 651.77615,1176.15038 651.77615,1176.11257 C651.77615,1175.70031 652.110448,1175.36956 652.520347,1175.36956 C652.927884,1175.36956 653.262182,1175.70031 653.262182,1176.11257 C653.262182,1176.37009 653.127518,1176.59571 652.927884,1176.72919 C653.107436,1176.82842 653.289351,1176.93355 653.470084,1177.0505 C653.69925,1177.20288 653.837458,1177.37889 653.894159,1177.56081 C653.936347,1177.69243 653.946036,1177.80899 653.948128,1177.86485 L653.948587,1183.29703 L653.12043,1183.29703 L653.064911,1178.35462 C653.064911,1178.35462 653.069636,1178.28728 653.043648,1178.19633 C653.016479,1178.10773 652.96214,1177.98842 652.828657,1177.92582 C651.499734,1177.28675 651.120548,1177.14028 650.192074,1176.85205 C649.642785,1176.70793 649.347469,1176.6217 648.724942,1176.46814 C648.118953,1176.35001 647.85435,1176.3382 647.632272,1176.3382 C646.541964,1176.3382 645.586321,1176.81306 644.898825,1177.57971 C644.216053,1178.34753 643.806154,1179.40476 643.806154,1180.57421 C643.806154,1180.68525 643.871124,1181.3633 643.985707,1181.73067 C644.112102,1182.18191 644.426319,1182.72766 644.442856,1182.84224 C644.442856,1182.84224 644.611777,1183.19308 644.891737,1183.79907 C644.618865,1183.83569 644.197153,1183.88766 643.893568,1183.92901 C643.748272,1183.57817 643.618333,1183.27222 643.517926,1183.03479 C643.398618,1183.1163 643.258047,1183.16236 643.103302,1183.16236 C642.692221,1183.16236 642.362648,1182.83043 642.362648,1182.42289 C642.362648,1182.04134 642.641427,1181.73422 643.007619,1181.68815 C642.987538,1181.61727 642.968637,1181.53931 642.945012,1181.45544 C642.935562,1181.37157 642.922568,1181.28888 642.910755,1181.20973 C642.815073,1181.2558 642.707578,1181.28533 642.592995,1181.28533 C642.181915,1181.28533 641.852342,1180.9534 641.852342,1180.5435 C641.852342,1180.13242 642.181915,1179.80285 642.592995,1179.80285 C642.692221,1179.80285 642.789085,1179.82293 642.876499,1179.85955 C642.900124,1179.64692 642.935562,1179.43902 642.979269,1179.23584 C642.903668,1179.26065 642.828067,1179.27837 642.741835,1179.27837 C642.335479,1179.27837 642.002363,1178.94525 642.002363,1178.53771 C642.002363,1178.12545 642.335479,1177.79588 642.741835,1177.79588 C643.000532,1177.79588 643.221428,1177.92345 643.357274,1178.11836 C643.464769,1177.88565 643.591164,1177.66121 643.729372,1177.4474 C643.663221,1177.4663 643.599433,1177.4793 643.525013,1177.4793 C643.115114,1177.4793 642.78436,1177.14854 642.78436,1176.73983 C642.78436,1176.32875 643.115114,1175.99681 643.525013,1175.99681 C643.931368,1175.99681 644.265667,1176.32875 644.265667,1176.73983 L644.265667,1176.76227 C644.458213,1176.55555 644.669659,1176.36537 644.896462,1176.19408 C644.555076,1176.12675 644.296379,1175.83143 644.296379,1175.46997 C644.296379,1175.05889 644.630677,1174.72695 645.038214,1174.72695 C645.448113,1174.72695 645.782411,1175.05889 645.782411,1175.46997 C645.782411,1175.54439 645.767055,1175.61408 645.74461,1175.68378 C646.000945,1175.56447 646.269092,1175.47351 646.545508,1175.40382 C646.384856,1175.26797 646.280905,1175.06597 646.280905,1174.84035 C646.280905,1174.42809 646.610478,1174.09734 647.022739,1174.09734 Z M654.865159,1181.93149 C655.260882,1181.93149 655.575099,1182.24925 655.575099,1182.64379 C655.575099,1183.03597 655.260882,1183.35373 654.865159,1183.35373 L654.858071,1183.35373 C654.463528,1183.35373 654.148131,1183.03597 654.148131,1182.64379 C654.148131,1182.24925 654.463528,1181.93149 654.858071,1181.93149 L654.865159,1181.93149 Z M654.865159,1180.27181 C655.241982,1180.27181 655.543205,1180.57658 655.543205,1180.94986 C655.543205,1181.3255 655.241982,1181.62908 654.865159,1181.62908 L654.865159,1181.62908 C654.481247,1181.62908 654.180025,1181.3255 654.180025,1180.94986 C654.180025,1180.57658 654.481247,1180.27181 654.858071,1180.27181 L654.858071,1180.27181 Z M654.865159,1178.66765 C655.224263,1178.66883 655.510129,1178.95706 655.510129,1179.31617 C655.510129,1179.67291 655.224263,1179.96114 654.865159,1179.9635 L654.860434,1179.9635 C654.498966,1179.96114 654.214281,1179.67291 654.214281,1179.31617 C654.214281,1178.95706 654.498966,1178.66883 654.860434,1178.66765 L654.865159,1178.66765 Z M654.865159,1177.16981 C655.204182,1177.17099 655.479416,1177.44859 655.479416,1177.78761 C655.479416,1178.12663 655.204182,1178.40305 654.865159,1178.40423 L654.860434,1178.40423 C654.520229,1178.40305 654.246176,1178.12663 654.246176,1177.78761 C654.246176,1177.44859 654.520229,1177.17099 654.860434,1177.16981 L654.865159,1177.16981 Z M654.863977,1175.7074 C655.200638,1175.70858 655.47351,1175.98027 655.47351,1176.31811 C655.47351,1176.65478 655.200638,1176.92647 654.863977,1176.92765 L654.863977,1176.92765 C654.522592,1176.92647 654.250901,1176.65478 654.250901,1176.31811 C654.250901,1175.98027 654.522592,1175.70858 654.859252,1175.7074 L654.859252,1175.7074 Z M654.865159,1172.4601 C655.732207,1172.4601 656.437422,1173.16414 656.437422,1174.03237 C656.437422,1174.9006 655.732207,1175.60463 654.865159,1175.60463 L654.865159,1175.60463 C653.993385,1175.60463 653.286988,1174.9006 653.286988,1174.03237 C653.286988,1173.16414 653.993385,1172.4601 654.860434,1172.4601 L654.860434,1172.4601 Z M656.485854,1167.97838 C656.504755,1167.9772 656.542555,1167.98311 656.574449,1168.0091 C656.592168,1168.02681 656.615794,1168.05635 656.615794,1168.10714 C656.619337,1168.15439 656.600437,1168.18747 656.585081,1168.20637 C656.557912,1168.23472 656.513023,1168.24417 656.496486,1168.24535 C656.093674,1168.33158 655.817258,1168.4757 655.617624,1168.69187 C655.407359,1168.9423 655.284508,1169.29431 655.237257,1169.76091 C656.305121,1169.66995 656.585081,1169.15729 656.72447,1168.61272 C656.738645,1168.57138 656.781171,1168.50995 656.869766,1168.50995 C656.945366,1168.50995 656.99498,1168.56429 657.006792,1168.61154 L657.006792,1168.61154 L657.010336,1168.62099 L657.010336,1171.59305 C657.010336,1171.64739 656.964267,1171.72299 656.856772,1171.71945 C656.750458,1171.71945 656.72447,1171.65921 656.711476,1171.63204 L656.711476,1171.63204 L656.707932,1171.61786 C656.455141,1170.99888 655.92121,1170.59843 655.231351,1170.49566 C655.272695,1170.98352 655.39909,1171.34853 655.621168,1171.60723 C655.820802,1171.82458 656.086587,1171.96279 656.496486,1172.0502 L656.496486,1172.0502 L656.508298,1172.05257 C656.533105,1172.05847 656.562637,1172.0691 656.585081,1172.09155 C656.600437,1172.10927 656.619337,1172.14234 656.615794,1172.1955 C656.615794,1172.24157 656.592168,1172.27228 656.574449,1172.28882 C656.542555,1172.31363 656.508298,1172.31835 656.477585,1172.32189 L656.477585,1172.32189 L653.246825,1172.32189 C653.216112,1172.31835 653.181856,1172.31363 653.149962,1172.28882 C653.132243,1172.27228 653.108617,1172.24157 653.108617,1172.1955 C653.105074,1172.14234 653.123974,1172.10927 653.13933,1172.09155 C653.161774,1172.0691 653.191306,1172.05847 653.216112,1172.05257 L653.216112,1172.05257 L653.227925,1172.0502 C653.637824,1171.96279 653.902427,1171.82458 654.103243,1171.60723 C654.32532,1171.34853 654.451716,1170.98352 654.49306,1170.49566 C653.803201,1170.59843 653.269269,1170.99888 653.016479,1171.61786 L653.016479,1171.61786 L653.012935,1171.63204 C652.999941,1171.65921 652.973953,1171.71945 652.866458,1171.71945 C652.760144,1171.72299 652.714075,1171.64739 652.714075,1171.59305 L652.714075,1171.59305 L652.714075,1168.62099 C652.729431,1168.56429 652.779044,1168.50995 652.854645,1168.50995 C652.94324,1168.50995 652.985766,1168.57138 652.999941,1168.61272 C653.13933,1169.15729 653.41929,1169.66995 654.487154,1169.76091 C654.439903,1169.29431 654.317052,1168.9423 654.106786,1168.69187 C653.908334,1168.4757 653.630737,1168.33158 653.227925,1168.24535 C653.212569,1168.24417 653.166499,1168.23472 653.13933,1168.20637 C653.123974,1168.18747 653.105074,1168.15439 653.108617,1168.10714 C653.108617,1168.05635 653.132243,1168.02681 653.149962,1168.0091 C653.181856,1167.98311 653.219656,1167.9772 653.238556,1167.97838 L653.238556,1167.97838 Z" id="Combined-Shape"></path>
        </g>
    </g>
</svg>