<?xml version="1.0" encoding="UTF-8"?>
<svg width="232px" height="100px" viewBox="0 0 232 100" version="1.1" xmlns="http://www.w3.org/2000/svg" xmlns:xlink="http://www.w3.org/1999/xlink">
    <title>home-office</title>
    <g id="home-office" stroke="none" stroke-width="1" fill="none" fill-rule="evenodd" opacity="0.7">
        <path d="M145.220452,70.183194 C154.26961,70.183194 158.852889,77.357023 158.852889,85.0900523 C158.852889,92.8246263 154.26961,100 145.220452,100 C136.172838,100 131.588014,92.8246263 131.588014,85.0900523 C131.588014,77.357023 136.172838,70.183194 145.220452,70.183194 Z M55.7397565,78.235987 C62.2771476,78.235987 65.7451161,82.9783761 65.7451161,89.036894 C65.7451161,95.0567931 62.2771476,99.800727 55.7397565,99.800727 C49.2023654,99.800727 45.7343968,95.0567931 45.7343968,89.036894 C45.7343968,82.9783761 49.2023654,78.235987 55.7397565,78.235987 Z M109.743828,78.2347635 C117.038148,78.2347635 119.270315,85.0517548 119.071042,90.0351252 L103.645147,90.0351252 C103.526201,93.6220397 105.55755,96.8104081 110.063592,96.8104081 C112.853414,96.8104081 114.805981,95.4541157 115.4038,92.7832393 L118.752823,92.7832393 C117.83524,97.3294448 114.566544,99.7995035 109.943101,99.7995035 C103.365547,99.7995035 100.257505,95.2563875 100.056687,88.9568882 C100.056687,82.7794243 104.12402,78.2347635 109.743828,78.2347635 Z M222.550435,78.2347635 C229.844761,78.2347635 232.076916,85.0517548 231.877655,90.0351252 L216.451754,90.0351252 C216.332808,93.6220397 218.364157,96.8104081 222.870199,96.8104081 C225.660021,96.8104081 227.612588,95.4541157 228.210407,92.7832393 L231.559424,92.7832393 C230.641853,97.3294448 227.373151,99.7995035 222.749708,99.7995035 C216.172154,99.7995035 213.064112,95.2563875 212.863295,88.9568882 C212.863295,82.7794243 216.930627,78.2347635 222.550435,78.2347635 Z M201.989769,78.2350725 C206.653376,78.2350725 210.400945,80.4270758 210.879818,85.3301191 L207.371686,85.3301191 C206.852649,82.7395697 205.059192,81.2241679 202.269369,81.2241679 C197.366326,81.2241679 195.850924,85.0906825 195.850924,89.2754161 C195.850924,93.0646931 197.565599,96.8107171 201.870823,96.8107171 C205.139519,96.8107171 207.092086,94.8983139 207.530795,91.7887278 L210.998764,91.7887278 C210.241835,96.8107171 207.092086,99.7998125 201.909442,99.7998125 C195.611488,99.7998125 192.26401,95.4142611 192.26401,89.2754161 C192.26401,83.0979522 195.452378,78.2350725 201.989769,78.2350725 Z M169.583804,70.5422315 C170.221787,70.5422315 171.137825,70.6611156 171.775808,70.8604504 L171.775808,73.810927 C171.179533,73.6101093 170.461223,73.5313269 169.863404,73.5313269 C168.229057,73.5313269 167.272855,74.0503636 167.272855,75.8422761 L167.272855,78.7124256 L171.258316,78.7124256 L171.258316,81.7030658 L167.272855,81.7030658 L167.272855,99.3225088 L163.883669,99.3225088 L163.883669,81.7030658 L160.4157,81.7030658 L160.4157,78.7124256 L163.883669,78.7124256 L163.883669,75.6445478 C163.883669,72.2955252 165.876399,70.5422315 169.583804,70.5422315 Z M181.549933,70.5422315 C182.187915,70.5422315 183.103953,70.6611156 183.741936,70.8604504 L183.741936,73.810927 C183.145662,73.6101093 182.427352,73.5313269 181.829533,73.5313269 C180.195185,73.5313269 179.238983,74.0503636 179.238983,75.8422761 L179.238983,78.7124256 L183.224444,78.7124256 L183.224444,81.7030658 L179.238983,81.7030658 L179.238983,99.3225088 L175.849797,99.3225088 L175.849797,81.7030658 L172.381829,81.7030658 L172.381829,78.7124256 L175.849797,78.7124256 L175.849797,75.6445478 C175.849797,72.2955252 177.842527,70.5422315 181.549933,70.5422315 Z M90.4194311,78.2343186 C94.5253823,78.2343186 97.2750411,79.9489935 97.2750411,84.2140542 L97.2750411,99.3217302 L93.8873997,99.3217302 L93.8873997,85.8082384 C93.8873997,83.2578526 93.2092535,81.2249588 89.9003944,81.2249588 C86.6332436,81.2249588 84.5200226,83.2980162 84.5200226,86.4863846 L84.5200226,99.3217302 L81.1308364,99.3217302 L81.1308364,85.8082384 C81.1308364,83.137362 80.2935808,81.2249588 77.2658666,81.2249588 C73.2386977,81.2249588 71.7650041,84.932364 71.7650041,86.4863846 L71.7650041,99.3217302 L68.3758179,99.3217302 L68.3758179,78.7131918 L71.5641864,78.7131918 L71.5641864,81.7424508 L71.6445135,81.7424508 C73.1599153,79.4299568 75.4708646,78.2343186 78.3008505,78.2343186 C80.8126175,78.2343186 83.1251115,79.2322285 83.9608224,81.7424508 C85.3572783,79.5504475 87.7887182,78.2343186 90.4194311,78.2343186 Z M189.07612,78.7128705 L189.07612,99.3214089 L185.686933,99.3214089 L185.686933,78.7128705 L189.07612,78.7128705 Z M23.8517406,70.8603886 L23.8517406,83.0979152 L38.838926,83.0979152 L38.838926,70.8603886 L42.6251135,70.8603886 L42.6251135,99.3209022 L38.838926,99.3209022 L38.838926,86.2862836 L23.8517406,86.2862836 L23.8517406,99.3209022 L20.0640084,99.3209022 L20.0640084,70.8603886 L23.8517406,70.8603886 Z M3.34747791,9.23705556e-14 L3.34747791,99.3198394 L-1.13686838e-13,99.3198394 L-1.13686838e-13,9.23705556e-14 L3.34747791,9.23705556e-14 Z M55.7397565,81.2250824 C52.1914608,81.2250824 49.3213113,84.0149048 49.3213113,89.036894 C49.3213113,94.0202644 52.1914608,96.8100868 55.7397565,96.8100868 C59.2865074,96.8100868 62.1566569,94.0202644 62.1566569,89.036894 C62.1566569,84.0149048 59.2865074,81.2250824 55.7397565,81.2250824 Z M145.220452,73.3715624 C138.284514,73.3715624 135.374201,79.351298 135.374201,85.0900523 C135.374201,90.831896 138.284514,96.8100868 145.220452,96.8100868 C152.156389,96.8100868 155.066702,90.831896 155.066702,85.0900523 C155.066702,79.351298 152.156389,73.3715624 145.220452,73.3715624 Z M222.351162,81.2238589 C218.802867,81.2238589 216.69119,83.8962802 216.451754,87.044485 L228.290734,87.044485 C228.131625,83.815953 225.69864,81.2238589 222.351162,81.2238589 Z M109.544555,81.2238589 C105.996259,81.2238589 103.884583,83.8962802 103.645147,87.044485 L115.484127,87.044485 C115.325018,83.815953 112.892033,81.2238589 109.544555,81.2238589 Z M189.07612,70.8593506 L189.07612,75.0054653 L185.686933,75.0054653 L185.686933,70.8593506 L189.07612,70.8593506 Z M35.9388738,7.32081524 C37.7415995,7.32081524 38.8414631,7.71621 38.935693,7.75180109 C38.8878056,8.11790735 38.7704045,8.46238708 38.6035712,8.77442701 L38.6035712,8.77442701 L39.4253794,9.18069683 C39.1998456,9.58851139 39.0005725,10.0642951 38.8352841,10.5678843 C40.1931212,10.6976434 41.5463241,10.1492564 42.8593634,9.61631693 C44.0225618,9.14516753 45.224379,8.65702585 46.4153829,8.65702585 C47.2464595,8.65702585 48.3833971,9.11272773 49.044551,10.1338089 C49.5865737,10.9711264 49.9943882,12.5035205 48.8605401,15.0261008 L48.877,14.988 L49.7001092,15.341947 L47.7846166,19.7892884 L48.2758478,20.8644359 L46.9875245,21.4545312 C47.0168747,21.4532954 47.0431355,21.4520596 47.0724858,21.4520596 C47.7985193,21.4520596 48.3901594,22.0406102 48.3901594,22.7697332 C48.3901594,23.4756849 47.8340486,24.0503327 47.1358207,24.0843173 L47.1358207,24.0843173 L47.1373036,24.7609187 C47.5512972,25.1069432 47.9544775,25.4715047 48.3391208,25.8576927 C51.6371666,29.1541938 53.452374,33.5382004 53.452374,38.1987177 C53.452374,41.2384809 52.6583714,44.2337554 51.1553275,46.8582893 C50.5806797,47.8623782 49.9040783,48.8077665 49.1440602,49.6774619 C49.6121202,50.9565167 49.5039875,51.9219868 48.821207,52.5491562 C48.615755,52.7376159 48.3639604,52.8890016 48.061189,53.0033133 L48.061189,53.0033133 L39.4847251,57.1092645 L39.4847251,60.4227579 C39.4847251,62.2501997 37.9137121,63.7362512 35.9812272,63.7362512 C34.0487422,63.7362512 32.4777293,62.2501997 32.4777293,60.4227579 L32.4777293,60.4227579 L32.4777293,55.4502007 C32.4591923,55.4456282 32.4437448,55.4378427 32.4252077,55.4316637 C32.1085335,55.7993765 31.5848626,55.9537899 31.1028999,55.7792329 C30.63484,55.6077654 30.3367028,55.1736901 30.3119868,54.7040854 C30.0153944,54.5974357 29.8408374,54.532309 29.8238451,54.5248942 C26.5443363,53.2844582 23.7406112,51.1063577 21.7138963,48.2269397 C19.6423837,45.2795526 18.5471544,41.8131287 18.5471544,38.1984087 C18.5471544,33.5378915 20.3622382,29.1538849 23.660284,25.8573838 C24.0449273,25.4711957 24.4481076,25.1066342 24.8605565,24.7621545 L24.8605565,24.7621545 L24.8620394,24.0809188 C24.179259,24.0314867 23.6416852,23.4645627 23.6416852,22.7694242 C23.6416852,22.0403012 24.2302358,21.4517507 24.9578141,21.4517507 C24.9701721,21.4517507 24.9794406,21.4529865 24.9887091,21.4529865 L24.9887091,21.4529865 L23.7050201,20.8644359 L24.1947065,19.7954674 L22.2761243,15.341947 L23.0971944,14.9876494 C21.9861874,12.4878985 22.3926165,10.9668089 22.9336054,10.1338089 C23.5932146,9.11272773 24.7286074,8.65702585 25.5612288,8.65702585 C26.750688,8.65702585 27.9540499,9.14516753 29.1157035,9.61631693 C30.4302876,10.1492564 31.7834905,10.6976434 33.1413276,10.5678843 C32.9760392,10.0642951 32.7767661,9.58851139 32.5496876,9.18069683 L32.5496876,9.18069683 L33.3714957,8.77442701 C33.201573,8.46084232 33.0857166,8.11481784 33.039374,7.74562208 C33.1212459,7.71318228 34.1407823,7.32081524 35.9388738,7.32081524 Z M33.3318537,55.7270821 L33.3318537,60.4231286 C33.3318537,60.7691531 33.4090913,61.0981853 33.548119,61.3963225 C33.6809677,61.623401 33.9265832,61.7763315 34.2061834,61.7763315 C34.5444841,61.7763315 34.8302633,61.5585215 34.9291274,61.25575 C34.9476644,61.2016837 34.987828,61.0472085 35.0403495,60.8324879 C34.9553882,60.8648659 34.8642478,60.883403 34.7684732,60.883403 C34.3529348,60.883403 34.0146341,60.5451023 34.0146341,60.1295639 C34.0146341,59.7124808 34.3529348,59.3757249 34.7684732,59.3757249 C34.9909175,59.3757249 35.1901905,59.4714995 35.3276734,59.6259747 L35.3276734,59.6259747 L35.4099154,59.2773839 C35.6142971,58.4072936 35.8019124,57.5822676 35.8019124,57.5822676 L35.8019124,57.5822676 L36.1602949,57.5822676 C36.1602949,57.5822676 36.4043657,58.6450571 36.6360785,59.6290642 C36.7735615,59.4729825 36.9743792,59.3757249 37.1983683,59.3757249 C37.6154514,59.3757249 37.9537521,59.7124808 37.9537521,60.1295639 C37.9537521,60.5451023 37.6154514,60.883403 37.1983683,60.883403 C37.1010489,60.883403 37.006819,60.8648659 36.9218577,60.8308814 C36.9743792,61.0456019 37.0160875,61.2000772 37.0330798,61.2556882 C37.1350335,61.5584597 37.4192679,61.7762697 37.7544791,61.7762697 C38.0325345,61.7762697 38.2766053,61.6264288 38.409454,61.4039844 C38.5515712,61.1043025 38.6288088,60.7721808 38.6288088,60.4230668 L38.6288088,60.4231286 L38.6288088,57.1714253 C36.8152698,56.7806031 34.9059561,56.226037 33.3318537,55.7270821 L33.3318537,55.7270821 Z M33.1186779,49.5248404 C32.9580236,49.9311102 32.6923263,50.6030774 32.4050024,51.3260214 L32.4050024,51.3260214 L32.9302181,51.546921 C33.1603862,51.2904921 33.4925079,51.1282931 33.8632484,51.1282931 C34.5552974,51.1282931 35.1191319,51.6905829 35.1191319,52.3841766 C35.1191319,53.0762256 34.5552974,53.6385154 33.8632484,53.6385154 C33.1711994,53.6385154 32.6089097,53.0762256 32.6089097,52.3841766 C32.6089097,52.3501921 32.6105162,52.32078 32.6136057,52.289885 L32.6136057,52.289885 L32.1084718,52.0767092 C31.7856186,52.8877041 31.4782129,53.6662591 31.2990216,54.1173268 C33.1558137,54.7645779 36.3148319,55.7825696 39.0227824,56.3495554 C39.1407225,56.2937727 40.9751157,55.4155525 42.950617,54.4691683 L43.42664,54.2411136 C44.1423188,53.8982268 44.8599528,53.5543264 45.5060454,53.2446036 C43.999912,53.1318367 42.0519796,52.6993061 39.6406214,51.945467 C37.362112,51.2333363 34.9662014,50.3080298 33.1186779,49.5248404 Z M38.311403,52.6800894 C39.003452,52.6800894 39.5688313,53.2423792 39.5688313,53.9344281 C39.5688313,54.6264771 39.003452,55.1903116 38.311403,55.1903116 C37.6208988,55.1903116 37.0570643,54.6264771 37.0570643,53.9344281 C37.0570643,53.2423792 37.6208988,52.6800894 38.311403,52.6800894 Z M38.311403,53.299535 C37.962289,53.299535 37.6765099,53.5853141 37.6765099,53.9344281 C37.6765099,54.2850869 37.962289,54.5693212 38.311403,54.5693212 C38.6620617,54.5693212 38.9462961,54.2850869 38.9462961,53.9344281 C38.9462961,53.5853141 38.6620617,53.299535 38.311403,53.299535 Z M24.8588881,25.9333856 C24.6642494,26.1125768 24.4727001,26.2948576 24.2842403,26.4817726 C21.1545725,29.6114405 19.4321738,33.7730027 19.4321738,38.1987177 C19.4321738,41.6296122 20.471792,44.921479 22.4367168,47.7174804 C24.3599332,50.4516917 27.0215411,52.5201148 30.1342167,53.697216 L30.1342167,53.697216 L30.2556228,53.7425447 C30.3412135,53.774227 30.4359583,53.8089119 30.5389418,53.8470569 L30.5389418,53.8470569 L30.5390654,53.8474277 L31.363963,51.763557 L31.0163938,51.6168056 C30.8109417,51.5302994 30.7151671,51.2939524 30.8016732,51.0885003 C30.8881793,50.884902 31.1260712,50.7872737 31.3315232,50.8737798 L31.3315232,50.8737798 L31.6621002,51.0128075 L32.3773204,49.2054475 C31.6744582,48.896497 31.0828181,48.6199864 30.6549218,48.4052658 L30.6549218,48.4052658 C30.3459096,48.2350342 30.0400486,48.0573877 29.7465457,47.8673832 C29.7264639,47.8550251 29.7079269,47.8426671 29.6893899,47.8303091 C29.6368683,47.794718 29.5843467,47.76234 29.5333699,47.7267489 C29.4901169,47.6974604 29.4484086,47.6665654 29.4067002,47.6371533 C29.37735,47.6186163 29.3495444,47.5985963 29.3201941,47.5784527 C28.9525431,47.3143001 28.5957054,47.0300657 28.2574046,46.7211153 C27.4664915,46.0028055 26.6477729,45.1640051 26.0128798,43.9374719 C25.0365964,42.2444235 24.4758514,40.2825883 24.4758514,38.1925386 C24.4758514,37.2023525 24.6025211,36.2276139 24.8465919,35.2868599 L24.8465919,35.2868599 L24.8496814,33.3404721 L21.4141526,31.7447432 L21.6350522,31.2735938 L21.6504997,31.2350368 L24.8512262,32.7195436 L24.8527091,31.1330831 C24.0818778,30.6202254 23.0716099,29.9482582 23.0299016,29.9204527 C22.9881933,29.9837875 22.3919189,30.8812885 22.3919189,30.8812885 L22.3919189,30.8812885 L21.923859,30.5707933 L23.4917825,28.2150463 L23.5149538,28.1794552 L23.9830137,28.4914952 C23.9830137,28.4914952 23.3851946,29.3874514 23.3419415,29.452331 C23.35121,29.45851 23.4062418,29.4951013 23.4945823,29.5538502 L23.6505178,29.6575598 C23.7394195,29.7166918 23.8435545,29.7859658 23.9576686,29.8618992 L24.1976452,30.0216136 C24.4061189,30.1603887 24.6325819,30.3112132 24.8527091,30.4579646 L24.8527091,30.4579646 Z M28.2697379,47.6757103 L28.7455216,47.976937 C28.7455216,47.976937 27.9237135,49.274467 27.8820052,49.3409531 C27.9382341,49.3771003 28.9807015,50.0375248 29.2999274,50.2401058 L29.3896833,50.2972165 C29.4313916,50.2292474 30.2531997,48.9332003 30.2531997,48.9332003 L30.2531997,48.9332003 L30.7289834,49.2328823 L28.7007238,52.4366982 L28.2249401,52.1339268 C28.2249401,52.1339268 29.0467483,50.8379415 29.0900013,50.7714554 C29.0324336,50.7353082 27.9897877,50.0748837 27.670538,49.8723028 L27.5807785,49.8152538 C27.5390702,49.8816782 26.717262,51.17927 26.717262,51.17927 L26.717262,51.17927 L26.2414784,50.8780433 L28.2481114,47.7113014 L28.2697379,47.6757103 Z M48.4411362,50.4361824 C47.7429083,51.1436789 46.9859797,51.7940195 46.1780743,52.3763911 C47.3798915,52.3902939 47.9468155,52.133865 48.2125129,51.8882494 C48.5338214,51.5932018 48.6079695,51.1050601 48.4411362,50.4361824 Z M47.1373654,25.9333238 L47.1420615,29.5943864 L49.0807254,29.1371398 L49.1085309,29.1309608 L49.326341,29.4522692 L47.1482405,32.5896608 L47.1482405,32.8121051 L50.4200255,31.5052448 L50.4586443,31.4897973 L50.6640964,32.0011102 C50.6640964,32.0011102 50.049808,32.2467607 49.3771898,32.5158567 L49.0078639,32.6636259 C48.3324137,32.9339019 47.699717,33.1872224 47.6657324,33.2013827 C47.6950827,33.2724413 48.2125747,34.5684883 48.2125747,34.5684883 L48.2125747,34.5684883 L47.6904485,34.7770299 L47.1482405,33.4222822 L47.1529365,35.2698058 C47.4000969,36.2151941 47.5252218,37.194567 47.5252218,38.1924769 C47.5252218,40.3010635 46.9552082,42.2783463 45.9619326,43.9806632 C45.3502108,45.146951 44.5747452,45.9579459 43.8162719,46.6530844 C42.9496659,47.453266 41.9610245,48.1221437 40.8812428,48.6288224 C40.2262679,49.0103762 39.8215428,49.771939 39.6222698,50.9969274 C39.7195892,51.0263395 39.8138191,51.0587175 39.9095937,51.0865231 C41.9965538,51.7399532 43.572201,52.0937015 44.7647497,52.2589899 C47.0848438,50.8084677 49.028142,48.7925661 50.3890687,46.4182821 C51.8148749,43.9265968 52.568714,41.0842529 52.568714,38.1986559 C52.568714,33.772941 50.8447706,29.6113787 47.7166475,26.4817108 C47.5281877,26.2947958 47.3350937,26.1109703 47.1373654,25.9333238 L47.1373654,25.9333238 Z M43.4914105,47.7701132 L45.6108104,50.9136838 L43.9888207,52.0073683 L43.675236,51.5408532 C43.675236,51.5408532 44.7689205,50.8040064 44.8338001,50.7607534 C44.7936366,50.6974185 44.2977711,49.9606335 44.2545181,49.9003264 C44.1911832,49.9435795 43.1345728,50.6541655 43.1345728,50.6541655 L43.1345728,50.6541655 L42.8209881,50.1891951 C42.8209881,50.1891951 43.8775985,49.4785473 43.9409334,49.4338113 C43.8992251,49.3735659 43.3848226,48.6089754 43.3431143,48.5486683 C43.2797795,48.5919213 42.1490209,49.3534842 42.1490209,49.3534842 L42.1490209,49.3534842 L41.8338914,48.886969 L43.457426,47.7933463 L43.4914105,47.7701132 Z M39.2559782,49.2483298 C38.222539,49.552646 37.1303992,49.7163897 36.0011854,49.7163897 L36.0011854,49.7163897 C36.8847218,50.0577799 37.8347444,50.4038044 38.803304,50.7282023 C38.9068024,50.1581888 39.0550986,49.6654129 39.2559164,49.2483298 Z M45.3693756,46.4330005 L45.9455681,47.021551 L45.8142642,46.998318 C45.4079944,46.9210803 45.0727832,46.998318 44.8472493,47.2176728 C44.5861862,47.4725569 44.6726924,47.756853 44.787004,47.8726477 C45.0187168,48.1120843 45.3801888,48.0440534 45.7632874,47.9746013 L45.7632874,47.9746013 C46.2158998,47.8924205 46.7303022,47.7966459 47.1257588,48.2013709 C47.3373898,48.4176362 47.4470672,48.6678861 47.4439777,48.9289492 C47.4408882,49.1946466 47.3203975,49.4541649 47.093319,49.6750645 C46.9048592,49.8619795 46.6484304,49.9809254 46.3549274,50.021089 L46.3549274,50.021089 L46.3363904,50.0235606 L45.8250775,49.5029791 L45.9301206,49.5054507 C46.2699661,49.5178087 46.5402977,49.4297578 46.7287575,49.2459323 C46.8399796,49.1362549 46.9032527,49.0064957 46.9048592,48.8798261 C46.9048592,48.7825067 46.8693299,48.6944558 46.7967266,48.6203077 C46.5974535,48.4149175 46.2946821,48.4797971 45.9424786,48.5570347 C45.4682397,48.6605331 44.930666,48.7763895 44.4517928,48.2851583 C44.2370722,48.0673482 44.1212158,47.7970166 44.1243053,47.5235955 C44.1258501,47.2733456 44.2308932,47.0369985 44.4162635,46.853173 C44.6788714,46.5967442 44.9770085,46.4638955 45.3492938,46.4330005 L45.3492938,46.4330005 L45.3693756,46.4330005 Z M24.2816464,46.1538205 C25.0030456,45.5112036 26.1569755,45.3335571 26.9633361,46.2403266 C27.2877341,46.6048881 27.4452988,47.0451425 27.419038,47.5132024 C27.3896877,48.0229706 27.1363484,48.525015 26.7223548,48.8957556 C25.8959124,49.6310576 24.7466168,49.5986178 24.0530231,48.8185179 C23.7178118,48.4446879 23.5571576,47.9967098 23.5849632,47.5271051 C23.6143135,47.0157922 23.8614738,46.5291953 24.2816464,46.1538205 Z M25.6904603,46.2017078 C25.3305331,46.181626 24.9675163,46.3175642 24.6678344,46.5848063 C24.365063,46.8535932 24.1874165,47.1980729 24.16579,47.5564554 C24.1472529,47.8762191 24.2600198,48.1913486 24.4809194,48.4385089 C24.9644268,48.9807169 25.7460714,48.9899854 26.3392562,48.463225 C26.6404829,48.1944381 26.8181294,47.8468688 26.8382112,47.4884863 C26.8567482,47.1687226 26.7486156,46.8582275 26.5292608,46.6126119 C26.309906,46.3654515 26.0117688,46.2202448 25.6904603,46.2017078 Z M35.7663831,35.6837994 L25.7440929,35.6837994 L25.7410034,38.1862979 C25.7410034,40.5883874 26.1519075,42.2258247 26.7667188,43.4461789 C27.4525888,44.6449066 28.3639925,45.6968828 29.4422295,46.5464965 C29.4545876,46.555765 29.4670074,46.5656514 29.4777588,46.574302 C29.5302804,46.6144656 29.5812572,46.6547527 29.6337788,46.6933097 C29.6754871,46.7242048 29.7171954,46.7550998 29.7604485,46.7859949 L29.7604485,46.7859949 L29.8268728,46.8354269 C29.8886629,46.87868 29.9519978,46.9235396 30.0137878,46.9651861 C30.0168773,46.9664219 30.0183603,46.9688935 30.0214498,46.9713651 C31.7114087,48.1222055 33.7025942,48.7632776 35.7663831,48.8096202 L35.7663831,48.8096202 L35.7663831,35.6837994 Z M46.2521606,35.6838612 L36.2159059,35.6838612 L36.2159059,48.8096202 C38.783284,48.7570986 41.2332609,47.7839047 43.1379403,46.0553271 C43.1842829,46.012074 43.2321702,45.968821 43.2800575,45.9255679 C44.0323518,45.2149819 44.6811477,44.3993528 45.2032739,43.500307 C45.8335328,42.2737738 46.2583397,40.6224338 46.2583397,38.1863596 L46.2583397,38.1863596 L46.2521606,35.6838612 Z M37.1902256,43.4824744 C37.4667362,43.4824744 37.6907253,43.7064635 37.6907253,43.9845189 C37.6907253,44.1359046 37.6227562,44.270298 37.5177131,44.3629831 L37.5177131,44.3629831 L38.6932694,45.4242279 L38.6932694,44.2054184 L37.9718702,43.4840192 L40.8250274,43.4840192 L40.1005386,44.2085079 L40.1005386,44.793969 L43.0077622,44.793969 C43.1483346,44.793969 43.2641911,44.6812021 43.2641911,44.5390849 C43.2641911,44.3985124 43.1483346,44.2842008 43.0077622,44.2842008 L43.0077622,44.2842008 L41.9570712,44.2848039 C41.9327506,44.2848829 41.90387,44.2849521 41.8719492,44.2850127 L41.276095,44.2854366 L41.276095,44.2854366 L41.2730055,44.282965 L40.6535599,44.282965 L41.3085348,43.6279901 C41.3981305,43.5399392 41.5201659,43.4843281 41.6561041,43.4843281 C41.9218014,43.4843281 42.1381285,43.6959592 42.1457905,43.9601118 L42.1457905,43.9601118 L43.0077622,43.9601118 C43.3259811,43.9599264 43.588589,44.2194448 43.588589,44.5392085 C43.588589,44.8589722 43.3259811,45.1184905 43.0077622,45.1184905 L43.0077622,45.1184905 L42.5474261,45.1184905 L42.5474261,45.7858235 C42.497994,45.8275318 42.4470172,45.8691783 42.3975851,45.9109484 C42.2431099,46.0376181 42.0840004,46.1597153 41.9202567,46.2785994 C41.7039914,46.4361641 41.4800023,46.5875498 41.2529238,46.7281223 C41.1602386,46.6833244 41.0567402,46.6045421 41.0057634,46.5149465 C40.9717789,46.4547011 40.9532418,46.392911 40.9439733,46.3280315 C40.9377943,46.2677861 40.9424286,46.2028447 40.9578761,46.1426612 C40.9918606,46.0221705 41.070643,45.9124313 41.1895889,45.8460688 C41.3425194,45.7583269 41.5232554,45.7630229 41.6684621,45.844833 C41.7781395,45.7614164 41.8893616,45.6795445 41.9959495,45.5930384 L41.9959495,45.5930384 L41.4939051,45.140426 C41.257558,45.3597808 40.9609656,45.5745014 40.6396571,45.7706849 L40.6396571,45.7706849 L40.6396571,47.0821795 C40.4558316,47.1825883 40.2318426,47.2860249 40.0093983,47.3834061 C40.0063088,47.3858777 40.0016127,47.3883493 39.9939508,47.3908209 C39.9939508,47.3908209 39.805491,47.4726928 39.6108522,47.5468409 C39.4069449,47.6240785 39.1984034,47.6932834 39.1984034,47.6920476 C39.1427923,47.6318023 39.070189,47.5669227 39.0362044,47.4773271 C38.9357955,47.2193534 39.0624652,46.9304848 39.3204388,46.8285312 C39.4980853,46.7590173 39.6896346,46.7976361 39.8271175,46.9119478 C39.9321607,46.86715 40.0372038,46.8192008 40.142247,46.7682858 L40.142247,46.7682858 L39.6216655,46.2986812 C39.43784,46.3774635 39.257104,46.4470392 39.0810022,46.5072227 L39.0810022,46.5072227 L37.7571496,48.0504301 C37.3786854,48.1138267 37.112988,48.1369362 36.9399758,48.1523837 C36.8766409,48.0782356 36.8349326,47.9840058 36.8225746,47.8789626 C36.794769,47.602452 36.9940421,47.3568364 37.269008,47.3290308 C37.4034014,47.3135833 37.5316158,47.3553534 37.63048,47.434074 L37.63048,47.434074 L38.8214839,46.0422523 L38.7349777,46.1364204 L36.8735514,44.4557301 L36.8735514,43.5953031 C36.9585128,43.5257275 37.0697349,43.4824744 37.1902256,43.4824744 Z M33.4347749,36.2877357 L33.6386822,36.2889715 C34.2565831,36.2889715 34.7586275,36.7894712 34.7586275,37.4089168 L34.7586275,37.4089168 L34.7586893,37.4098436 L34.7617788,48.1010733 C34.7617788,48.1010733 34.0990802,47.9929406 33.4255682,47.8029361 C32.7319745,47.6067526 32.2824516,47.392032 32.2824516,47.392032 L32.2824516,47.392032 L32.4817247,45.9554125 C31.3401528,45.4780841 30.4133015,44.8694518 29.7011708,44.1372392 C29.7011708,44.1465078 29.7026537,44.1570121 29.7026537,44.1681343 C29.7026537,44.4291974 29.4910227,44.6423732 29.2284148,44.6423732 C28.965807,44.6423732 28.7541759,44.4291974 28.7541759,44.1681343 C28.7541759,43.9070712 28.965807,43.6923506 29.2284148,43.6923506 C29.2593099,43.6923506 29.2886602,43.696058 29.3180105,43.7010012 C29.0940214,43.4229458 28.8993826,43.1309877 28.7310046,42.8204925 C28.6954753,43.0460263 28.4992918,43.2190386 28.2644895,43.2190386 C28.0018816,43.2190386 27.7887058,43.0058628 27.7887058,42.7432549 C27.7887058,42.4821918 28.0018816,42.2705607 28.2644895,42.2705607 C28.3479061,42.2705607 28.4251437,42.2907043 28.4931128,42.3292613 C28.3788012,42.0651087 28.2845713,41.7885981 28.2073337,41.5028189 C28.1980652,41.4610488 28.1872519,41.4208853 28.1779834,41.3792388 C28.093022,41.5151152 27.9431811,41.6063173 27.7732583,41.6063173 C27.5121952,41.6063173 27.2990194,41.3931415 27.2990194,41.1320784 C27.2990194,40.8694705 27.5121952,40.6578395 27.7732583,40.6578395 C27.8798462,40.6578395 27.9756208,40.6934306 28.0544032,40.7505246 C28.0018816,40.3890526 27.9817999,40.0368491 27.9817999,39.7016379 C27.8968385,39.8220668 27.756266,39.8978214 27.6002461,39.8978214 C27.3376382,39.8978214 27.1244624,39.6861904 27.1244624,39.4235825 C27.1244624,39.1625194 27.3376382,38.9508884 27.6002461,38.9508884 C27.7686241,38.9508884 27.9153755,39.0373945 27.9987921,39.1686984 C28.0405004,38.5199025 28.1486331,37.9699708 28.2227812,37.5961407 C28.0574927,37.4880081 27.9030175,37.3659727 27.7578108,37.233124 C27.756266,37.6502071 27.4457709,37.9529785 27.0626723,37.9529785 C26.678029,37.9529785 26.3659891,37.637849 26.3659891,37.2562953 L26.3659891,37.2562953 L26.3724648,37.1439922 C26.4280629,36.6646788 26.8348214,36.2877357 27.3268249,36.2877357 L27.3268249,36.2877357 L33.4347749,36.2877357 Z M47.0715281,43.3785188 L50.2707098,45.4098679 L50.0374522,45.7775189 C50.0374522,45.7775189 46.7579434,46.0740495 46.5293201,46.0941931 C46.7193246,46.2146837 48.8850671,47.5910579 48.8850671,47.5910579 L48.8850671,47.5910579 L48.6039222,48.0313122 L45.4031958,45.9999632 L45.6534456,45.6091409 C45.6534456,45.6091409 48.9020594,45.3249065 49.1306827,45.3063695 C48.9406782,45.184334 46.7903832,43.8187731 46.7903832,43.8187731 L46.7903832,43.8187731 L47.0483568,43.4125033 L47.0715281,43.3785188 Z M24.3204308,41.9145386 L24.5197038,42.342435 C24.5197038,42.342435 24.5101931,42.3612587 24.4926411,42.395998 L24.4173312,42.5450543 C24.0796002,43.2135071 23.0173397,45.3160211 22.9316986,45.4860056 C23.1309716,45.3917757 25.4434656,44.305815 25.4434656,44.305815 L25.4434656,44.305815 L25.6689994,44.7893224 L22.2396496,46.4004989 L22.0511899,45.9988633 L22.0511899,45.9988633 L22.1106092,45.8802676 C22.1865161,45.7287616 22.3283733,45.4456149 22.4963543,45.1102882 L22.7629405,44.5780955 C22.7936319,44.5168219 22.8244958,44.4552024 22.8553478,44.393605 L23.1277175,43.8497563 C23.3898103,43.3263679 23.6061374,42.8941586 23.6422846,42.8213081 C23.4430116,42.915538 21.1150701,44.0107673 21.1150701,44.0107673 L21.1150701,44.0107673 L20.8879915,43.5257151 L24.281812,41.9330757 L24.3204308,41.9145386 Z M29.0476788,37.9928331 C28.7340942,39.6148228 28.298474,43.110597 32.586706,45.0338134 L32.586706,45.0338134 L29.1218269,38.0175491 C29.0955662,38.0113701 29.0708501,38.0014837 29.0476788,37.9928331 Z M39.8966314,44.3632921 L38.9002662,44.3632921 L39.3992212,44.8607023 L39.8966314,44.3632921 Z M29.5234625,38.1164133 L32.6824806,44.5147767 L32.8014266,43.6682525 L30.0888418,38.1720243 C29.8957478,38.1689348 29.707288,38.1503978 29.5234625,38.1164133 L29.5234625,38.1164133 Z M47.7821314,41.1809667 L51.3798591,42.3781496 L50.763503,44.2318522 L50.2305635,44.0542057 C50.2305635,44.0542057 50.6476466,42.8029565 50.6723626,42.7288084 C50.6581509,42.7241741 50.6130442,42.7092827 50.5494127,42.6882247 L50.3153148,42.610641 C50.2711596,42.5959906 50.2254658,42.5808211 50.1797798,42.5656439 L49.810564,42.4426461 C49.7471179,42.4214027 49.7022583,42.4062641 49.6883555,42.4013209 C49.6830592,42.4172098 49.6604554,42.4851631 49.6282048,42.582138 L49.5531109,42.8079555 C49.427986,43.1842423 49.2620039,43.6834652 49.2620039,43.6834652 L49.2620039,43.6834652 L48.7290644,43.5058187 C48.7290644,43.5058187 48.8602107,43.1118754 48.9772336,42.7603745 L49.0600828,42.5115253 C49.1105236,42.3600224 49.1483543,42.2464044 49.155416,42.2252192 C49.0843574,42.2005031 48.2115725,41.9116345 48.1405139,41.8869185 C48.1322752,41.9116345 48.0788954,42.0719454 48.011384,42.2747085 L47.9255718,42.5324399 C47.8664877,42.7098974 47.8062977,42.8906796 47.7608788,43.0270975 L47.7058133,43.1924899 C47.692474,43.2325555 47.684812,43.2555689 47.684812,43.2555689 L47.684812,43.2555689 L47.1534172,43.0779224 L47.7697734,41.2211303 L47.7821314,41.1809667 Z M30.9369107,38.0886695 C30.773167,38.1257436 30.6078785,38.1504596 30.436411,38.1643006 L30.436411,38.1643006 L32.8802089,43.1122035 L32.9976101,42.2625898 Z M40.8250274,39.8809404 L40.1005386,40.6054291 L40.1005386,41.1908902 L42.8254814,41.1908902 L42.8254814,41.192126 L44.2296611,41.192126 C44.3717783,41.1908902 44.4845452,41.0781233 44.4845452,40.9375509 C44.4845452,40.7954955 44.3717783,40.6826668 44.2296611,40.6826668 L44.2296611,40.6826668 L41.276095,40.6826668 C41.276095,40.6826668 41.276095,40.681431 41.2730055,40.6801952 L41.2730055,40.6801952 L40.6535599,40.6801952 L41.3085348,40.0252202 C41.3981305,39.9355628 41.5201659,39.8815583 41.6561041,39.8815583 C41.9218014,39.8815583 42.1381285,40.0931893 42.1457905,40.3588867 L42.1457905,40.3588867 L44.2296611,40.3588867 C44.5478801,40.3588867 44.8073984,40.6184051 44.8073984,40.9381688 C44.8073984,41.0277644 44.7857719,41.1158153 44.7502426,41.1930529 L44.7502426,41.1930529 L44.7888614,41.1930529 L44.7888614,41.1906431 L44.9472227,41.1909689 C44.9765488,41.1910196 45.00783,41.1910679 45.0391113,41.1911065 L45.211158,41.1911644 C45.2580799,41.1911065 45.2893611,41.190952 45.2893611,41.1906431 C45.2661898,41.3312155 45.1765942,41.7467538 45.0452903,42.1622922 C44.9788659,42.3785575 44.8630095,42.7137687 44.7317056,43.0026373 L44.7317056,43.0026373 L43.7059902,43.0026373 C43.6349316,42.9161312 43.5932233,42.806392 43.5932233,42.6875079 C43.5932233,42.4109973 43.8156676,42.1854634 44.093723,42.1854634 C44.2389297,42.1854634 44.3686888,42.2472535 44.4598292,42.3461177 C44.4999928,42.2395298 44.5432458,42.1220668 44.5818646,42.0031827 C44.6034912,41.9367583 44.6235729,41.8702722 44.64211,41.8069992 L44.64211,41.8069992 L42.9907699,41.8069992 L43.0865446,42.0139959 L43.2950861,42.4696978 L42.840929,42.6797841 L42.136522,43.0026373 L41.0088529,43.0026373 C40.9393391,42.9161312 40.896086,42.806392 40.896086,42.6875079 C40.896086,42.4109973 41.1216198,42.1854634 41.3981305,42.1854634 C41.6344775,42.1854634 41.8306611,42.3492072 41.8831826,42.568562 L41.8831826,42.568562 L42.4655542,42.3013198 L42.4655542,41.6077261 L37.9687807,43.0026373 L36.9430653,43.0026373 C36.8735514,42.9161312 36.8302983,42.806392 36.8302983,42.6875079 C36.8302983,42.4109973 37.0542874,42.1854634 37.3323428,42.1854634 C37.5532424,42.1854634 37.7401574,42.3291254 37.8065817,42.5299432 L37.8065817,42.5299432 L38.6392031,42.2704248 L36.8735514,40.8616108 L36.8735514,39.9937691 C36.9585128,39.9225869 37.0697349,39.8809404 37.1902256,39.8809404 C37.4667362,39.8809404 37.6907253,40.1033847 37.6907253,40.3798953 C37.6907253,40.525102 37.63048,40.654923 37.5331606,40.7460016 L37.5331606,40.7460016 L38.6932694,41.6713081 L38.6932694,40.6023396 L37.9718702,39.8809404 L40.8250274,39.8809404 Z M24.14555,40.8939394 L24.2830329,41.4392369 L20.6065228,42.3660882 L20.4690399,41.819246 L24.1053865,40.9047527 L24.14555,40.8939394 Z M31.695384,37.8244551 C31.5517221,37.893969 31.4018811,37.9542761 31.2474059,38.0051911 L31.2474059,38.0051911 L33.0748477,41.7048725 L33.1937936,40.8598931 Z M48.1312404,38.9651619 L51.8865329,39.4934671 L51.7351472,40.5670699 C51.6409173,41.2405818 51.1604994,41.5990261 50.4854427,41.5047344 C50.171858,41.4614814 49.9231529,41.3255432 49.7624987,41.1108226 C49.6281052,40.9331761 49.5601362,40.7107318 49.5601362,40.4465792 C49.5601362,40.3662521 49.5663152,40.2843184 49.5786732,40.1994189 C49.5786732,40.1994189 49.634346,39.8147756 49.642008,39.7468065 C49.5647704,39.7344485 48.0540028,39.5212727 48.0540028,39.5212727 L48.0540028,39.5212727 L48.1265444,39.0053254 L48.1312404,38.9651619 Z M39.8966314,40.7607694 L38.9002662,40.7607694 L39.3992212,41.2581796 L39.8966314,40.7607694 Z M50.1981188,39.8240441 C50.1811265,39.9460795 50.1270602,40.3199095 50.1270602,40.3199095 C50.1223641,40.3569836 50.1208812,40.3940576 50.1208812,40.4280422 C50.1208812,40.7076423 50.2892592,40.8930126 50.5858516,40.9362656 C50.7434163,40.9594369 51.1126121,40.9594369 51.1790364,40.4882875 C51.1790364,40.4882875 51.2408883,40.0417923 51.2516398,39.9723403 C51.1790364,39.961527 50.2722669,39.8326947 50.1981188,39.8240441 Z M21.9436764,39.5167743 C22.1012411,39.4951478 22.257261,39.5367943 22.3854755,39.6341755 C22.5121452,39.7314949 22.594017,39.8689778 22.6156435,40.0280873 C22.6588966,40.35403 22.4302733,40.6553185 22.1058753,40.7000545 C21.9467659,40.7201363 21.7922906,40.678428 21.6640762,40.5826533 C21.5374065,40.4853339 21.4539899,40.3463062 21.4323634,40.1887415 C21.4122816,40.0327216 21.4524452,39.8751568 21.5497646,39.7469424 C21.6470839,39.6202109 21.7876564,39.5367943 21.9436764,39.5167743 Z M32.375075,37.3965588 C32.2468605,37.4985124 32.1140119,37.5911975 31.9734394,37.6746141 L31.9734394,37.6746141 L33.2710312,40.3006928 L33.3899771,39.4541686 Z M37.1902256,36.2744384 C37.4667362,36.2744384 37.6907253,36.4984275 37.6907253,36.7749381 C37.6907253,36.9186001 37.63048,37.0482975 37.5316158,37.1394996 L37.5316158,37.1394996 L38.6932694,38.0648062 L38.6932694,36.9973824 L37.9718702,36.2759832 L40.8250274,36.2759832 L40.1005386,36.9989272 L40.1005386,37.585933 L44.3532413,37.585933 C44.4938138,37.585933 44.6081254,37.4716214 44.6081254,37.3325937 C44.6081254,37.1904765 44.4938138,37.0761648 44.3532413,37.0761648 L44.3532413,37.0761648 L40.6535599,37.0761648 L41.3085348,36.4196451 C41.3981305,36.3315943 41.5201659,36.2759832 41.6561041,36.2759832 C41.9218014,36.2759832 42.1381285,36.4876142 42.1457905,36.7533116 L42.1457905,36.7533116 L44.3532413,36.7533116 C44.673005,36.7533116 44.9325234,37.01283 44.9325234,37.3325937 C44.9325234,37.423734 44.9093521,37.510302 44.872278,37.585933 L44.872278,37.585933 L44.872278,37.5868599 L45.4608286,37.5868599 L45.4608286,39.3988541 L44.9680527,39.3988541 C44.9680527,39.3989777 44.960298,39.3990889 44.9463396,39.399189 L44.5803199,39.3999355 C44.5415466,39.3999664 44.5027733,39.3999911 44.465551,39.4000109 L44.1925871,39.4000899 C44.1199837,39.3135838 44.0782754,39.2023617 44.0782754,39.081871 C44.0782754,38.8069051 44.3007197,38.5829161 44.5787751,38.5829161 C44.7317056,38.5829161 44.8691885,38.6493404 44.9618737,38.757473 L44.9618737,38.757473 L44.9618737,38.2013623 L42.9768672,38.2013623 L43.2796386,38.4855967 L43.6982664,38.8779637 L43.1483346,39.0494312 L42.0237551,39.3985452 L41.7533369,39.3988801 C41.7393786,39.3989802 41.7192165,39.3990692 41.6944016,39.3991483 L40.9995844,39.399781 C40.9285258,39.3132749 40.8852727,39.2020527 40.8852727,39.081562 C40.8852727,38.8065962 41.1108066,38.5826071 41.3873172,38.5826071 C41.6082167,38.5826071 41.7966765,38.7247243 41.8631009,38.9239973 L41.8631009,38.9239973 L42.4655542,38.7370823 L42.4655542,38.0017803 L37.9687807,39.3982362 L37.6380248,39.3988393 C37.6132514,39.3989184 37.5838312,39.3989876 37.5513105,39.3990482 L36.9430653,39.399472 C36.8735514,39.3129659 36.8302983,39.2017438 36.8302983,39.0812531 C36.8302983,38.8062872 37.0542874,38.5822982 37.3323428,38.5822982 C37.5532424,38.5822982 37.7401574,38.7244154 37.8065817,38.9236884 L37.8065817,38.9236884 L38.6392031,38.66417 L36.8735514,37.2569008 L36.8735514,36.3887501 C36.9585128,36.3176915 37.0697349,36.2744384 37.1902256,36.2744384 Z M22.859854,37.0505343 C23.1641702,37.0536238 23.4391361,37.1633012 23.6306854,37.35794 C23.8067871,37.5371312 23.899534,37.7765678 23.897948,38.0376309 C23.8932932,38.4052819 23.7789816,38.7095981 23.5349107,38.9938325 L23.5349107,38.9938325 L23.5225527,39.00928 L22.6976551,39.0018652 L22.8057877,38.9262341 C23.1487227,38.6898871 23.3310034,38.3994736 23.3340929,38.0843442 C23.3371824,37.929869 23.2908399,37.7985651 23.1981548,37.7058799 C23.1224619,37.6286423 23.015874,37.5792103 22.9154651,37.5792103 C22.5802539,37.5761208 22.3717124,37.8773474 22.1523575,38.1986559 C21.8912944,38.5802714 21.5962468,39.0081678 21.0293227,39.0019888 C20.7265513,39.000444 20.4716672,38.9000351 20.2909312,38.7146649 C20.1040162,38.5246604 20.0066968,38.2543287 20.0097863,37.9376545 C20.0128758,37.6735019 20.1086505,37.4093493 20.2862969,37.1730022 L20.2862969,37.1730022 L20.298655,37.1559482 L21.027778,37.163363 L20.9520851,37.232815 C20.7018353,37.4660726 20.5736208,37.719412 20.5705313,37.9835646 C20.5689866,38.1395845 20.6168739,38.2755227 20.7049248,38.3651184 C20.7728939,38.434694 20.8624895,38.4720152 20.9644431,38.473251 C21.2533118,38.4763405 21.420145,38.2152774 21.6147838,37.912506 C21.8773917,37.5046914 22.1739841,37.0431195 22.859854,37.0505343 Z M32.9265515,37.1447642 C32.8215083,37.1447642 32.7226442,37.1665143 32.6330486,37.2112503 L32.6330486,37.2112503 L33.4672147,38.8981196 L33.6170557,37.8337236 C33.6664878,37.4846096 33.3065605,37.1447642 32.9265515,37.1447642 Z M50.0637241,37.425217 C50.2212888,37.4236723 50.3726745,37.4838558 50.4869862,37.5966845 C50.6012979,37.7079066 50.6662392,37.8562029 50.6677222,38.0153123 C50.6677222,38.172877 50.6090216,38.3242628 50.4977995,38.4385744 C50.3850326,38.5528243 50.2367364,38.6168388 50.0776269,38.6193104 C49.9200622,38.6208552 49.7702212,38.5606098 49.6543648,38.4493877 C49.5400531,38.3366208 49.4767183,38.1883246 49.4736288,38.0292151 C49.4705393,37.7001829 49.7362367,37.4301602 50.0637241,37.425217 Z M39.8966314,37.1534642 L38.9002662,37.1534642 L39.3992212,37.6524191 L39.8966314,37.1534642 Z M51.5214968,34.3653472 L51.6188162,35.0234116 C51.6188162,35.0234116 51.3951018,35.2299825 51.1479954,35.4580111 L50.9351336,35.6544016 C50.7258877,35.8474121 50.5415061,36.0173299 50.5081394,36.0475823 C50.6070036,36.0985591 51.8675213,36.722639 51.8675213,36.722639 L51.8675213,36.722639 L51.9632959,37.3807034 C51.9632959,37.3807034 51.5794346,37.1909087 51.1507521,36.9789407 L50.8261338,36.8184264 C50.3962307,36.6058481 50.0062666,36.413002 49.9952817,36.4075096 C49.9705657,36.4105991 48.0319017,36.6948335 48.0319017,36.6948335 L48.0319017,36.6948335 L47.9515746,36.1479294 C47.9515746,36.1479294 49.8948728,35.8630771 49.9226784,35.8606055 C49.9412154,35.8420685 51.464341,34.4193518 51.464341,34.4193518 L51.464341,34.4193518 L51.5214968,34.3653472 Z M20.4712001,34.3594772 C20.7260842,33.326038 21.705457,32.771472 22.7991416,33.0418036 C23.3367153,33.1731075 23.7939619,33.4990502 24.0565698,33.9331256 C24.3006407,34.3378506 24.3655202,34.8105448 24.2450296,35.3002312 C24.1276284,35.7760149 23.8542073,36.1544792 23.4525717,36.3970053 C23.0154069,36.6610961 22.4562066,36.7368507 21.9201776,36.604002 C21.3841486,36.4726981 20.9284467,36.1467554 20.6642941,35.7126801 C20.4990056,35.4377142 20.4140442,35.133398 20.4140442,34.8167238 C20.4140442,34.6684276 20.434126,34.5139524 20.4712001,34.3594772 Z M22.6601139,33.6025486 C22.2677468,33.5052292 21.8831035,33.5546613 21.5772426,33.7400316 C21.3022767,33.90532 21.107638,34.1756517 21.0273108,34.4969601 C20.8527539,35.2029118 21.2868292,35.8532525 22.0592053,36.0448018 C22.8176786,36.2317168 23.5189961,35.8486182 23.6904636,35.1534798 C23.7707907,34.8321713 23.7213586,34.5046839 23.5560701,34.229718 C23.3691551,33.9223123 23.0524809,33.6983233 22.6601139,33.6025486 Z M46.2351066,24.0812278 L36.2158441,24.0812278 L36.2158441,35.2327935 L46.2520989,35.2327935 L46.2490094,32.8399725 L46.2351066,24.0812278 Z M35.7663213,24.0812278 L25.7609616,24.0812278 L25.7485418,32.8399725 L25.7439693,35.2327935 L35.7663213,35.2327935 L35.7663213,24.0812278 Z M45.1260845,24.4597168 C45.2637425,24.4597168 45.377169,24.5717871 45.3793907,24.7104537 L45.3837368,24.7106463 L45.8147227,24.463486 L45.8703338,24.5221865 L45.6291561,24.9640495 C45.7692527,24.9646107 45.883002,25.0787053 45.883002,25.2189315 C45.883002,25.359504 45.7686903,25.4738156 45.6281179,25.4738156 C45.6003123,25.4738156 45.5755963,25.4672659 45.5508802,25.4598511 L45.5508802,25.4598511 L45.5508802,25.422777 C45.577141,25.402757 45.5987676,25.3702555 45.5987676,25.3331814 C45.5987676,25.2713913 45.5477907,25.2204763 45.4875454,25.2204763 C45.4242106,25.2204763 45.3732337,25.2713913 45.3732337,25.3331814 L45.376,25.315 L45.375,29.468 L45.6370873,29.3546409 L45.6371491,30.0096776 L45.374,29.895 L45.373,34.059 L45.3781579,34.0844982 C45.3953915,34.1249205 45.4356516,34.1536297 45.4819942,34.1536297 C45.545329,34.1536297 45.5932163,34.1027146 45.5932163,34.040801 C45.5932163,34.0037269 45.5746793,33.9713489 45.5468738,33.9512054 L45.5468738,33.9141313 C45.5715898,33.9067165 45.5963058,33.9001667 45.6256561,33.9001667 C45.7646838,33.9001667 45.8805402,34.0144784 45.8805402,34.1550509 C45.8805402,34.2949308 45.7658225,34.4088081 45.627709,34.4099266 L45.867615,34.8516105 L45.8089144,34.9103111 L45.3810181,34.661606 C45.3744191,34.8007685 45.2605494,34.9139567 45.1222066,34.9139567 C44.9816341,34.9139567 44.8657777,34.799645 44.8657777,34.6590726 C44.8657777,34.631267 44.8719567,34.605068 44.8781357,34.581835 L44.8781357,34.581835 L44.9167545,34.581835 C44.9368363,34.6096405 44.9692761,34.6281775 45.0063502,34.6281775 C45.0681403,34.6281775 45.1175723,34.5786219 45.1175723,34.5153488 C45.1175723,34.4550417 45.0681403,34.4041267 45.0063502,34.4041267 L45.02,34.407 L41.416,34.407 L41.5291291,34.6687613 L41.2000969,34.6687613 L41.2000969,34.6693174 L40.8741542,34.6693174 L40.988,34.407 L37.375,34.407 L37.3465748,34.4130245 C37.3061699,34.4301712 37.2774954,34.4701185 37.2774954,34.5153488 C37.2774954,34.5786219 37.3284723,34.6281775 37.3902624,34.6281775 C37.4257917,34.6281775 37.4582314,34.6096405 37.479858,34.581835 L37.5153873,34.581835 C37.5246558,34.605068 37.5308348,34.631267 37.5308348,34.6590726 C37.5308348,34.799645 37.4149784,34.9139567 37.2744059,34.9139567 C37.1360631,34.9139567 37.0221934,34.8007685 37.0210749,34.6611481 L37.0157786,34.661606 L36.5847927,34.9103111 L36.5276369,34.8516105 L36.7692348,34.4099269 C36.6295834,34.4088272 36.5148464,34.2949426 36.5148464,34.1550509 C36.5148464,34.0144784 36.6307028,33.9001667 36.7712752,33.9001667 C36.797536,33.9001667 36.8253415,33.9067165 36.8485128,33.9141313 L36.8485128,33.9141313 L36.8485128,33.9512054 C36.8207073,33.9713489 36.8021703,34.0037269 36.8021703,34.040801 C36.8021703,34.1027146 36.8500576,34.1536297 36.9133924,34.1536297 C36.9751825,34.1536297 37.0261593,34.1025911 37.0261593,34.040801 L37.021,34.063 L37.021,29.898 L36.7651716,30.0096776 L36.7651098,29.3546409 L37.021,29.466 L37.021,25.309 L37.0172287,25.2895035 C36.9999951,25.249116 36.959735,25.2204763 36.9133924,25.2204763 C36.8500576,25.2204763 36.8021703,25.2713913 36.8021703,25.3331814 C36.8021703,25.3702555 36.8207073,25.402757 36.8485128,25.422777 L36.8485128,25.4598511 C36.8253415,25.4672659 36.797536,25.4738156 36.7712752,25.4738156 C36.6307028,25.4738156 36.5148464,25.359504 36.5148464,25.2189315 C36.5148464,25.0793802 36.6290257,24.9657095 36.7682158,24.9640655 L36.5276369,24.5221865 L36.5847927,24.463486 L37.0157786,24.7106463 C37.0233214,24.5717871 37.136748,24.4597168 37.2744059,24.4597168 C37.4149784,24.4597168 37.5308348,24.5740284 37.5308348,24.7146009 C37.5308348,24.7409234 37.5246558,24.7686054 37.5153873,24.7918385 L37.5153873,24.7918385 L37.479858,24.7918385 C37.4582314,24.7640329 37.4257917,24.7454959 37.3902624,24.7454959 C37.3284723,24.7454959 37.2774954,24.794928 37.2774954,24.8567181 C37.2774954,24.9186317 37.3284723,24.9695468 37.3902624,24.9695468 L37.38,24.967 L40.985,24.967 L40.873823,24.7088173 L41.2028552,24.7088173 L41.2028552,24.7094352 L41.5287979,24.7094352 L41.417,24.966 L45.023,24.966 L45.0530226,24.9606239 C45.0936447,24.9434018 45.1214503,24.9031533 45.1214503,24.8567181 C45.1214503,24.794928 45.0720182,24.7454959 45.0086834,24.7454959 C44.9731541,24.7454959 44.9407143,24.7640329 44.9190877,24.7918385 L44.8820137,24.7918385 C44.8742281,24.7686054 44.8696557,24.7409234 44.8696557,24.7146009 C44.8696557,24.5740284 44.9839673,24.4597168 45.1260845,24.4597168 Z M49.3404699,33.6661059 C49.4934004,33.6228528 49.6540546,33.6413899 49.7961718,33.7170209 C49.9351995,33.7942585 50.0371531,33.9193835 50.081951,34.0723139 C50.1746361,34.3889881 49.9923553,34.721048 49.6756811,34.8122502 L49.6756811,34.8122502 L49.5804734,34.8320107 C49.2950079,34.8672125 49.0179257,34.6912034 48.9372896,34.4075869 C48.8924918,34.2546565 48.9094841,34.0940022 48.9867217,33.9534298 C49.0624145,33.8128574 49.190629,33.7108419 49.3404699,33.6661059 Z M26.7422784,31.5800232 C27.018789,31.5800232 27.2427781,31.805557 27.2427781,32.0820676 C27.2427781,32.2257296 27.180988,32.3555505 27.0836686,32.4466291 L27.0836686,32.4466291 L28.2453222,33.3719357 L28.2453222,32.3029672 L27.523923,31.5815679 L30.3755354,31.5815679 L29.6525914,32.3045119 L29.6525914,32.8915177 L32.3775342,32.8915177 L32.3775342,32.8927535 L33.9052941,32.8927535 C34.0458665,32.8927535 34.1586334,32.7768971 34.1586334,32.6363247 C34.1586334,32.495814 34.0458665,32.3829853 33.9052941,32.3829853 L33.9052941,32.3829853 L30.9845941,32.3820165 C30.9537578,32.3819646 30.9259244,32.3819176 30.9025184,32.3818781 L30.8266031,32.3817495 L30.8266031,32.3805137 L30.2056127,32.3805137 L30.8605876,31.7255388 C30.9486385,31.6358814 31.0722186,31.5818769 31.2066121,31.5818769 C31.4723095,31.5818769 31.6900577,31.7950527 31.6978433,32.0592053 L31.6978433,32.0592053 L33.9052941,32.0592053 C34.2250578,32.0592053 34.4830314,32.3187236 34.4830314,32.6369426 C34.4830314,32.7296277 34.4614049,32.8161338 34.4243308,32.8933714 L34.4243308,32.8933714 L35.0128814,32.8933714 L35.0128814,34.703821 L34.5185607,34.703821 L33.7415504,34.7050568 C33.6720365,34.6200954 33.6287835,34.5088115 33.6287835,34.3868378 C33.6287835,34.1103272 33.8543173,33.8863381 34.1308279,33.8863381 C34.2837584,33.8863381 34.4196966,33.955852 34.5123817,34.0639846 L34.5123817,34.0639846 L34.5123817,33.5047843 L32.5304647,33.5047843 L32.8301466,33.7905635 L33.2487744,34.1844753 L32.7003874,34.354398 L31.5742631,34.7050568 L31.3178342,34.703821 C31.3101105,34.7039445 31.2962541,34.7040558 31.2775687,34.7041559 L30.7980931,34.7049777 C30.7637131,34.7049974 30.7310231,34.7050123 30.7013267,34.7050234 L30.5500924,34.7050568 C30.4805786,34.6200954 30.4388703,34.5088115 30.4388703,34.3868378 C30.4388703,34.1103272 30.6628593,33.8863381 30.93937,33.8863381 C31.1587248,33.8863381 31.3471845,34.0300001 31.4151536,34.2292731 L31.4151536,34.2292731 L32.017607,34.0408133 L32.017607,33.3086008 L27.5192887,34.7050568 L27.2644046,34.703821 C27.2563719,34.7039445 27.2422683,34.7040558 27.2233883,34.7041559 L26.7437737,34.7049777 C26.7094926,34.7049974 26.6769075,34.7050123 26.6473132,34.7050234 L26.4966628,34.7050568 C26.4240594,34.6200954 26.3823511,34.5088115 26.3823511,34.3868378 C26.3823511,34.1103272 26.6078849,33.8863381 26.8828508,33.8863381 C27.1037504,33.8863381 27.2922101,34.0300001 27.3570897,34.2292731 L27.3570897,34.2292731 L28.1928006,33.9712995 L26.4240594,32.5609408 L26.4240594,31.6943348 C26.5105655,31.6216697 26.620243,31.5800232 26.7422784,31.5800232 Z M45.1251478,25.2208965 L37.2747174,25.2208965 L37.274,29.659 L37.2764846,29.6588952 L37.274,29.66 L37.2747174,34.1572877 L45.1251478,34.1572877 L45.1251478,25.2208965 Z M44.8149653,25.5401782 L44.8149653,33.837042 L37.58707,33.837042 L37.58707,25.5401782 L44.8149653,25.5401782 Z M40.7567304,25.7861497 L38.0783011,25.7873385 L38.0783011,26.0329541 L37.8326855,26.0329541 L37.832,29.33 L37.835,29.33 L37.833149,29.3162198 L37.833149,29.2358927 C37.8346937,29.2790222 37.870223,29.3146132 37.9134761,29.3146132 C37.9598186,29.3146132 37.9953479,29.2775392 37.9953479,29.2328032 C37.9953479,29.2064806 37.9814452,29.1864606 37.9644529,29.172496 L37.9644529,29.172496 L37.9644529,29.1718781 L38.001527,29.1333211 C38.0076442,29.1333211 38.0123402,29.1308495 38.0154297,29.1308495 C38.1204729,29.1308495 38.2038895,29.2142661 38.2038895,29.3162198 C38.2038895,29.41978 38.1204729,29.50159 38.0154297,29.50159 L38.031,29.499 L38.031,29.505 L38.3206592,29.6420513 L38.3206592,29.7331916 L38.031,29.866 L38.031,29.873 L38.0753661,29.8809995 C38.1505029,29.905235 38.2038895,29.9739753 38.2038895,30.0554887 C38.2038895,30.1574424 38.1204729,30.240859 38.0154297,30.240859 C38.0123402,30.240859 38.0076442,30.2396232 38.001527,30.2371516 L37.9644529,30.2000775 C37.9814452,30.1852479 37.9953479,30.1651043 37.9953479,30.1389053 C37.9953479,30.0941693 37.9598186,30.0570953 37.9134761,30.0570953 C37.870223,30.0570953 37.8346937,30.0926864 37.833149,30.1358158 L37.833,30.053 L37.832,30.053 L37.8326855,33.3442661 L38.0783011,33.3442661 L38.0783011,33.5898817 L40.7589998,33.5907967 C40.7974531,33.5830832 40.8274829,33.5485409 40.8274829,33.508776 C40.8274829,33.4655229 40.7904089,33.4284489 40.7456111,33.4284489 C40.7193503,33.4284489 40.6992685,33.4422899 40.683821,33.4593439 L40.6837592,33.4592203 L40.6451404,33.4206633 L40.6451404,33.4206633 L40.6436574,33.4068223 C40.6436574,33.3033857 40.7270741,33.2214521 40.8274829,33.2214521 C40.9309813,33.2214521 41.0128532,33.3032622 41.0128532,33.4068223 L41.01,33.394 L41.016,33.394 L41.1509516,33.1022219 L41.242092,33.1022219 L41.377,33.394 L41.384,33.394 L41.3917043,33.3477767 C41.4163215,33.2738105 41.4860207,33.2214521 41.5675836,33.2214521 C41.671082,33.2214521 41.7529538,33.3033857 41.7529538,33.4068223 C41.7529538,33.4117655 41.7514709,33.415473 41.7514709,33.4206633 L41.7128521,33.4592203 C41.6973428,33.4422899 41.677261,33.4284489 41.6510002,33.4284489 C41.6062024,33.4284489 41.5691283,33.4655229 41.5691283,33.508776 C41.5691283,33.5484246 41.5989828,33.5828812 41.6360846,33.5907283 L44.3206446,33.5898817 L44.3206446,33.3442661 L44.5678049,33.3442661 L44.568588,30.1262508 C44.5625804,30.0875479 44.5291799,30.0570953 44.4891709,30.0570953 C44.4428283,30.0570953 44.4057542,30.0941693 44.4057542,30.1389053 C44.4057542,30.1651043 44.4212018,30.1852479 44.438194,30.2006954 L44.438194,30.2000775 L44.3995752,30.2371516 C44.394941,30.2396232 44.3902449,30.240859 44.3856725,30.240859 C44.2821741,30.240859 44.2003022,30.1574424 44.2003022,30.0554887 C44.2003022,29.9535969 44.2821741,29.8716632 44.3856725,29.8716632 L44.368,29.874 L44.368,29.865 L44.0804319,29.7331916 L44.0804319,29.6420513 L44.368,29.507 L44.368,29.498 L44.3266506,29.4922533 C44.2527002,29.467996 44.2003022,29.3990679 44.2003022,29.3162198 C44.2003022,29.2142661 44.2821741,29.1308495 44.3856725,29.1308495 C44.3902449,29.1308495 44.394941,29.1333211 44.3995752,29.1333211 L44.438194,29.1718781 L44.438194,29.172496 C44.4212018,29.1864606 44.4057542,29.2064806 44.4057542,29.2328032 C44.4057542,29.2775392 44.4428283,29.3146132 44.4891709,29.3146132 C44.5292846,29.3146132 44.562755,29.2840011 44.5686346,29.2451539 L44.5678049,26.0329541 L44.3206446,26.0329541 L44.3206446,25.7873385 L41.6382954,25.7860817 C41.600387,25.7918104 41.5695893,25.8253318 41.5695893,25.8656019 C41.5695893,25.9104615 41.6066633,25.9475355 41.6499164,25.9475355 C41.6761772,25.9475355 41.6978037,25.9351775 41.7117065,25.9166405 L41.7117065,25.9166405 L41.7117065,25.9170112 L41.7503253,25.9555682 C41.7503253,25.9607586 41.7534148,25.964466 41.7534148,25.9694092 C41.7534148,26.0728458 41.6699982,26.1547795 41.5680445,26.1547795 C41.4645461,26.1547795 41.3826743,26.0729694 41.3826743,25.9694092 L41.382,25.973 L41.3831439,25.9721156 L41.382,25.972 L41.382,25.973 L41.2456609,26.2733423 L41.1545206,26.2733423 L41.0124034,25.9721156 L41.382,25.972 L41.382,25.971 L41.012,25.971 L41.0035105,26.0284548 C40.9792394,26.102421 40.9102817,26.1547795 40.8274829,26.1547795 C40.7255293,26.1547795 40.6421127,26.0728458 40.6421127,25.9694092 C40.6421127,25.964466 40.6452022,25.9607586 40.6452022,25.9555682 L40.683821,25.9170112 L40.683821,25.9166405 C40.6977238,25.9351775 40.7193503,25.9475355 40.7440663,25.9475355 C40.7904089,25.9475355 40.8259382,25.9104615 40.8259382,25.8656019 C40.8259382,25.8254881 40.7967079,25.7920708 40.7567304,25.7861497 Z M43.1593617,26.4109859 L42.7160178,26.8496955 L43.0759451,27.2111675 L43.0759451,28.0777735 L42.0548639,29.040154 L42.0548639,29.8526937 C42.2649502,30.1400176 42.6804885,30.7069416 42.6804885,30.7069416 C42.7206521,30.7610697 42.7778079,30.7971551 42.8442323,30.8058057 C42.9106566,30.8166808 42.9770809,30.7996267 43.0311473,30.7610697 C43.0836688,30.7209062 43.1192599,30.6638121 43.1300114,30.597326 C43.1423694,30.5309017 43.1253772,30.4644155 43.0836688,30.410411 C43.0836688,30.410411 42.6604068,29.8221694 42.6604068,29.8234052 C42.4889393,29.5870581 42.5352818,29.2503021 42.7685394,29.0402158 L42.7685394,29.0402158 L43.4992072,28.3558906 C43.5362194,28.3216589 43.5609355,28.3000324 43.5609355,28.3000324 L43.5609355,28.3000324 L43.564025,28.3000324 L43.951696,27.9338643 L43.956392,28.7633962 L43.9549091,28.7621604 C43.9502748,28.8792527 43.9039322,28.9919578 43.8112471,29.0800704 C43.6366901,29.2438142 43.3648137,29.2422694 43.1918015,29.0800704 C43.0759451,29.1898096 42.9862877,29.2734734 42.9848047,29.2747092 C42.8874853,29.3612153 42.8318742,29.5172971 42.9183804,29.6361812 C42.9183804,29.6361812 43.3431254,30.223187 43.3416425,30.223187 C43.4312381,30.3436777 43.4683121,30.4950634 43.4466856,30.6449044 C43.4235143,30.7947453 43.3416425,30.9276558 43.2180623,31.0187344 C43.0960269,31.10833 42.9446411,31.1439211 42.7948002,31.120688 C42.6604068,31.1006062 42.5399161,31.0310924 42.4503205,30.9291388 L42.4503205,30.9291388 L42.9322831,31.5841137 L43.9132007,31.5841137 L43.9132007,33.1211421 L42.4395072,33.1199063 C42.3545458,33.0303106 42.3004795,32.90982 42.3004795,32.7754265 C42.3004795,32.722905 42.309748,32.6734729 42.322106,32.6271303 C42.3869856,32.4278573 42.5739006,32.2841953 42.7932554,32.2841953 C43.0126102,32.2841953 43.1995253,32.4278573 43.2628601,32.6271303 L43.2628601,32.6271303 L43.4188801,32.6271303 L43.4188801,32.0771986 L42.2711292,32.0771986 L41.9081125,31.5844226 L41.6269676,31.1997793 L40.8298755,31.1997793 L41.1079308,31.5844226 L41.4663133,32.0771986 L39.0271497,32.0771986 C38.9406436,31.9876029 38.8865773,31.8671123 38.8865773,31.7311741 C38.8865773,31.6801973 38.8958458,31.6307652 38.9097485,31.5844226 C38.9730834,31.3836048 39.1615431,31.2399429 39.3793532,31.2399429 C39.598708,31.2399429 39.785623,31.3836048 39.8489578,31.5844226 L39.8489578,31.5844226 L40.5363725,31.5844226 L40.2583172,31.1997793 L39.7439147,30.4907381 L39.7439147,30.473684 L41.0940281,30.473684 L40.7495483,30.0087136 L38.7614523,30.0087136 C38.6903937,29.925297 38.6486854,29.8155578 38.6486854,29.6966737 C38.6486854,29.6317323 38.6610434,29.5715488 38.6842147,29.5159377 C38.7552733,29.3336569 38.9329198,29.2038978 39.1414614,29.2038978 C39.3484581,29.2038978 39.5276494,29.3336569 39.598708,29.5159377 L39.598708,29.5159377 L40.4297847,29.5159377 L40.8839418,29.0617806 L40.0605889,29.0617806 L39.6975721,28.5690046 L38.9931652,27.6143478 C38.9808071,27.6050793 38.9683873,27.5986531 38.9576359,27.5912383 L38.9576359,27.5912383 L38.9576359,26.7848159 C39.0364182,26.7292048 39.1337376,26.6952203 39.2403255,26.6952203 C39.5122019,26.6952203 39.7331014,26.9161198 39.7331014,27.1864515 C39.7331014,27.3362924 39.6682218,27.4675346 39.5631787,27.5587367 L39.5631787,27.5587367 L40.309294,28.5690046 L40.9210158,28.5690046 L40.9210158,27.9819988 C40.9781717,28.0143768 41.0461408,28.0360034 41.1141099,28.0360034 C41.3272856,28.0360034 41.5002979,27.8629911 41.5002979,27.6513601 C41.5002979,27.439729 41.3272856,27.2667168 41.1141099,27.2667168 C41.0461408,27.2667168 40.9781717,27.2868604 40.9210158,27.3208449 L40.9210158,27.3208449 L40.9210158,26.840427 L41.3550912,26.4109859 L43.1593617,26.4109859 Z M29.4471394,32.4608408 L28.452319,32.4608408 L28.9497292,32.958251 L29.4471394,32.4608408 Z M26.7422784,28.1044915 C27.018789,28.1044915 27.2427781,28.3269358 27.2427781,28.6049912 C27.2427781,28.7486531 27.180988,28.8783505 27.0836686,28.9695527 L27.0836686,28.9695527 L28.2453222,29.8948592 L28.2453222,28.8258907 L27.523923,28.1060362 L30.3755354,28.1060362 L29.6525914,28.8289802 L29.6525914,29.4159861 L33.9052941,29.4159861 L33.9635893,29.4092441 C34.0757843,29.3827897 34.1586334,29.2815926 34.1586334,29.161102 C34.1586334,29.0205295 34.0458665,28.9062178 33.9052941,28.9062178 L33.9052941,28.9062178 L30.8266031,28.9062178 L30.8266031,28.9062178 L30.8266031,28.904982 L30.2056127,28.904982 L30.8605876,28.2500071 C30.9486385,28.1603497 31.0722186,28.1063452 31.2066121,28.1063452 C31.4723095,28.1063452 31.6900577,28.3179762 31.6978433,28.5821288 L31.6978433,28.5821288 L33.9052941,28.5821288 C34.2250578,28.5821288 34.4830314,28.8416472 34.4830314,29.1614109 C34.4830314,29.2525513 34.4614049,29.3390574 34.4243308,29.416295 L34.4243308,29.4160478 L35.0128814,29.4160478 L35.0128814,31.2280421 L33.7415504,31.2280421 C33.6720365,31.141536 33.6287835,31.0303138 33.6287835,30.9098232 C33.6287835,30.6348573 33.8543173,30.4093235 34.1308279,30.4093235 C34.2837584,30.4093235 34.4196966,30.4788373 34.5123817,30.58697 L34.5123817,30.58697 L34.5123817,30.0293145 L32.5304647,30.0293145 L32.8301466,30.3135488 L33.2487744,30.7074606 L32.7003874,30.8804729 L31.5742631,31.2280421 L30.5500924,31.2280421 C30.4805786,31.141536 30.4388703,31.0303138 30.4388703,30.9098232 C30.4388703,30.6348573 30.6628593,30.4093235 30.93937,30.4093235 C31.1618143,30.4093235 31.3487293,30.5545302 31.4151536,30.7538032 L31.4151536,30.7538032 L32.017607,30.5668882 L32.017607,29.8315862 L27.5192887,31.2280421 L26.4966628,31.2280421 C26.4240594,31.141536 26.3823511,31.0303138 26.3823511,30.9098232 C26.3823511,30.6348573 26.6078849,30.4093235 26.8828508,30.4093235 C27.1052951,30.4093235 27.2922101,30.5545302 27.3570897,30.7538032 L27.3570897,30.7538032 L28.1928006,30.4942848 L26.4240594,29.0854709 L26.4240594,28.2173202 C26.5105655,28.146138 26.620243,28.1044915 26.7422784,28.1044915 Z M48.4057305,29.8307335 C48.2311735,29.8724418 47.2796062,30.1087271 47.1822868,30.1319601 C47.2363531,30.213832 47.6240859,30.7899628 47.6812418,30.8749859 C47.7399423,30.7884798 48.3037769,29.9759402 48.4057305,29.8307335 Z M29.4471394,28.9837644 L28.452319,28.9837644 L28.9497292,29.4811746 L29.4471394,28.9837644 Z M30.3754736,24.6281442 L29.6525296,25.3526329 L29.6525296,25.938094 L32.3774724,25.938094 L32.3774724,25.9393298 L33.9052323,25.9393298 C34.0458047,25.938094 34.1585717,25.8237823 34.1585717,25.6847546 C34.1585717,25.5426992 34.0458047,25.4298705 33.9052323,25.4298705 L33.9052323,25.4298705 L31.1024522,25.4291501 C31.0650561,25.4290823 31.0291136,25.4290162 30.9962351,25.4289551 L30.8265413,25.4286347 L30.8265413,25.4286347 L30.8250583,25.4273989 L30.2056127,25.4273989 L30.8605876,24.772424 C30.9486385,24.6843732 31.0722186,24.6287621 31.2066121,24.6287621 C31.4723095,24.6287621 31.6900577,24.8403931 31.6978433,25.1060905 L31.6978433,25.1060905 L33.9052941,25.1060905 C34.2250578,25.1060905 34.4830314,25.3640641 34.4830314,25.6853725 C34.4830314,25.7765129 34.4614049,25.863019 34.4243308,25.9402566 L34.424269,25.9406274 L35.0128196,25.9406274 L35.0128196,27.7510769 L34.5184989,27.7510769 L33.7414886,27.7523127 C33.6719747,27.6658066 33.6287217,27.5560674 33.6287217,27.4340938 C33.6287217,27.1575831 33.8542555,26.9335941 34.1307661,26.9335941 C34.2836966,26.9335941 34.4196348,27.0031079 34.5123199,27.1112406 L34.5123199,27.1112406 L34.5123199,26.553585 L32.5304029,26.553585 L32.8300848,26.8378194 L33.2487126,27.2317312 L32.7003256,27.401654 L31.5742013,27.750768 L31.320862,27.750768 C31.3149919,27.7508915 31.3025875,27.7510028 31.2850144,27.7511029 L30.6245618,27.7519939 C30.5785159,27.7520038 30.5500306,27.7520038 30.5500306,27.7520038 C30.4805168,27.6654976 30.4388085,27.5557584 30.4388085,27.4337848 C30.4388085,27.1572742 30.6627975,26.9332851 30.9393082,26.9332851 C31.158663,26.9332851 31.3471227,27.0784918 31.4150918,27.2777648 L31.4150918,27.2777648 L32.0175452,27.0893051 L32.0175452,26.3555478 L27.5192269,27.750459 L27.230834,27.7507939 C27.2130663,27.750894 27.1901823,27.750983 27.1635385,27.7510621 L26.496601,27.7516948 C26.4239976,27.6651887 26.3822893,27.5554495 26.3822893,27.4334759 C26.3822893,27.1569652 26.6078231,26.9329762 26.882789,26.9329762 C27.1036886,26.9329762 27.2921483,27.0781829 27.3570279,27.2774559 L27.3570279,27.2774559 L28.1927388,27.0179375 L26.4239976,25.6091236 L26.4239976,24.7409729 C26.5105038,24.6697907 26.6201812,24.6281442 26.7422166,24.6281442 C27.0187272,24.6281442 27.2427163,24.8505885 27.2427163,25.1286439 C27.2427163,25.2723058 27.1809262,25.4020032 27.0836068,25.4932054 L27.0836068,25.4932054 L28.2452604,26.4185119 L28.2452604,25.3495434 L27.5238612,24.6281442 L30.3754736,24.6281442 Z M29.4471394,25.507726 L28.452319,25.507726 L28.9497292,26.0051362 L29.4471394,25.507726 Z M35.044922,22.2136224 L35.044922,23.2609644 L37.5844945,22.7372934 L35.044922,22.2136224 Z M44.349026,22.2136224 L44.349026,23.2609644 L46.8870538,22.7372934 L44.349026,22.2136224 Z M39.7317,22.2136224 L39.7317,23.2609644 L42.2712726,22.7372934 L39.7317,22.2136224 Z M30.3596887,22.2136224 L30.3596887,23.2609644 L32.8977165,22.7372934 L30.3596887,22.2136224 Z M25.7918566,22.2136224 L25.7918566,23.2609644 L28.3298844,22.7372934 L25.7918566,22.2136224 Z M42.4792308,13.793265 C42.4684175,13.793265 41.350017,14.179453 41.1970865,14.9734556 C41.1352964,15.2993983 41.2326158,15.619162 41.4349784,15.8493301 L41.4349784,15.8493301 L41.2882269,15.9543732 C41.169281,15.6886758 40.9267549,15.4816791 40.6193492,15.4229785 C40.121939,15.3287486 39.6399764,15.6546913 39.5442017,16.1536462 C39.4669641,16.5660951 39.6785952,16.9677306 40.0369777,17.1469219 L40.0369777,17.1469219 L40.0941335,17.1067583 C40.084865,17.0557815 40.084865,17.0016534 40.0941335,16.9476488 C40.1373865,16.7066675 40.4216209,16.490464 40.7259371,16.547558 C40.9622842,16.5939006 41.4473364,17.052692 41.3160324,17.7401067 C41.0951329,18.9125736 40.1126705,19.7560083 38.9201219,19.7560083 C37.7291179,19.7560083 36.4917715,18.7658221 36.4917715,17.3183894 C38.1848198,17.3183894 38.6003582,18.112392 38.6003582,18.7673669 L38.6003582,18.7673669 L38.9216666,18.7673669 L38.9216666,14.8637782 L38.6003582,14.8637782 C38.6003582,15.5172084 38.1848198,16.3143005 36.4917715,16.3143005 C36.4917715,14.6181626 37.2857741,14.204169 37.940749,14.204169 L37.940749,14.204169 L37.940749,13.8797711 L34.0340708,13.8797711 L34.0340708,14.204169 C34.6890457,14.204169 35.4830483,14.6181626 35.4830483,16.3143005 C33.7884552,16.3143005 33.3744616,15.5172084 33.3744616,14.8637782 L33.3744616,14.8637782 L33.0516084,14.8637782 L33.0516084,18.7673669 L33.3744616,18.7673669 C33.3744616,18.112392 33.7884552,17.3183894 35.4830483,17.3183894 C35.4830483,18.7658221 34.2457019,19.7560083 33.0531532,19.7560083 C31.8606045,19.7560083 30.8812317,18.9125736 30.6572426,17.7401067 C30.5274834,17.052692 31.0109908,16.5939006 31.2488827,16.547558 C31.5531989,16.4904022 31.8374332,16.7066675 31.8806863,16.9476488 C31.8899548,17.0017152 31.8899548,17.0558433 31.8792033,17.1067583 L31.8792033,17.1067583 L31.9363592,17.1469219 C32.2962864,16.9677306 32.5079175,16.5660951 32.4291351,16.1536462 C32.3349052,15.6546913 31.8529426,15.3288104 31.3539876,15.4229785 C31.0496714,15.4816791 30.8086901,15.6855863 30.6897442,15.949739 L30.6897442,15.949739 L30.541448,15.8492683 C30.740721,15.6175555 30.8380404,15.2993365 30.7762503,14.9733938 C30.6248646,14.180936 29.5095536,13.7932032 29.4956508,13.7932032 L29.4956508,13.7932032 L29.4844338,13.8023063 C29.3799654,13.8913404 28.5946968,14.6153748 28.7371775,15.3626713 C28.7989676,15.6855245 29.0028748,15.9434982 29.2732065,16.0856154 L29.2732065,16.0856154 L29.1727976,16.2323668 C28.9658008,16.0345767 28.6692084,15.9358362 28.3648922,15.9929302 C27.8659373,16.0871601 27.5399946,16.5691228 27.6357692,17.066533 C27.7145516,17.4805265 28.0590313,17.7755742 28.4591221,17.8095588 L28.4591221,17.8095588 L28.4977409,17.7524647 C28.4683906,17.7077287 28.4483088,17.658173 28.4359508,17.6041685 C28.3896082,17.3662767 28.5734337,17.058871 28.8777499,17.0001704 C29.1171865,16.9553726 29.7489901,17.1978987 29.867936,17.8914924 C30.0255008,18.8214332 28.9194582,19.751374 27.4241381,19.751374 C26.5621664,19.751374 25.4298631,19.1535549 24.8104175,17.7107564 C26.2516713,17.089766 26.8958329,17.6165265 27.1368142,18.1726373 L27.1368142,18.1726373 L27.4117801,18.0537532 L26.6950151,16.3931446 L25.9813396,14.7309913 L25.7063738,14.8483925 C25.9473551,15.4075927 25.8840203,16.2355799 24.439677,16.8550255 C23.8186866,15.412227 24.3454471,14.7696101 24.9015579,14.5301735 L24.9015579,14.5301735 L24.782612,14.2552076 L23.0972874,14.9858754 L23.098,14.987 L23.101022,14.986654 L25.0443202,19.4973302 L26.0932069,19.9777482 L25.4135159,21.4576207 L46.5673519,21.4576207 L45.8907504,19.9777482 L46.9303686,19.5004197 L48.8736668,14.986654 L48.876,14.987 L48.8775942,14.9859372 L47.1891801,14.2552694 L47.0733237,14.5302353 C47.6294345,14.7696719 48.156195,15.4122888 47.5352046,16.8550873 C46.0924061,16.2356417 46.0275265,15.4076545 46.2685078,14.8484543 L46.2685078,14.8484543 L45.9919972,14.7310531 L45.2783217,16.3932064 L44.5631015,18.053815 L44.8380673,18.1726991 C45.0790487,17.6165265 45.7232103,17.0898278 47.1644641,17.7108182 C46.5434737,19.1536167 45.4111704,19.7514358 44.5491987,19.7514358 C43.0569681,19.7514358 41.9478361,18.821495 42.1069455,17.8915542 C42.2243467,17.1979605 42.8592398,16.9554962 43.0971317,17.0002322 C43.4014478,17.0589328 43.5837286,17.3663385 43.537386,17.6042303 C43.5265728,17.6582348 43.5049462,17.7077905 43.4771407,17.7525265 L43.4771407,17.7525265 L43.5157595,17.8096205 C43.9158503,17.775636 44.26033,17.4805883 44.3391124,17.0665948 C44.434887,16.5691846 44.1073996,16.0872837 43.6084446,15.992992 C43.301039,15.9342914 42.9998123,16.0362451 42.7912707,16.2416971 L42.7912707,16.2416971 L42.6939514,16.0918562 C42.9658277,15.9481942 43.1743693,15.6886758 43.2361594,15.3627331 C43.3890898,14.5687305 42.4915888,13.799444 42.4792308,13.793265 Z M35.9871689,18.8455561 L37.1225617,19.9794041 L35.9871689,21.1132522 L34.8548656,19.9794041 L35.9871689,18.8455561 Z M30.4010251,19.159116 C30.856727,19.159116 31.224378,19.5283118 31.224378,19.9824689 C31.224378,20.436626 30.856727,20.8042771 30.4010251,20.8042771 C29.9484127,20.8042771 29.5792169,20.436626 29.5792169,19.9824689 C29.5792169,19.5283118 29.9484127,19.159116 30.4010251,19.159116 Z M41.5740592,19.159116 C42.0282163,19.159116 42.3974121,19.5283118 42.3974121,19.9824689 C42.3974121,20.436626 42.0282163,20.8042771 41.5740592,20.8042771 C41.1199021,20.8042771 40.7507063,20.436626 40.7507063,19.9824689 C40.7507063,19.5283118 41.1199021,19.159116 41.5740592,19.159116 Z M50.3380647,13.6401862 C50.7505135,13.6401862 51.0857247,13.9753974 51.0857247,14.3878462 C51.0857247,14.8018398 50.7505135,15.1355063 50.3380647,15.1355063 C49.9225264,15.1355063 49.5888599,14.8018398 49.5888599,14.3878462 C49.5888599,13.9753974 49.9225264,13.6401862 50.3380647,13.6401862 Z M21.6382826,13.6401862 C22.0522761,13.6401862 22.3859426,13.9753974 22.3859426,14.3878462 C22.3859426,14.8018398 22.0522761,15.1355063 21.6382826,15.1355063 C21.2258337,15.1355063 20.8906225,14.8018398 20.8906225,14.3878462 C20.8906225,13.9753974 21.2258337,13.6401862 21.6382826,13.6401862 Z M25.5612288,9.58542189 C25.1580485,9.58542189 24.251279,9.80477669 23.7121605,10.6373981 C23.1854,11.4514825 23.1884895,12.6208599 23.71525,14.0466661 C23.9948502,13.1661574 24.8182031,12.5297195 25.7898522,12.5297195 C26.5668625,12.5297195 27.2511877,12.9375341 27.6342862,13.5508007 C27.9123416,12.9437131 28.4607286,12.4725637 29.1635909,12.3227227 C30.1120687,12.1234497 31.0497332,12.5745173 31.5069799,13.3731542 C31.8808099,12.7181792 32.5867616,12.2763801 33.3962117,12.2763801 C33.4533676,12.2763801 33.5089787,12.2800875 33.5645897,12.2825591 C33.5182472,12.015317 33.4626361,11.7449854 33.3977565,11.473109 C31.7603192,11.6924638 30.2402831,11.074563 28.7665896,10.4767439 C27.6373757,10.0179525 26.569952,9.58542189 25.5612288,9.58542189 Z M46.4153211,9.5853601 C45.4065979,9.5853601 44.3376294,10.0178907 43.2099604,10.4766821 C41.7347221,11.0745012 40.2162307,11.692402 38.5787934,11.4730472 C38.5123691,11.7449236 38.4583028,12.0152552 38.4119602,12.2824974 C38.4675713,12.2787899 38.5231823,12.2763183 38.5803382,12.2763183 C39.3882435,12.2763183 40.0941953,12.7181175 40.4695701,13.3730924 C40.9252719,12.5744555 41.8629365,12.1233879 42.8129591,12.3226609 C43.5142765,12.4740466 44.0672978,12.9467408 44.3422637,13.5522836 C44.7253622,12.939017 45.4096874,12.5296577 46.1882425,12.5296577 C47.1583469,12.5296577 47.9816998,13.1645508 48.2612999,14.0435148 C48.7865156,12.6207981 48.7896051,11.4514207 48.2643894,10.6373363 C47.7237261,9.8047149 46.8185014,9.5853601 46.4153211,9.5853601 Z M35.9852164,11.7388064 C35.4986194,11.7388064 35.1047076,12.1311734 35.1047076,12.6193151 C35.1047076,13.105912 35.4986194,13.4982791 35.9852164,13.4982791 C36.4718133,13.4982791 36.8641803,13.105912 36.8641803,12.6193151 C36.8641803,12.1311734 36.4718133,11.7388064 35.9852164,11.7388064 Z M21.2406522,11.7525114 C21.6531011,11.7525114 21.9883123,12.0877226 21.9883123,12.5017162 C21.9883123,12.914165 21.6531011,13.2493763 21.2406522,13.2493763 C20.8282034,13.2493763 20.4914474,12.914165 20.4914474,12.5017162 C20.4914474,12.0877226 20.8282034,11.7525114 21.2406522,11.7525114 Z M50.7344456,11.7525114 C51.1484392,11.7525114 51.4836504,12.0877226 51.4836504,12.5017162 C51.4836504,12.914165 51.1484392,13.2493763 50.7344456,13.2493763 C50.3219968,13.2493763 49.9867856,12.914165 49.9867856,12.5017162 C49.9867856,12.0877226 50.3219968,11.7525114 50.7344456,11.7525114 Z M35.9852164,10.4520278 C35.4986194,10.4520278 35.1047076,10.8474844 35.1047076,11.3325366 C35.1047076,11.436035 35.1216999,11.5364439 35.1556844,11.629129 C35.3796735,11.4406692 35.6685422,11.3263576 35.9852164,11.3263576 C36.3003458,11.3263576 36.5892144,11.4406692 36.8147483,11.629129 C36.8471881,11.5364439 36.8641803,11.4359732 36.8641803,11.3325366 C36.8641803,10.8474844 36.4718133,10.4520278 35.9852164,10.4520278 Z M21.4246248,9.83560995 C21.8386184,9.83560995 22.1738296,10.1723659 22.1738296,10.5848147 C22.1738296,10.9972636 21.8386184,11.3324748 21.4246248,11.3324748 C21.012176,11.3324748 20.67542,10.9972636 20.67542,10.5848147 C20.67542,10.1723659 21.012176,9.83560995 21.4246248,9.83560995 Z M50.5507684,9.83560995 C50.964762,9.83560995 51.2984284,10.1723659 51.2984284,10.5848147 C51.2984284,10.9972636 50.964762,11.3324748 50.5507684,11.3324748 C50.1367748,11.3324748 49.8031084,10.9972636 49.8031084,10.5848147 C49.8031084,10.1723659 50.1367748,9.83560995 50.5507684,9.83560995 Z M35.9929401,9.44330469 C35.5047984,9.44330469 35.1124314,9.83721649 35.1124314,10.3238134 C35.1124314,10.3422269 35.1124314,10.3607639 35.1139143,10.377818 C35.3440824,10.1677317 35.6483986,10.0364277 35.9851546,10.0364277 C36.3280895,10.0364277 36.63704,10.1739107 36.8702975,10.3917207 C36.8703593,10.3685494 36.8734488,10.3470465 36.8734488,10.3238134 C36.8734488,9.83721649 36.4779923,9.44330469 35.9929401,9.44330469 Z M40.6533918,8.49170029 C41.0689302,8.49170029 41.4025966,8.82845626 41.4025966,9.24090509 C41.4025966,9.65489866 41.0689302,9.99010988 40.6533918,9.99010988 C40.240943,9.99010988 39.9072766,9.65489866 39.9072766,9.24090509 C39.9072766,8.82845626 40.240943,8.49170029 40.6533918,8.49170029 Z M31.321706,8.49170029 C31.7341548,8.49170029 32.069366,8.82845626 32.069366,9.24090509 C32.069366,9.65489866 31.7341548,9.99010988 31.321706,9.99010988 C30.9077124,9.99010988 30.5725012,9.65489866 30.5725012,9.24090509 C30.5725012,8.82845626 30.9077124,8.49170029 31.321706,8.49170029 Z M49.5403473,8.20265863 C49.9527961,8.20265863 50.2880073,8.53786985 50.2880073,8.95031867 C50.2880073,9.36276749 49.9527961,9.69952346 49.5403473,9.69952346 C49.1278984,9.69952346 48.7911425,9.36276749 48.7911425,8.95031867 C48.7911425,8.53786985 49.1278984,8.20265863 49.5403473,8.20265863 Z M22.4364461,8.20265863 C22.8504397,8.20265863 23.1856509,8.53786985 23.1856509,8.95031867 C23.1856509,9.36276749 22.8504397,9.69952346 22.4364461,9.69952346 C22.0239973,9.69952346 21.6887861,9.36276749 21.6887861,8.95031867 C21.6887861,8.53786985 22.0239973,8.20265863 22.4364461,8.20265863 Z M35.9852164,8.60141477 C35.5341487,8.60141477 35.1634082,8.93817074 35.1124314,9.37379085 C35.3410547,9.1621598 35.6469156,9.03240062 35.9852164,9.03240062 C36.3219723,9.03240062 36.6278332,9.1621598 36.8580013,9.37379085 C36.803935,8.93817074 36.4347392,8.60141477 35.9852164,8.60141477 Z M42.4224581,7.83023742 C42.8364517,7.83023742 43.1701181,8.16544864 43.1701181,8.57789746 C43.1701181,8.99189104 42.8364517,9.3255575 42.4224581,9.3255575 C42.0100093,9.3255575 41.6732533,8.99189104 41.6732533,8.57789746 C41.6732533,8.16544864 42.0100093,7.83023742 42.4224581,7.83023742 Z M29.552662,7.83023742 C29.9666556,7.83023742 30.3018668,8.16544864 30.3018668,8.57789746 C30.3018668,8.99189104 29.9666556,9.3255575 29.552662,9.3255575 C29.1402132,9.3255575 28.805002,8.99189104 28.805002,8.57789746 C28.805002,8.16544864 29.1402132,7.83023742 29.552662,7.83023742 Z M27.752566,7.13537083 C28.1665596,7.13537083 28.5017708,7.47058205 28.5017708,7.88303087 C28.5017708,8.2954797 28.1665596,8.63069091 27.752566,8.63069091 C27.3401172,8.63069091 27.004906,8.2954797 27.004906,7.88303087 C27.004906,7.47058205 27.3401172,7.13537083 27.752566,7.13537083 Z M44.2237812,7.13537083 C44.63623,7.13537083 44.9714412,7.47058205 44.9714412,7.88303087 C44.9714412,8.2954797 44.63623,8.63069091 44.2237812,8.63069091 C43.8097876,8.63069091 43.4745764,8.2954797 43.4745764,7.88303087 C43.4745764,7.47058205 43.8097876,7.13537083 44.2237812,7.13537083 Z M23.9978754,7.08193477 C24.4103242,7.08193477 24.7455355,7.41714598 24.7455355,7.82959481 C24.7455355,8.24358838 24.4103242,8.57725485 23.9978754,8.57725485 C23.5838818,8.57725485 23.2486706,8.24358838 23.2486706,7.82959481 C23.2486706,7.41714598 23.5838818,7.08193477 23.9978754,7.08193477 Z M47.9784595,7.08193477 C48.3909083,7.08193477 48.7261195,7.41714598 48.7261195,7.82959481 C48.7261195,8.24358838 48.3909083,8.57725485 47.9784595,8.57725485 C47.5644659,8.57725485 47.2292547,8.24358838 47.2292547,7.82959481 C47.2292547,7.41714598 47.5644659,7.08193477 47.9784595,7.08193477 Z M35.9852164,7.76879336 C35.538783,7.76879336 35.1742215,8.09937032 35.1124314,8.52881142 C35.3441442,8.31872513 35.6484604,8.18742119 35.9852164,8.18742119 C36.3204276,8.18742119 36.6247437,8.31872513 36.8564566,8.52881142 C36.7962112,8.09937032 36.430105,7.76879336 35.9852164,7.76879336 Z M46.0913865,6.74609329 C46.5053801,6.74609329 46.8390466,7.08130451 46.8390466,7.49375333 C46.8390466,7.90620216 46.5053801,8.24141337 46.0913865,8.24141337 C45.677393,8.24141337 45.3421818,7.90620216 45.3421818,7.49375333 C45.3421818,7.08130451 45.677393,6.74609329 46.0913865,6.74609329 Z M25.8840178,6.74609329 C26.2980114,6.74609329 26.6332226,7.08130451 26.6332226,7.49375333 C26.6332226,7.90620216 26.2980114,8.24141337 25.8840178,8.24141337 C25.471569,8.24141337 25.1363577,7.90620216 25.1363577,7.49375333 C25.1363577,7.08130451 25.471569,6.74609329 25.8840178,6.74609329 Z M36.7768487,4.48970472 C37.865899,4.78938664 38.7046994,5.69152189 38.9116962,6.81610146 C38.5100606,6.69870029 37.7809376,6.52717102 36.7768487,6.46389797 L36.7768487,6.46389797 Z M35.1973285,4.48970472 L35.1973285,6.45617421 C34.1886053,6.51641954 33.4687508,6.68479753 33.0640258,6.80528819 C33.2756568,5.68688764 34.1113677,4.78784189 35.1973285,4.48970472 L35.1973285,4.48970472 Z M37.7090943,0.0633471961 L37.7090943,0.347581592 C37.1329017,0.347581592 36.4300395,0.713687851 36.4300395,2.21055268 C37.9253596,2.21055268 38.2914658,1.50769046 38.2914658,0.929953152 L38.2914658,0.929953152 L38.5787897,0.929953152 L38.5787897,4.37475045 L38.2914658,4.37475045 C38.2914658,3.79855789 37.9253596,3.09724042 36.4300395,3.09724042 L36.4300395,3.09724042 C36.4300395,3.76271964 36.5690672,4.20297401 36.7745192,4.48875315 L36.7745192,4.48875315 L36.6931623,4.47300473 C36.5389731,4.44351671 36.2053639,4.38371001 35.9866956,4.38371001 C35.7004015,4.38371001 35.456674,4.42764962 35.3191338,4.45877352 L35.2193458,4.48352346 L35.2193458,4.48352346 L35.2004168,4.48875315 C35.4058688,4.20297401 35.5433517,3.76271964 35.5433517,3.09847622 L35.5433517,3.09847622 C34.0480317,3.09724042 33.6819254,3.79855789 33.6819254,4.3762952 L33.6819254,4.3762952 L33.397691,4.3762952 L33.397691,0.929953152 L33.6819254,0.929953152 C33.6819254,1.50769046 34.0480317,2.21055268 35.5433517,2.21055268 C35.5433517,0.713687851 34.8404895,0.347581592 34.264297,0.347581592 L34.264297,0.347581592 L34.264297,0.0633471961 L37.7090943,0.0633471961 Z" id="Combined-Shape" fill="#FFFFFF" fill-rule="nonzero"></path>
    </g>
</svg>