<?xml version="1.0" encoding="UTF-8"?>
<svg width="138px" height="40px" viewBox="0 0 138 40" version="1.1" xmlns="http://www.w3.org/2000/svg" xmlns:xlink="http://www.w3.org/1999/xlink">
    <title>Shape</title>
    <g id="Page-1" stroke="none" stroke-width="1" fill="none" fill-rule="evenodd" opacity="0.7">
        <g id="homepage---full-width" transform="translate(-120.000000, -1353.000000)" fill="#FFFFFF" fill-rule="nonzero">
            <path d="M143.067352,1384.06403 C143.067352,1389.6002 138.761446,1392.98341 131.841241,1392.98341 C128.919376,1393.13719 125.843729,1392.2145 123.383212,1390.52289 C121.230259,1388.6775 120,1386.21699 120,1383.4489 L120,1382.98756 L125.074817,1382.98756 L125.074817,1383.29512 C125.382382,1386.83212 127.8429,1388.52372 131.687458,1388.52372 C135.685799,1388.52372 137.838752,1387.29346 137.838752,1384.3716 C137.838752,1382.06486 135.993364,1381.29595 131.072329,1380.52704 C123.229429,1379.143 120.615129,1377.91274 120.615129,1372.53036 C120.615129,1369.91606 121.99917,1367.60932 123.998341,1366.0715 C126.151294,1364.68746 128.458029,1364.07233 130.918546,1364.07233 C135.378234,1364.07233 140.914399,1365.61015 141.837093,1372.53036 L141.837093,1372.9917 L136.762276,1372.9917 L136.762276,1372.68414 C136.147146,1369.76228 134.147976,1368.37823 130.918546,1368.37823 C127.996682,1368.37823 125.536164,1369.91606 125.536164,1372.22279 C125.536164,1374.37575 126.920205,1374.99088 132.302588,1375.91357 L132.302588,1375.91357 C137.992534,1376.99005 143.067352,1377.75896 143.067352,1384.06403 Z M159.36828,1364.07233 C156.138851,1363.91855 153.216986,1365.30259 151.064034,1367.76311 L151.064034,1364.53368 L145.989216,1364.53368 L145.989216,1392.36828 L151.064034,1392.36828 L151.064034,1375.606 C150.910251,1371.91523 153.678333,1368.83958 157.36911,1368.6858 C157.676674,1368.6858 157.830457,1368.6858 158.138021,1368.6858 C162.290145,1368.6858 164.135533,1370.68497 164.135533,1375.14466 L164.135533,1392.36828 L169.21035,1392.36828 L169.21035,1375.45222 C169.21035,1366.0715 163.827968,1364.07233 159.36828,1364.07233 L159.36828,1364.07233 Z M196.12226,1368.07067 C198.73656,1370.83875 200.120601,1374.52953 200.120601,1378.2203 L200.120601,1378.68165 C200.27439,1382.52621 198.73656,1386.21699 196.12226,1388.98507 C193.507961,1391.59937 189.817184,1392.98341 186.126408,1392.98341 C178.591073,1393.13719 172.439779,1387.29346 172.285997,1379.75813 C172.285997,1379.45056 172.285997,1379.143 172.285997,1378.83543 L172.285997,1378.37409 C171.978432,1370.83875 177.822161,1364.53368 185.203714,1364.22611 C185.511279,1364.22611 185.818843,1364.22611 186.126408,1364.22611 C189.817184,1364.07233 193.507961,1365.45637 196.12226,1368.07067 L196.12226,1368.07067 Z M177.514597,1378.68165 C177.514597,1384.67916 180.897808,1388.52372 186.126408,1388.52372 C188.433143,1388.6775 190.739878,1387.60103 192.431484,1385.90942 C194.12309,1383.91025 194.892002,1381.29595 194.738219,1378.68165 L194.738219,1378.2203 C194.738219,1372.22279 191.50879,1368.53202 186.126408,1368.53202 C180.897808,1368.53202 177.514597,1372.37658 177.514597,1378.2203 L177.514597,1378.68165 Z M226.417382,1368.07067 C229.031682,1370.83875 230.415723,1374.52953 230.415723,1378.2203 L230.415723,1378.68165 C230.569512,1382.52621 229.031682,1386.21699 226.417382,1388.98507 C223.803082,1391.59937 220.112306,1392.98341 216.42153,1392.98341 C208.886195,1393.13719 202.734901,1387.29346 202.581119,1379.75813 C202.581119,1379.45056 202.581119,1379.143 202.581119,1378.83543 L202.581119,1378.37409 C202.273554,1370.83875 208.117283,1364.53368 215.498836,1364.22611 C215.8064,1364.22611 216.113965,1364.22611 216.42153,1364.22611 C220.112306,1364.07233 223.803082,1365.45637 226.417382,1368.07067 L226.417382,1368.07067 Z M207.963501,1378.68165 C207.963501,1384.67916 211.19293,1388.36994 216.575312,1388.36994 C221.803912,1388.36994 225.187123,1384.52538 225.187123,1378.68165 L225.187123,1378.37409 C225.187123,1372.37658 221.803912,1368.53202 216.575312,1368.53202 C214.268577,1368.37823 211.961842,1369.45471 210.270236,1371.14632 C208.57863,1373.14549 207.809719,1375.75979 207.963501,1378.37409 L207.963501,1378.68165 Z M244.717481,1376.22113 L256.712504,1364.68746 L257.020069,1364.53368 L250.868775,1364.53368 L238.258623,1376.37492 L238.258623,1353 L233.183805,1353 L233.183805,1392.36828 L238.258623,1392.36828 L238.258623,1382.37243 L241.33427,1379.45056 L251.637687,1392.36828 L251.637687,1392.36828 L257.942763,1392.36828 L244.717481,1376.22113 Z" id="Shape"></path>
        </g>
    </g>
</svg>