<svg xmlns="http://www.w3.org/2000/svg" width="462" height="196" viewBox="0 0 462 196">
  <path fill="#FFF" fill-rule="evenodd" d="M249.333754,84.0427039 C249.333754,82.1282653 248.494189,81.290269 246.934575,81.290269 L226.66205,81.290269 C224.863404,81.290269 224.383371,81.8883471 224.383371,83.8027858 L224.383371,135.136923 C224.383371,138.248008 222.584232,138.9658 220.304569,138.9658 C217.785874,138.9658 215.866727,138.248008 215.866727,135.136923 L215.866727,83.9224995 C215.866727,82.1282653 215.626711,81.290269 213.707072,81.290269 L207.230075,81.290269 C204.590879,81.290269 203.990839,80.213336 203.990839,77.8200423 C203.990839,75.7858899 204.590879,74.47002 207.230075,74.47002 L213.587064,74.47002 C215.626711,74.47002 215.866727,73.8714513 215.866727,72.0767263 L215.866727,67.8882172 C215.866727,55.9227302 223.423798,50.5380649 241.176643,50.5380649 C249.933795,50.5380649 253.412556,50.8967155 255.211202,51.4952842 C257.010341,52.0933623 257.250849,53.1702954 257.250849,54.3674328 C257.250849,56.0419533 256.770325,56.9991727 254.372129,56.9991727 L242.136216,56.9991727 C228.221664,56.9991727 224.383371,59.991035 224.383371,68.3670721 L224.383371,72.0767263 C224.383371,73.8714513 224.623879,74.47002 226.66205,74.47002 L252.692507,74.47002 C255.691235,74.47002 257.849906,75.9056037 257.849906,79.0166891 L257.849906,135.136923 C257.849906,138.248008 256.050767,138.9658 253.651588,138.9658 C251.252901,138.9658 249.333754,138.248008 249.333754,135.136923 L249.333754,84.0427039 Z M269.242811,81.7686334 C269.242811,77.4609011 270.442401,76.2647449 273.441129,75.5464624 C279.439077,73.991165 287.35568,73.2728825 292.513572,73.2728825 C298.751536,73.2728825 299.830626,74.3498156 299.830626,76.9825367 C299.830626,79.1364029 298.991061,80.4527635 297.192414,80.4527635 C295.152767,80.4527635 293.113612,80.0936222 290.114884,80.0936222 C280.398651,80.0936222 277.759455,80.9311278 277.759455,86.3157932 L277.759455,135.136923 C277.759455,138.248008 276.080324,138.9658 273.681145,138.9658 C271.161958,138.9658 269.242811,138.248008 269.242811,135.136923 L269.242811,81.7686334 Z M307.745754,98.162057 C307.745754,101.751997 308.825335,102.230852 314.103235,102.230852 L330.056941,102.230852 C338.214052,102.230852 339.533158,101.632284 339.533158,95.6490496 C339.533158,85.2388601 335.33484,79.9739085 325.019058,79.9739085 C313.503686,79.9739085 307.745754,85.8374288 307.745754,97.0851239 L307.745754,98.162057 Z M311.944072,108.453023 C308.225294,108.572246 307.745754,109.529466 307.745754,112.641042 C307.745754,126.521458 312.783637,132.863343 328.737343,132.863343 C334.255259,132.863343 339.41315,132.025837 342.172354,131.307555 C344.331517,130.708986 345.771123,131.78641 345.771123,133.940276 C345.771123,135.37586 345.411099,136.452793 344.091501,137.171075 C340.61274,138.726863 334.974816,139.684083 327.77777,139.684083 C307.985278,139.684083 299.22911,131.78641 299.22911,109.889098 L299.22911,102.111139 C299.22911,79.8541947 310.624474,73.2728825 325.258582,73.2728825 C340.972764,73.2728825 347.81077,81.6494103 347.81077,95.7687634 C347.81077,106.418871 345.531107,107.615027 333.895234,107.854455 L311.944072,108.453023 Z M395.789438,59.2732432 C395.789438,57.7174551 394.350324,56.9991727 385.113139,56.9991727 C372.038153,56.9991727 370.239014,60.3496856 370.239014,68.6064996 L370.239014,72.0767263 C370.239014,73.8714513 370.478539,74.47002 372.518185,74.47002 L381.395346,74.47002 C384.033558,74.47002 384.633598,75.7858899 384.633598,77.8200423 C384.633598,80.213336 384.033558,81.290269 381.395346,81.290269 L372.518185,81.290269 C370.719047,81.290269 370.239014,81.8883471 370.239014,83.8027858 L370.239014,135.136923 C370.239014,138.248008 368.439876,138.9658 366.161196,138.9658 C363.642009,138.9658 361.722862,138.248008 361.722862,135.136923 L361.722862,83.9224995 C361.722862,82.1282653 361.482354,81.290269 359.563207,81.290269 L353.08621,81.290269 C350.447014,81.290269 349.847465,80.213336 349.847465,77.8200423 C349.847465,75.7858899 350.447014,74.47002 353.08621,74.47002 L359.443691,74.47002 C361.482354,74.47002 361.722862,73.8714513 361.722862,72.0767263 L361.722862,68.4862953 C361.722862,55.4438753 368.319867,50.5380649 384.51359,50.5380649 C391.471112,50.5380649 397.468076,51.2558567 401.42687,51.9741392 C403.826049,52.4525035 404.306082,53.2900091 404.306082,56.5208083 L404.306082,123.888737 C404.306082,130.470049 405.625188,132.983057 411.263112,132.983057 L414.022315,132.983057 C416.421495,132.983057 416.901036,133.940276 416.901036,135.495573 C416.901036,136.931648 416.541011,137.888867 415.101897,138.367722 C413.901815,138.846086 411.023095,139.205228 408.144375,139.205228 C397.108544,139.205228 395.789438,132.504202 395.789438,122.453153 L395.789438,59.2732432 Z M421.935968,160.025607 C416.058027,160.025607 414.379389,159.068387 414.379389,155.957302 C414.379389,154.282291 415.098454,153.205358 417.138101,153.205358 L421.216902,153.205358 C429.733055,153.205358 433.811364,144.82932 433.811364,140.641302 C433.811364,137.410503 430.812636,138.128294 428.173932,130.708986 C423.016041,116.709347 412.099726,81.7686334 412.099726,77.4609011 C412.099726,75.6661762 413.658848,73.991165 416.53806,73.991165 C418.697223,73.991165 420.136829,74.5892431 420.856386,77.5806148 C425.055196,94.4528934 429.613046,111.325172 435.25097,128.555611 C435.850519,130.589272 436.690084,130.708986 437.290125,130.708986 C437.890166,130.708986 438.609723,130.589272 439.329772,128.555611 C443.288565,115.5127 450.965152,88.2307225 453.603856,77.4609011 C454.322921,74.47002 455.643011,73.991165 457.682166,73.991165 C460.561378,73.991165 462,75.6661762 462,77.4609011 C462,82.1282653 446.526818,129.87148 443.047565,139.564369 C438.969256,151.290919 434.170897,160.025607 421.935968,160.025607 Z M91.4689345,152.376193 C100.874819,135.887096 107.726104,118.376508 114.284746,101.520911 C117.38135,93.5609279 120.401719,85.6975992 124.098364,78.2145089 C127.156112,72.0261914 130.901449,65.7696764 136.485762,61.0753276 C158.190023,72.4780618 177.366243,88.5201942 173.723209,104.265495 C167.126204,132.782389 123.678335,151.884581 87.7604859,158.538016 C89.0466389,156.507789 90.2855755,154.450577 91.4689345,152.376193 Z M46.3360333,57.0075134 C37.9236588,53.1413482 40.5274421,84.2718282 47.9649964,86.9467435 C55.9834098,89.8311579 89.3697756,88.0261297 94.4347097,87.7243922 C97.6060726,87.5354996 99.2458561,81.3236319 99.2458561,81.3236319 C99.2458561,81.3236319 50.6189472,58.976412 46.3360333,57.0075134 Z M118.366007,66.3530356 C110.714012,73.9695773 104.971819,83.1531915 100.029352,92.763654 C83.6944721,94.1025835 26.1318743,98.8219545 16.770255,99.5897906 C3.16752787,100.704502 25.3095234,128.793566 36.9847425,127.272122 C58.5301402,124.461793 82.089609,112.229403 94.0899322,105.135383 C93.5720282,106.273154 93.0565833,107.411416 92.5470405,108.545752 C85.3165495,124.63057 78.7303645,141.925281 69.3146431,157.724551 C68.6093493,158.908442 67.8799555,160.074179 67.1382658,161.229122 C43.9565275,162.930137 26.7599498,159.614949 19.0238506,153.261289 C-2.68532863,135.433754 -8.5096586,48.1933436 15.8623244,36.97018 C32.5951002,29.2658155 85.6416535,36.6728582 129.84941,57.7571962 C125.528133,60.0052633 121.665739,63.068267 118.366007,66.3530356 Z"/>
</svg>
