<svg xmlns="http://www.w3.org/2000/svg" width="1800" height="900">
  <g fill="none" fill-rule="evenodd">
    <path fill="#ECECEC" d="M449 150h2v600h-2z"/>
    <path fill="#FFF" stroke="#222" stroke-width="2" d="M450 443.6l6.4 6.4-6.4 6.4-6.4-6.4 6.4-6.4zm0 100l6.4 6.4-6.4 6.4-6.4-6.4 6.4-6.4zm0 100l6.4 6.4-6.4 6.4-6.4-6.4 6.4-6.4zm0 100l6.4 6.4-6.4 6.4-6.4-6.4 6.4-6.4zm0-500l6.4 6.4-6.4 6.4-6.4-6.4 6.4-6.4zm0-100l6.4 6.4-6.4 6.4-6.4-6.4 6.4-6.4zm0 200l6.4 6.4-6.4 6.4-6.4-6.4 6.4-6.4z"/>
    <text fill="#222" font-family="Orkney-Bold, Orkney" font-size="14" font-weight="bold" transform="rotate(-90 450 91)">
      <tspan x="404" y="96">User research</tspan>
    </text>
    <text fill="#222" font-family="Orkney-Bold, Orkney" font-size="14" font-weight="bold" transform="rotate(-90 450 807)">
      <tspan x="406.9" y="812">Wireframing</tspan>
    </text>
    <path fill="#ECECEC" d="M599.1 189.7l1.8 1-300 519.6-1.8-1z"/>
    <path fill="#FFF" stroke="#222" stroke-width="2" d="M453.2 444.4l2.4 8.8-8.8 2.4-2.4-8.8 8.8-2.4zm-50 86.6l2.4 8.8-8.8 2.4-2.4-8.8 8.8-2.4zm-50 86.7l2.4 8.7-8.8 2.4-2.4-8.8 8.8-2.3zm-50 86.6l2.4 8.7-8.8 2.4-2.4-8.8 8.8-2.3zm250-433l2.4 8.7-8.8 2.3-2.4-8.7 8.8-2.4zm50-86.7l2.4 8.8-8.8 2.3-2.4-8.7 8.8-2.4zm-100 173.2l2.4 8.8-8.8 2.4-2.4-8.8 8.8-2.4z"/>
    <text fill="#222" font-family="Orkney-Bold, Orkney" font-size="14" font-weight="bold" transform="rotate(-60 631.3 136.6)">
      <tspan x="582.3" y="141.6">User modeling</tspan>
    </text>
    <text fill="#222" font-family="Orkney-Bold, Orkney" font-size="14" font-weight="bold" transform="rotate(-60 273.3 755.5)">
      <tspan x="233.6" y="760.5">Prototyping</tspan>
    </text>
    <path fill="#ECECEC" d="M709.3 299.1l1 1.8-519.6 300-1-1.8z"/>
    <path fill="#FFF" stroke="#222" stroke-width="2" d="M455.6 446.8l-2.4 8.8-8.8-2.4 2.4-8.8 8.8 2.4zm-86.6 50l-2.4 8.8-8.8-2.4 2.4-8.8 8.8 2.4zm-86.7 50l-2.3 8.8-8.8-2.4 2.4-8.8 8.7 2.4zm-86.6 50l-2.3 8.8-8.8-2.4 2.4-8.8 8.7 2.4zm433-250l-2.3 8.8-8.8-2.4 2.4-8.8 8.8 2.4zm86.7-50l-2.4 8.8-8.7-2.4 2.3-8.8 8.8 2.4zm-173.2 100l-2.4 8.8-8.8-2.4 2.4-8.8 8.8 2.4z"/>
    <text fill="#222" font-family="Orkney-Bold, Orkney" font-size="14" font-weight="bold" transform="rotate(-30 756.5 272.8)">
      <tspan x="715.5" y="277.8">User testing</tspan>
    </text>
    <text fill="#222" font-family="Orkney-Bold, Orkney" font-size="14" font-weight="bold" transform="rotate(-30 154.6 620.3)">
      <tspan x="122.6" y="625.3">UI Design</tspan>
    </text>
    <path fill="#ECECEC" d="M710.3 599.1l-1 1.8-519.6-300 1-1.8z"/>
    <path fill="#FFF" stroke="#222" stroke-width="2" d="M455.6 453.2l-8.8 2.4-2.4-8.8 8.8-2.4 2.4 8.8zm-86.6-50l-8.8 2.4-2.4-8.8 8.8-2.4 2.4 8.8zm-86.7-50l-8.7 2.4-2.4-8.8 8.8-2.4 2.3 8.8zm-86.6-50l-8.7 2.4-2.4-8.8 8.8-2.4 2.3 8.8zm433 250l-8.7 2.4-2.4-8.8 8.8-2.4 2.4 8.8zm86.7 50l-8.8 2.4-2.3-8.8 8.7-2.4 2.4 8.8zm-173.2-100l-8.8 2.4-2.4-8.8 8.8-2.4 2.4 8.8z"/>
    <text fill="#222" font-family="Orkney-Bold, Orkney" font-size="14" font-weight="bold" transform="rotate(30 798.6 651.3)">
      <tspan x="709.1" y="656.3">Test analysis/presentation</tspan>
    </text>
    <text fill="#222" font-family="Orkney-Bold, Orkney" font-size="14" font-weight="bold" transform="rotate(30 136 268.6)">
      <tspan x="86.7" y="273.6">Graphic design</tspan>
    </text>
    <path fill="#ECECEC" d="M600.9 709.3l-1.8 1-300-519.6 1.8-1z"/>
    <path fill="#FFF" stroke="#222" stroke-width="2" d="M453.2 455.6l-8.8-2.4 2.4-8.8 8.8 2.4-2.4 8.8zm-50-86.6l-8.8-2.4 2.4-8.8 8.8 2.4-2.4 8.8zm-50-86.6l-8.8-2.4 2.4-8.8 8.8 2.4-2.4 8.8zm-50-86.7l-8.8-2.3 2.4-8.8 8.8 2.4-2.4 8.7zm250 433l-8.8-2.3 2.4-8.7 8.8 2.3-2.4 8.8zm50 86.7l-8.8-2.4 2.4-8.7 8.8 2.3-2.4 8.8zm-100-173.2l-8.8-2.4 2.4-8.8 8.8 2.4-2.4 8.8z"/>
    <text fill="#222" font-family="Orkney-Bold, Orkney" font-size="14" font-weight="bold" transform="rotate(60 636 772.1)">
      <tspan x="577.4" y="777.1">Workshop design</tspan>
    </text>
    <text fill="#222" font-family="Orkney-Bold, Orkney" font-size="14" font-weight="bold" transform="rotate(60 274.9 146.5)">
      <tspan x="238.3" y="151.5">HTML/CSS</tspan>
    </text>
    <path fill="#ECECEC" d="M750 449v2H150v-2z"/>
    <path fill="#FFF" stroke="#222" stroke-width="2" d="M456.4 450l-6.4 6.4-6.4-6.4 6.4-6.4 6.4 6.4zm-100 0l-6.4 6.4-6.4-6.4 6.4-6.4 6.4 6.4zm-100 0l-6.4 6.4-6.4-6.4 6.4-6.4 6.4 6.4zm-100 0l-6.4 6.4-6.4-6.4 6.4-6.4 6.4 6.4zm500 0l-6.4 6.4-6.4-6.4 6.4-6.4 6.4 6.4zm100 0l-6.4 6.4-6.4-6.4 6.4-6.4 6.4 6.4zm-200 0l-6.4 6.4-6.4-6.4 6.4-6.4 6.4 6.4z"/>
    <text fill="#222" font-family="Orkney-Bold, Orkney" font-size="14" font-weight="bold">
      <tspan x="763" y="455">Data analytics</tspan>
    </text>
    <text fill="#222" font-family="Orkney-Bold, Orkney" font-size="14" font-weight="bold">
      <tspan x="42.1" y="455">Motion design</tspan>
    </text>
    <path fill="#F3CD78" fill-opacity=".1" stroke="#F3CD78" stroke-width="2" d="M450 151l149.4 40.2 110.4 109.5L650.4 450l59.4 149.4L550.4 624 450 649.9l-100.7-25.8 13.6-123.4 87.1-50.3z"/>
    <path fill="#ECECEC" d="M1327 150h2v600h-2z"/>
    <path fill="#FFF" stroke="#222" stroke-width="2" d="M1328 443.6l6.4 6.4-6.4 6.4-6.4-6.4 6.4-6.4zm0 100l6.4 6.4-6.4 6.4-6.4-6.4 6.4-6.4zm0 100l6.4 6.4-6.4 6.4-6.4-6.4 6.4-6.4zm0 100l6.4 6.4-6.4 6.4-6.4-6.4 6.4-6.4zm0-500l6.4 6.4-6.4 6.4-6.4-6.4 6.4-6.4zm0-100l6.4 6.4-6.4 6.4-6.4-6.4 6.4-6.4zm0 200l6.4 6.4-6.4 6.4-6.4-6.4 6.4-6.4z"/>
    <text fill="#222" font-family="Orkney-Bold, Orkney" font-size="14" font-weight="bold" transform="rotate(-90 1328 91)">
      <tspan x="1282" y="96">User research</tspan>
    </text>
    <text fill="#222" font-family="Orkney-Bold, Orkney" font-size="14" font-weight="bold" transform="rotate(-90 1328 807)">
      <tspan x="1284.9" y="812">Wireframing</tspan>
    </text>
    <path fill="#ECECEC" d="M1477.1 189.7l1.8 1-300 519.6-1.8-1z"/>
    <path fill="#FFF" stroke="#222" stroke-width="2" d="M1331.2 444.4l2.4 8.8-8.8 2.4-2.4-8.8 8.8-2.4zm-50 86.6l2.4 8.8-8.8 2.4-2.4-8.8 8.8-2.4zm-50 86.7l2.4 8.7-8.8 2.4-2.4-8.8 8.8-2.3zm-50 86.6l2.4 8.7-8.8 2.4-2.4-8.8 8.8-2.3zm250-433l2.4 8.7-8.8 2.4-2.4-8.8 8.8-2.4zm50-86.7l2.4 8.8-8.8 2.3-2.4-8.7 8.8-2.4zm-100 173.2l2.4 8.8-8.8 2.4-2.4-8.8 8.8-2.4z"/>
    <text fill="#222" font-family="Orkney-Bold, Orkney" font-size="14" font-weight="bold" transform="rotate(-60 1509.3 136.6)">
      <tspan x="1460.3" y="141.6">User modeling</tspan>
    </text>
    <text fill="#222" font-family="Orkney-Bold, Orkney" font-size="14" font-weight="bold" transform="rotate(-60 1151.3 755.5)">
      <tspan x="1111.6" y="760.5">Prototyping</tspan>
    </text>
    <path fill="#ECECEC" d="M1587.3 299.1l1 1.8-519.6 300-1-1.8z"/>
    <path fill="#FFF" stroke="#222" stroke-width="2" d="M1333.6 446.8l-2.4 8.8-8.8-2.4 2.4-8.8 8.8 2.4zm-86.6 50l-2.4 8.8-8.8-2.4 2.4-8.8 8.8 2.4zm-86.7 50l-2.3 8.8-8.8-2.4 2.4-8.8 8.7 2.4zm-86.6 50l-2.3 8.8-8.8-2.4 2.4-8.8 8.7 2.4zm433-250l-2.3 8.8-8.7-2.4 2.3-8.8 8.8 2.4zm86.7-50l-2.4 8.8-8.7-2.4 2.3-8.8 8.8 2.4zm-173.2 100l-2.4 8.8-8.8-2.4 2.4-8.8 8.8 2.4z"/>
    <text fill="#222" font-family="Orkney-Bold, Orkney" font-size="14" font-weight="bold" transform="rotate(-30 1634.5 272.8)">
      <tspan x="1593.5" y="277.8">User testing</tspan>
    </text>
    <text fill="#222" font-family="Orkney-Bold, Orkney" font-size="14" font-weight="bold" transform="rotate(-30 1032.6 620.3)">
      <tspan x="1000.6" y="625.3">UI Design</tspan>
    </text>
    <path fill="#ECECEC" d="M1588.3 599.1l-1 1.8-519.6-300 1-1.8z"/>
    <path fill="#FFF" stroke="#222" stroke-width="2" d="M1333.6 453.2l-8.8 2.4-2.4-8.8 8.8-2.4 2.4 8.8zm-86.6-50l-8.8 2.4-2.4-8.8 8.8-2.4 2.4 8.8zm-86.7-50l-8.7 2.4-2.4-8.8 8.8-2.4 2.3 8.8zm-86.6-50l-8.7 2.4-2.4-8.8 8.8-2.4 2.3 8.8zm433 250l-8.7 2.4-2.4-8.8 8.8-2.4 2.4 8.8zm86.7 50l-8.8 2.4-2.3-8.8 8.7-2.4 2.4 8.8zm-173.2-100l-8.8 2.4-2.4-8.8 8.8-2.4 2.4 8.8z"/>
    <text fill="#222" font-family="Orkney-Bold, Orkney" font-size="14" font-weight="bold" transform="rotate(30 1676.6 651.3)">
      <tspan x="1587.1" y="656.3">Test analysis/presentation</tspan>
    </text>
    <text fill="#222" font-family="Orkney-Bold, Orkney" font-size="14" font-weight="bold" transform="rotate(30 1014 268.6)">
      <tspan x="964.7" y="273.6">Graphic design</tspan>
    </text>
    <g>
      <path fill="#ECECEC" d="M1478.9 709.3l-1.8 1-300-519.6 1.8-1z"/>
      <path fill="#FFF" stroke="#222" stroke-width="2" d="M1331.2 455.6l-8.8-2.4 2.4-8.8 8.8 2.4-2.4 8.8zm-50-86.6l-8.8-2.4 2.4-8.8 8.8 2.4-2.4 8.8zm-50-86.7l-8.8-2.3 2.4-8.8 8.8 2.4-2.4 8.7zm-50-86.6l-8.8-2.3 2.4-8.8 8.8 2.4-2.4 8.7zm250 433l-8.8-2.3 2.4-8.8 8.8 2.4-2.4 8.8zm50 86.7l-8.8-2.4 2.4-8.7 8.8 2.3-2.4 8.8zm-100-173.2l-8.8-2.4 2.4-8.8 8.8 2.4-2.4 8.8z"/>
    </g>
    <text fill="#222" font-family="Orkney-Bold, Orkney" font-size="14" font-weight="bold" transform="rotate(60 1514 772.1)">
      <tspan x="1455.4" y="777.1">Workshop design</tspan>
    </text>
    <text fill="#222" font-family="Orkney-Bold, Orkney" font-size="14" font-weight="bold" transform="rotate(60 1152.9 146.5)">
      <tspan x="1116.3" y="151.5">HTML/CSS</tspan>
    </text>
    <g>
      <path fill="#ECECEC" d="M1628 449v2h-600v-2z"/>
      <path fill="#FFF" stroke="#222" stroke-width="2" d="M1334.4 450l-6.4 6.4-6.4-6.4 6.4-6.4 6.4 6.4zm-100 0l-6.4 6.4-6.4-6.4 6.4-6.4 6.4 6.4zm-100 0l-6.4 6.4-6.4-6.4 6.4-6.4 6.4 6.4zm-100 0l-6.4 6.4-6.4-6.4 6.4-6.4 6.4 6.4zm500 0l-6.4 6.4-6.4-6.4 6.4-6.4 6.4 6.4zm100 0l-6.4 6.4-6.4-6.4 6.4-6.4 6.4 6.4zm-200 0l-6.4 6.4-6.4-6.4 6.4-6.4 6.4 6.4z"/>
    </g>
    <text fill="#222" font-family="Orkney-Bold, Orkney" font-size="14" font-weight="bold">
      <tspan x="1641" y="455">Data analytics</tspan>
    </text>
    <text fill="#222" font-family="Orkney-Bold, Orkney" font-size="14" font-weight="bold">
      <tspan x="920.1" y="455">Motion design</tspan>
    </text>
    <path fill="#F3CD78" fill-opacity=".1" stroke="#F3CD78" stroke-width="2" d="M1327.4 350.4l5.2 93L1414 401l-78.2 49 92.5 174.5-100.9 125.3-148.2-39.1-110-110 59.7-150.6-59.7-150 158.3-22.5z"/>
  </g>
</svg>
