<svg xmlns="http://www.w3.org/2000/svg" width="462" height="196" viewBox="0 0 462 196">
  <path fill="#FFF" d="M151.134884,47.6667937 L156.148837,47 L161.162791,47 L161.162791,128.348837 L151.134884,128.348837 L150.418605,88.3412124 L151.134884,47.6667937 Z M246.317822,50.4899101 C250.884845,48.5352912 256.75673,53.7476082 254.147003,58.9599252 C252.189708,62.8691629 247.622686,63.5207026 244.360527,60.2630044 C241.098369,57.0053063 242.403232,51.7929893 246.317822,50.4899101 Z M401.613225,53.1392848 C427.467995,46.4909152 453.816997,62.0607796 460.465366,87.9155503 C467.113736,113.770321 451.543872,140.119322 425.689101,146.767692 C399.83433,153.416062 373.485329,137.846197 366.836959,111.991426 C360.18859,86.1366557 375.758454,59.7876544 401.613225,53.1392848 Z M418.332583,71.1961919 C397.600579,67.8523202 380.212446,87.246776 385.562641,107.310006 C390.912835,128.04201 416.995034,136.736077 433.045619,122.023041 C451.102526,105.303683 442.408459,75.2088379 418.332583,71.1961919 Z M409.040092,81.0558596 C420.508515,79.05446 431.302326,87.7271918 431.302326,99.0684564 C431.302326,112.411121 417.135449,121.750986 404.992413,115.746787 C388.801697,107.741188 392.174763,84.3915257 409.040092,81.0558596 Z M220.817077,63.6620364 L220.817077,56.2093023 L230.954183,56.2093023 L230.954183,71.1147705 L253.255814,71.1147705 L253.255814,128.704079 L248.525165,128.704079 L243.794516,128.026558 L241.091288,128.704079 C234.333218,130.736643 226.899341,128.704079 224.196112,123.96143 C221.492884,120.573824 220.817077,115.831175 220.817077,97.5381003 L220.817077,80.6000684 L216.086428,80.6000684 L211.355779,81.2775896 L199.191253,111.766047 C184.323499,146.997154 186.35092,143.609547 180.268657,143.609547 L176.213815,143.609547 L179.59285,134.801771 L182.971885,125.993994 L172.83478,98.8931429 L162.697674,71.7922917 L168.104131,71.1147705 L172.83478,71.7922917 L180.944464,92.1179301 L188.378341,111.766047 L203.246095,74.5023769 L204.597709,71.1147705 L220.817077,71.1147705 L220.817077,63.6620364 Z M243.794516,101.603228 L243.794516,80.6000684 L230.954183,80.6000684 L230.954183,99.5706642 C230.954183,121.251345 232.305797,123.96143 239.063867,119.896303 C241.767095,117.863739 242.442902,118.54126 243.118709,120.573824 C243.794516,122.606388 243.794516,117.186217 243.794516,101.603228 Z M21.2961578,70.7529821 C41.9987323,66.022523 58.026532,84.9443594 52.6839321,108.596655 C46.6735072,136.97941 7.93965807,136.97941 1.26140821,108.596655 C-3.41336669,91.0263783 5.26835813,74.8076613 21.2961578,70.7529821 Z M33.3170075,80.8896802 C20.6283328,76.1592211 10.610958,84.2685796 9.94313303,99.1357367 C9.27530804,115.354454 19.2926828,124.139592 33.3170075,120.084913 C47.3413322,115.354454 48.0091572,85.6201393 33.3170075,80.8896802 Z M75.2093023,70.4869227 C84.0775194,68.4684838 93.627907,73.1781745 97.7209302,81.924743 L99.7674419,85.9616207 L99.7674419,128.348837 L90.2170543,128.348837 L90.2170543,108.164448 C90.2170543,85.9616207 89.5348837,83.9431819 85.4418605,80.5791171 C80.6666667,77.8878652 72.4806202,79.9063041 69.0697674,84.6159948 L67.0232558,87.3072467 L67.0232558,128.348837 L56.7906977,128.348837 L56.7906977,71.1597356 L61.5658915,71.1597356 C67.0232558,71.8325486 67.0232558,71.8325486 67.0232558,73.1781745 L67.0232558,75.1966134 L69.751938,73.1781745 L75.2093023,70.4869227 Z M123.366279,70.4884556 C135.453488,68.4525198 144.854651,73.2030366 147.540698,82.70407 C148.212209,86.0972963 148.883721,88.8118773 148.883721,107.813944 L148.883721,128.851947 L144.18314,128.851947 C139.482558,128.851947 139.482558,128.173302 138.811047,126.816011 L138.811047,124.780075 L134.781977,126.816011 C120.008721,134.281109 105.906977,127.494656 105.906977,113.243106 C105.906977,99.6702012 112.622093,94.2410392 130.752907,93.562394 L138.811047,93.562394 L138.811047,90.1691677 C137.468023,78.6321985 127.395349,75.9176175 115.979651,84.0613605 L112.622093,86.0972963 L109.936047,83.3827153 C106.578488,80.6681343 106.578488,79.989489 109.936047,77.274908 C113.293605,73.8816818 118.665698,71.1671008 123.366279,70.4884556 Z M138.811047,107.813944 L138.811047,103.063427 L132.767442,102.384782 C118.665698,102.384782 110.607558,109.171235 116.651163,117.314978 C122.694767,126.137366 139.482558,119.350913 138.811047,107.813944 Z M275.99904,71.1616376 C282.657122,69.1378478 288.649395,69.8124444 294.641669,73.1854274 C299.968134,75.8838139 299.968134,75.8838139 296.639093,79.9313935 L294.641669,83.9789732 L290.64682,81.9551834 C276.664848,73.860024 264.014494,83.9789732 264.680302,102.867678 C266.011918,118.3834 281.991314,126.47856 292.644244,116.359611 C294.641669,115.010417 294.641669,115.685014 297.304901,120.40719 L299.302326,123.780173 L297.304901,125.129367 C282.657122,135.248316 262.017069,128.50235 256.690604,111.637434 C250.69833,92.7487292 259.353836,74.5346207 275.99904,71.1616376 Z M318.296512,70.4885709 C330.383721,68.4521305 339.784884,73.2038246 342.47093,82.7072129 C343.142442,86.1012801 343.813953,88.8165339 343.813953,107.82331 L343.813953,128.866527 L339.113372,128.866527 C334.412791,128.866527 334.412791,128.187714 333.741279,126.830087 L333.741279,124.793646 L329.712209,126.830087 C314.938953,134.297035 300.837209,127.5089 300.837209,112.575004 C300.837209,100.356362 308.223837,94.2470414 325.68314,93.568228 L333.741279,93.568228 L333.741279,90.1741607 C332.398256,78.6343322 322.325581,75.9190784 310.909884,84.0648397 L307.552326,86.1012801 L305.537791,84.0648397 C302.180233,80.6707725 302.180233,79.9919591 304.194767,77.2767053 C306.880814,74.5614515 313.59593,71.1673843 318.296512,70.4885709 Z M333.741279,107.82331 L333.741279,102.392803 L327.697674,102.392803 C315.610465,102.392803 310.238372,105.78687 310.238372,112.575004 C310.238372,118.005512 312.924419,120.720766 319.639535,120.720766 C329.040698,120.720766 333.741279,115.969072 333.741279,107.82331 Z"/>
</svg>
