<svg xmlns="http://www.w3.org/2000/svg" width="29" height="36" viewBox="0 0 29 36">
  <g fill="none" fill-rule="evenodd" transform="rotate(-45 15 16.207)">
    <path fill="#F9CD68" d="M9,22 L21,22 L21,29 L9,29 L4,29 L4,13 L9,13 L9,22 Z M14,13 L20,13 L20,19 L14,19 L14,13 Z M14,3 L20,3 L20,10 L14,10 L14,3 Z M23,13 L31,13 L31,19 L23,19 L23,13 Z"/>
    <path fill="#222" fill-rule="nonzero" d="M12,1 L12,19 L19.9421356,19 L19.9421356,13 L20.9421356,13 L20.9421356,19 L30,19 L30,11 L14,11 L14,10 L20,10 L20,1 L12,1 Z M20.9421356,20 L20.9421356,30 L0.942135624,30 L0.942135624,10 L11,10 L11,0 L21,0 L21,10 L31,10 L31,20 L20.9421356,20 Z M11,20 L11,11 L1.94213562,11 L1.94213562,29 L19.9421356,29 L19.9421356,20 L11,20 Z"/>
  </g>
</svg>
