<svg xmlns="http://www.w3.org/2000/svg" width="400" height="400" version="1">
  <g fill="none" fill-rule="evenodd" stroke-opacity=".2" stroke="white">
    <path d="M348 280l-8 18 17 8 9-17-18-9zM313 294l-2-16-16 2 2 16 16-2zM327 250h-18v18h18v-18zM288 106l-1 15 15 2 2-15-16-2zM205 168l19 7 8-19-19-8-8 20zM258 99l-2-18-19 2 3 19 18-3zM164 377l-6 14 14 6 6-14-14-6zM170 295l-19 9 9 20 20-10-10-19zM176 230l-11-9-8 11 11 9 8-11zM173 180l-15 1 1 16 16-2-2-15zM203 42l-6-21-21 6 6 21 21-6zM112 281l2 19 19-1-1-20-20 2zM99 111l15-5-5-14-14 4 4 15zM106 41l-7-20-20 8 8 20 19-8zM20 294l13 13 13-12-12-14-14 13zM73 266l-8-21-21 8 8 21 21-8zM58 171l-13 2 2 13 13-2-2-13zM371 374l4-8 16 8-8 16-8-4 4-8zM375 257l-7 2-3-14 14-4 2 8-7 1zM356 161l-10-4 8-20 20 9-4 10-10-5zM376 103l7-6 12 15-15 11-6-7 8-6zM360 26l-6 5-8-13 12-9 4 6-6 5zM319 351l11-2 3 23-22 3-2-12 11-1zM311 157h-10v-20l20 1v10h-10zM316 44l1 7-15 2-2-15 8-1 1 8zM246 333l7-1 2 14-15 2v-7l7-1zM251 298l-7 3-5-13 13-6 3 7-7 3zM263 262l-7 5-9-15 15-10 4 8-7 4zM228 44l9-4 9 17-18 9-4-9 9-4zM167 94l-7 7-15-15 15-15 7 8-7 7zM108 350l-1-9 17-2 3 17-9 1-1-8zM126 215l4 10-20 8-9-20 11-4 4 10zM99 159l-8-5 10-17 17 11-5 8-9-5zM44 352l8 4-8 16-16-9 5-8 7 5zM8 104l7-8 16 15-15 16-8-7 8-8zM23 66l-10-5 10-20 20 10-5 9-10-4z"/>
  </g>
</svg>
