<svg xmlns="http://www.w3.org/2000/svg" xmlns:xlink="http://www.w3.org/1999/xlink" width="61" height="53" viewBox="0 0 61 53">
  <defs>
    <path id="quote-splodge-b" d="M34.0403448,35.7871235 L31.4181121,33.3032807 C30.6003831,32.5308694 30,31.4297052 30,29.7661494 C30,29.2031189 30.0684239,28.5749767 30.2213706,27.8734231 C31.3215139,22.83041 39.7919504,16 41.3375178,16 C41.6668903,16 42.060661,16.1276712 44,16.9575341 C40.788788,19.3277506 38.6944899,22.3848378 38.6944899,24.3956594 C38.6944899,24.9842238 38.8735985,25.4834187 39.2579777,25.8491965 L41.8808819,28.3445302 C42.7287975,29.1514122 43.1527558,29.9889351 43.1527558,30.8270969 C43.1527558,31.6646198 42.7287975,32.5027816 41.8808819,33.3096637 L39.2579777,35.8049973 C38.4127449,36.6010275 37.5346426,37 36.6565403,37 C35.7737418,37 34.8909432,36.5965585 34.0403448,35.7871235 Z M20.0403437,35.7871235 L17.4181121,33.3032807 C16.6010546,32.5308694 16,31.4290672 16,29.7655114 C16,29.2024809 16.0684239,28.5749767 16.2213706,27.8734231 C17.3221854,22.83041 25.7919504,16 27.3375178,16 C27.6668903,16 28.060661,16.1276712 30,16.9575341 C26.788788,19.3277506 24.6944899,22.3848378 24.6944899,24.3956594 C24.6944899,24.9842238 24.8735985,25.4834187 25.2579777,25.8491965 L25.3237177,25.9111171 L27.8808808,28.3445302 C28.7287965,29.1514122 29.1527548,29.9889351 29.1527548,30.8270969 C29.1527548,31.6646198 28.7287965,32.5027816 27.8808808,33.3096637 L25.2579767,35.8049973 C24.4127439,36.6010275 23.5346416,37 22.6565393,37 C21.7737407,37 20.8909422,36.5965585 20.0403437,35.7871235 Z"/>
    <filter id="quote-splodge-a" width="114.3%" height="109.5%" x="-3.6%" y="-4.8%" filterUnits="objectBoundingBox">
      <feOffset dx="2" in="SourceAlpha" result="shadowOffsetOuter1"/>
      <feColorMatrix in="shadowOffsetOuter1" values="0 0 0 0 1   0 0 0 0 1   0 0 0 0 1  0 0 0 1 0"/>
    </filter>
  </defs>
  <g fill="none" fill-rule="evenodd">
    <path fill="#F9CD68" d="M34.6651982,0.199595756 L34.6651982,0.598787269 C34.530837,0.997978782 35.4713656,0.997978782 36.4118943,0.731851107 L36.9493392,0.864914944 C37.0837004,1.13104262 37.3524229,1.13104262 37.7555066,1.13104262 L38.561674,1.39717029 C38.6960352,1.53023413 38.8303965,1.53023413 38.6960352,1.26410646 L38.8303965,1.13104262 L38.9647577,1.26410646 C38.9647577,1.53023413 39.3678414,1.66329797 39.7709251,1.53023413 L40.0396476,1.66329797 L40.1740088,1.66329797 L40.4427313,1.92942564 L41.9207048,2.72780867 C42.7593094,3.05923145 43.568321,3.45983133 44.339207,3.92538321 L44.4735683,3.92538321 C44.339207,4.05844705 44.876652,4.45763856 45.1453744,4.45763856 L45.2797357,4.45763856 C45.2797357,4.5907024 45.5484581,4.98989391 45.8171806,4.98989391 C45.8171806,4.98989391 45.9515419,4.98989391 45.8171806,4.98989391 C45.6828194,5.12295775 46.2202643,5.6552131 46.3546256,5.6552131 L46.623348,5.78827693 L46.7577093,5.78827693 C47.0264317,5.78827693 48.2356828,6.85278763 48.1013216,7.11891531 C48.1013216,7.25197915 48.5044053,7.65117066 48.7731278,7.65117066 L49.1762115,7.7842345 L49.4449339,7.91729834 C49.4449339,8.18342601 49.9823789,8.8487452 50.1167401,8.71568136 L50.1167401,8.98180904 C50.1167401,9.24793671 50.1167401,9.24793671 50.3854626,9.38100055 C50.654185,9.38100055 50.9229075,9.51406439 50.7885463,9.64712822 L50.654185,9.64712822 L50.3854626,9.51406439 L50.5198238,9.78019206 L50.9229075,9.9132559 L51.19163,10.0463197 L51.3259912,10.3124474 L51.5947137,10.5785751 C51.7290749,10.9777666 52.1321586,11.5100219 52.5352423,11.6430858 C52.8039648,11.7761496 52.938326,11.7761496 52.8039648,11.9092135 L53.2070485,12.5745326 L53.4757709,13.106788 L53.7444934,13.3729157 L54.0132159,13.5059795 L54.0132159,13.905171 L54.4162996,14.1712987 C54.8193833,14.3043625 54.9537445,14.3043625 54.8193833,14.5704902 C54.8193833,14.5704902 54.8193833,14.7035541 54.8193833,14.5704902 C54.9537445,14.4374264 55.7599119,15.3688732 55.6255507,15.5019371 L56.0286344,15.9011286 L56.4317181,16.1672563 L56.7004405,16.5664478 L57.2378855,17.231767 L57.6409692,17.6309585 C57.9096916,17.6309585 58.1784141,18.03015 58.1784141,18.4293415 L58.3127753,18.6954692 C58.4471366,18.6954692 58.715859,19.2277245 58.4471366,19.3607884 C58.4471366,19.4938522 58.4471366,19.626916 58.715859,19.7599799 L58.9845815,20.0261076 L59.1189427,20.2922352 L59.253304,20.4252991 C59.1189427,20.8244906 59.253304,21.0906183 59.3876652,20.9575544 C59.5220264,20.9575544 59.6563877,20.9575544 59.5220264,21.3567459 L59.7907489,22.155129 L60.0594714,22.953512 L60.0594714,23.4857673 L60.1938326,24.0180227 L60.4625551,25.0825334 L60.5969163,25.8809164 C60.5969163,26.0139802 60.5969163,26.2801079 60.8656388,26.4131718 L61,26.8123633 C60.7312775,26.8123633 60.5969163,27.3446186 60.7312775,27.6107463 L60.8656388,27.876874 L60.8656388,28.9413847 L60.7312775,29.0744485 C61,29.2075123 60.8656388,30.4050869 60.5969163,30.6712146 L60.5969163,31.2034699 L60.4625551,31.7357253 L60.4625551,32.2679806 L60.3281938,32.5341083 L60.1938326,32.800236 L60.0594714,33.1994275 L59.7907489,33.7316828 L59.6563877,34.1308743 L59.3876652,34.6631297 L59.1189427,35.3284489 L58.4471366,36.9252149 C58.1784141,37.0582788 57.9096916,37.9897256 58.0440529,37.9897256 L58.0440529,38.2558533 L57.7753304,38.2558533 C57.6409692,38.1227895 57.3722467,38.6550448 57.5066079,38.9211725 C57.6409692,39.1873002 57.5066079,39.4534278 57.1035242,39.4534278 L56.7004405,39.5864917 C55.2022196,41.3374027 53.5374336,42.9415537 51.7290749,44.3767898 C51.7290749,44.5098537 51.5947137,44.6429175 51.3259912,44.6429175 L51.19163,44.9090452 L50.9229075,45.042109 L50.654185,45.3082367 L50.5198238,45.4413005 L49.9823789,45.7074282 L49.4449339,46.1066197 C49.1762115,46.1066197 49.1762115,46.3727474 49.1762115,46.3727474 C49.1762115,46.5058112 49.1762115,46.6388751 48.907489,46.6388751 L48.6387665,46.9050027 L48.5044053,47.0380666 C48.3700441,46.7719389 47.8325991,47.0380666 47.5638767,47.3041943 L47.2951542,47.5703219 L45.5484581,48.2356411 C44.9037985,48.6007495 44.2296835,48.9122988 43.5330396,49.167088 L43.1299559,49.3001518 L42.8612335,49.4332157 L42.592511,49.5662795 L42.0550661,49.6993433 L41.3832599,49.965471 L40.7114537,50.2315987 L40.1740088,50.3646625 L39.7709251,50.6307902 L39.5022026,50.763854 L38.2929515,50.8969179 L36.5462555,51.2961094 L35.4713656,51.4291732 L34.530837,51.5622371 L34.1277533,51.8283647 C34.2621145,52.0944924 33.8590308,52.0944924 33.7246696,51.9614286 C33.5903084,51.8283647 32.784141,51.9614286 32.6497797,52.0944924 L32.246696,52.2275562 L31.1718062,52.3606201 L29.2907489,52.6267478 L27.5440529,52.8928754 C26.0660793,53.1590031 23.2444934,52.8928754 20.5572687,52.4936839 C16.4894674,51.2822193 12.7007687,49.2931463 9.40528634,46.6388751 L6.71806167,43.9775983 C6.71806167,43.8445345 6.04625551,42.7800238 5.77753304,42.6469599 L5.64317181,42.5138961 L5.10572687,41.7155131 C4.70264317,41.0501939 3.89647577,39.8526194 3.76211454,39.320364 L3.35903084,38.9211725 L3.2246696,38.6550448 L2.68722467,37.4574703 L2.28414097,36.3929596 L2.0154185,35.8607042 C1.47797357,35.195385 0.537444934,32.2679806 0.4030837,30.9373422 L0.268722467,29.47364 L0.134361233,28.4091293 L0.134361233,28.0099378 L0,27.6107463 C0.148717677,26.1511828 0.238363639,24.6863072 0.268722467,23.2196397 L0.4030837,22.4212566 L0.537444934,22.0220651 L0.671806167,21.6228736 L0.806167401,21.3567459 L1.07488987,20.1591714 L1.47797357,18.828533 L1.47797357,18.5624053 C1.34361233,18.4293415 1.34361233,18.2962777 1.6123348,18.1632138 L1.74669604,17.7640223 L1.88105727,17.4978946 C2.0154185,17.4978946 2.14977974,17.3648308 2.0154185,17.231767 L2.55286344,16.1672563 L2.55286344,15.9011286 L3.35903084,14.3043625 C3.49339207,14.3043625 3.6277533,14.1712987 3.49339207,14.0382349 L3.6277533,13.905171 L3.76211454,13.6390434 L4.16519824,12.9737242 L4.56828194,12.308405 L4.97136564,11.7761496 L5.50881057,11.1108304 L6.04625551,10.4455112 L6.71806167,9.78019206 L7.25550661,9.38100055 L7.52422907,9.11487287 L7.65859031,8.98180904 L9.94273128,6.98585147 L10.345815,6.7197238 L11.0176211,6.18746845 L11.8237885,5.78827693 L12.2268722,5.52214926 C12.6299559,5.12295775 13.1674009,4.85683007 13.4361233,4.85683007 L13.7048458,4.5907024 L14.9140969,3.92538321 L15.9889868,3.39312786 L16.2577093,3.26006402 L16.5264317,3.26006402 L16.660793,3.12700018 L17.3325991,2.86087251 C18.0044053,2.46168099 19.2136564,2.19555332 19.4823789,2.19555332 L19.7511013,2.06248948 L21.2290749,1.53023413 L21.6321586,1.39717029 L23.2444934,1.13104262 C23.5132159,1.13104262 23.6475771,0.997978782 23.6475771,0.864914944 C23.7819383,0.731851107 23.7819383,0.598787269 24.185022,0.731851107 L24.9911894,0.598787269 C25.3942731,0.332659594 26.469163,0.332659594 28.215859,0.465723431 L34.1277533,0.598787269 L33.9933921,0.199595756 C33.9933921,-0.0665319188 34.530837,-0.0665319188 34.6651982,0.199595756 Z"/>
    <use fill="#000" filter="url(#quote-splodge-a)" xlink:href="#quote-splodge-b"/>
    <use fill="#222" xlink:href="#quote-splodge-b"/>
  </g>
</svg>
