<svg xmlns="http://www.w3.org/2000/svg" width="65" height="57">
  <path fill="#F3CD78" fill-rule="evenodd" d="M37 .6c-.2.5.8.5 1.8.2l.6.1c.1.3.4.3.8.3l.9.3c.1.1.3.1.1-.1l.2-.2.1.2c0 .2.4.4.9.2l.3.2h.1l.3.3 1.6.8 2.5 1.3h.2c-.2.2.4.6.7.6h.1c0 .1.3.6.6.6-.1.1.5.7.6.7l.3.1h.1c.3 0 1.6 1.2 1.5 1.5 0 .1.4.5.7.5l.4.2.3.1c0 .3.6 1 .7.9v.3c0 .2 0 .2.3.4.3 0 .6.1.4.3H54l-.3-.2.1.3.5.2.2.1.2.3.3.3c.1.4.6 1 1 1.1.3.2.4.2.3.3l.4.7.3.6.3.3.3.1v.5l.4.2c.4.2.6.2.4.5.2-.2 1 .8.9 1l.4.4.4.3.3.4.6.7.4.5c.3 0 .6.4.6.8l.1.3c.2 0 .5.6.2.7 0 .2 0 .3.3.5l.3.2.1.3.1.2c-.1.4 0 .7.2.5.1 0 .3 0 .1.5l.3.8.3.9v.6l.1.5.3 1.2.2.8c0 .2 0 .5.3.6l.1.4c-.3 0-.4.6-.3.9l.2.3V31l-.2.2c.3.1.2 1.4-.1 1.7v.6l-.2.5v.6l-.1.3-.2.3-.1.4-.3.6-.1.4-.3.6-.3.7-.7 1.7c-.3.2-.6 1.2-.4 1.2v.2h-.3c-.2-.1-.5.5-.3.8.1.2 0 .5-.5.5l-.4.2a38.5 38.5 0 0 1-5.7 5.4l-.2.3-.2.1-.3.3-.2.2-.5.3-.6.4c-.3 0-.3.3-.3.3 0 .1 0 .3-.3.3l-.3.2-.1.2c-.2-.3-.7 0-1 .3l-.3.3-1.9.7-2.1 1-.4.1-.3.2-.3.1-.6.2-.7.2-.7.3-.6.2-.4.3-.3.1-1.3.1-1.9.5-1.1.1-1 .2-.4.2c.1.3-.3.3-.5.2-.1-.2-1 0-1.1.1l-.4.2-1.2.1-2 .3-1.8.3c-1.6.3-4.6 0-7.5-.4A34.7 34.7 0 0 1 10 50.2l-2.8-2.9c0-.1-.8-1.3-1-1.4l-.2-.2-.6-.8c-.4-.8-1.2-2-1.4-2.6l-.4-.4-.2-.3-.5-1.3-.5-1.2-.3-.5c-.5-.7-1.5-3.9-1.7-5.3l-.1-1.6-.2-1.1V30l-.1-.4.3-4.7.1-.9.2-.4.1-.4.2-.3.2-1.3.5-1.5V20c-.2-.2-.2-.3.1-.5l.2-.4.1-.3c.1 0 .3-.1.1-.3l.6-1.1V17l.9-1.7c.1 0 .3-.2.1-.3L4 15l.1-.3.4-.7.5-.8.4-.5.6-.8.5-.7.8-.7.5-.4.3-.3.2-.1 2.4-2.2.4-.3.7-.5.9-.5.4-.3c.5-.4 1-.7 1.3-.7l.3-.3 1.3-.7 1.1-.6h.6l.2-.2.7-.3c.7-.5 2-.7 2.3-.7l.2-.2 1.6-.6.5-.1 1.7-.3c.3 0 .4-.1.4-.3.1-.1.1-.3.6-.1l.8-.2c.5-.2 1.6-.2 3.5-.1l6.3.1-.2-.4c0-.3.6-.3.7 0v.4z"/>
</svg>
